<?xml version="1.0" encoding="UTF-8"?>
<svg id="_图层_1" data-name="图层_1" xmlns="http://www.w3.org/2000/svg" version="1.1" xmlns:xlink="http://www.w3.org/1999/xlink" viewBox="0 0 288 576">
  <!-- Generator: Adobe Illustrator 29.6.0, SVG Export Plug-In . SVG Version: 2.1.1 Build 207)  -->
  <defs>
    <style>
      .st0 {
        clip-path: url(#clippath-76);
      }

      .st1 {
        clip-path: url(#clippath-51);
      }

      .st2 {
        clip-path: url(#clippath-34);
      }

      .st3 {
        clip-path: url(#clippath-38);
      }

      .st4 {
        clip-path: url(#clippath-21);
      }

      .st5 {
        clip-path: url(#clippath-6);
      }

      .st6 {
        clip-path: url(#clippath-7);
      }

      .st7 {
        clip-path: url(#clippath-17);
      }

      .st8 {
        clip-path: url(#clippath-80);
      }

      .st9 {
        clip-path: url(#clippath-31);
      }

      .st10 {
        clip-path: url(#clippath-79);
      }

      .st11 {
        clip-path: url(#clippath-75);
      }

      .st12 {
        clip-path: url(#clippath-15);
      }

      .st13 {
        clip-path: url(#clippath-33);
      }

      .st14 {
        clip-path: url(#clippath-61);
      }

      .st15 {
        clip-path: url(#clippath-18);
      }

      .st16 {
        clip-path: url(#clippath-47);
      }

      .st17 {
        clip-path: url(#clippath-4);
      }

      .st18 {
        clip-path: url(#clippath-71);
      }

      .st19 {
        clip-path: url(#clippath-22);
      }

      .st20 {
        clip-path: url(#clippath-23);
      }

      .st21 {
        fill: #fff;
        stroke-dasharray: 12;
        stroke-width: 2px;
      }

      .st21, .st22 {
        stroke: #000;
        stroke-miterlimit: 10;
      }

      .st23 {
        clip-path: url(#clippath-82);
      }

      .st24 {
        clip-path: url(#clippath-54);
      }

      .st25 {
        clip-path: url(#clippath-66);
      }

      .st26 {
        clip-path: url(#clippath-9);
      }

      .st27 {
        clip-path: url(#clippath-70);
      }

      .st28 {
        clip-path: url(#clippath-10);
      }

      .st29 {
        clip-path: url(#clippath-42);
      }

      .st30 {
        clip-path: url(#clippath-59);
      }

      .st31 {
        clip-path: url(#clippath-43);
      }

      .st32 {
        clip-path: url(#clippath-64);
      }

      .st33 {
        clip-path: url(#clippath-25);
      }

      .st34 {
        clip-path: url(#clippath-27);
      }

      .st35 {
        clip-path: url(#clippath-60);
      }

      .st36 {
        clip-path: url(#clippath-11);
      }

      .st37 {
        clip-path: url(#clippath-57);
      }

      .st38 {
        fill: #efbe73;
        stroke: #efbe73;
      }

      .st38, .st39, .st40, .st41, .st42, .st43 {
        stroke-linejoin: round;
      }

      .st44, .st39, .st41 {
        fill: none;
      }

      .st22 {
        fill: #eff4fc;
      }

      .st45 {
        clip-path: url(#clippath-85);
      }

      .st46 {
        clip-path: url(#clippath-36);
      }

      .st47 {
        clip-path: url(#clippath-35);
      }

      .st48 {
        clip-path: url(#clippath-48);
      }

      .st49 {
        clip-path: url(#clippath-28);
      }

      .st39 {
        stroke: silver;
        stroke-width: 3px;
      }

      .st50 {
        clip-path: url(#clippath-1);
      }

      .st51 {
        clip-path: url(#clippath-56);
      }

      .st52 {
        clip-path: url(#clippath-45);
      }

      .st53 {
        clip-path: url(#clippath-46);
      }

      .st54 {
        clip-path: url(#clippath-40);
      }

      .st55 {
        clip-path: url(#clippath-5);
      }

      .st56 {
        clip-path: url(#clippath-20);
      }

      .st57 {
        clip-path: url(#clippath-8);
      }

      .st58 {
        clip-path: url(#clippath-52);
      }

      .st59 {
        clip-path: url(#clippath-41);
      }

      .st60 {
        clip-path: url(#clippath-67);
      }

      .st61 {
        clip-path: url(#clippath-74);
      }

      .st62 {
        clip-path: url(#clippath-3);
      }

      .st63 {
        clip-path: url(#clippath-26);
      }

      .st64 {
        clip-path: url(#clippath-12);
      }

      .st65 {
        clip-path: url(#clippath-50);
      }

      .st40 {
        fill: #90b4cf;
        stroke: #90b4cf;
      }

      .st66 {
        clip-path: url(#clippath-14);
      }

      .st67 {
        clip-path: url(#clippath-30);
      }

      .st68 {
        clip-path: url(#clippath-77);
      }

      .st69 {
        clip-path: url(#clippath-19);
      }

      .st70 {
        clip-path: url(#clippath-78);
      }

      .st71 {
        clip-path: url(#clippath-72);
      }

      .st72 {
        clip-path: url(#clippath-84);
      }

      .st73 {
        clip-path: url(#clippath-32);
      }

      .st74 {
        clip-path: url(#clippath-55);
      }

      .st41 {
        stroke: #f9373a;
        stroke-width: 4px;
      }

      .st75 {
        clip-path: url(#clippath-73);
      }

      .st76 {
        clip-path: url(#clippath-53);
      }

      .st77 {
        clip-path: url(#clippath-39);
      }

      .st42 {
        fill: #87bfd6;
        stroke: #87bfd6;
      }

      .st78 {
        clip-path: url(#clippath-81);
      }

      .st79 {
        clip-path: url(#clippath-16);
      }

      .st80 {
        clip-path: url(#clippath-2);
      }

      .st43 {
        fill: #a5b1db;
        stroke: #a5b1db;
      }

      .st81 {
        clip-path: url(#clippath-29);
      }

      .st82 {
        clip-path: url(#clippath-49);
      }

      .st83 {
        clip-path: url(#clippath-37);
      }

      .st84 {
        clip-path: url(#clippath-58);
      }

      .st85 {
        clip-path: url(#clippath-13);
      }

      .st86 {
        clip-path: url(#clippath-86);
      }

      .st87 {
        clip-path: url(#clippath-63);
      }

      .st88 {
        clip-path: url(#clippath-24);
      }

      .st89 {
        clip-path: url(#clippath);
      }

      .st90 {
        clip-path: url(#clippath-87);
      }

      .st91 {
        clip-path: url(#clippath-68);
      }

      .st92 {
        clip-path: url(#clippath-83);
      }

      .st93 {
        clip-path: url(#clippath-65);
      }

      .st94 {
        clip-path: url(#clippath-44);
      }

      .st95 {
        clip-path: url(#clippath-62);
      }

      .st96 {
        clip-path: url(#clippath-69);
      }
    </style>
    <clipPath id="clippath">
      <rect class="st44" x="10.8" y="28.32" width="266.4" height="254.28"/>
    </clipPath>
    <clipPath id="clippath-1">
      <rect class="st44" x="10.8" y="28.32" width="266.4" height="254.28"/>
    </clipPath>
    <clipPath id="clippath-2">
      <rect class="st44" x="10.8" y="28.32" width="266.4" height="254.28"/>
    </clipPath>
    <clipPath id="clippath-3">
      <rect class="st44" x="10.8" y="28.32" width="266.4" height="254.28"/>
    </clipPath>
    <clipPath id="clippath-4">
      <rect class="st44" x="10.8" y="28.32" width="266.4" height="254.28"/>
    </clipPath>
    <clipPath id="clippath-5">
      <rect class="st44" x="10.8" y="28.32" width="266.4" height="254.28"/>
    </clipPath>
    <clipPath id="clippath-6">
      <rect class="st44" x="10.8" y="28.32" width="266.4" height="254.28"/>
    </clipPath>
    <clipPath id="clippath-7">
      <rect class="st44" x="10.8" y="28.32" width="266.4" height="254.28"/>
    </clipPath>
    <clipPath id="clippath-8">
      <rect class="st44" x="10.8" y="28.32" width="266.4" height="254.28"/>
    </clipPath>
    <clipPath id="clippath-9">
      <rect class="st44" x="10.8" y="28.32" width="266.4" height="254.28"/>
    </clipPath>
    <clipPath id="clippath-10">
      <rect class="st44" x="10.8" y="28.32" width="266.4" height="254.28"/>
    </clipPath>
    <clipPath id="clippath-11">
      <rect class="st44" x="10.8" y="28.32" width="266.4" height="254.28"/>
    </clipPath>
    <clipPath id="clippath-12">
      <rect class="st44" x="10.8" y="28.32" width="266.4" height="254.28"/>
    </clipPath>
    <clipPath id="clippath-13">
      <rect class="st44" x="10.8" y="28.32" width="266.4" height="254.28"/>
    </clipPath>
    <clipPath id="clippath-14">
      <rect class="st44" x="10.8" y="28.32" width="266.4" height="254.28"/>
    </clipPath>
    <clipPath id="clippath-15">
      <rect class="st44" x="10.8" y="28.32" width="266.4" height="254.28"/>
    </clipPath>
    <clipPath id="clippath-16">
      <rect class="st44" x="10.8" y="28.32" width="266.4" height="254.28"/>
    </clipPath>
    <clipPath id="clippath-17">
      <rect class="st44" x="10.8" y="28.32" width="266.4" height="254.28"/>
    </clipPath>
    <clipPath id="clippath-18">
      <rect class="st44" x="10.8" y="28.32" width="266.4" height="254.28"/>
    </clipPath>
    <clipPath id="clippath-19">
      <rect class="st44" x="10.8" y="28.32" width="266.4" height="254.28"/>
    </clipPath>
    <clipPath id="clippath-20">
      <rect class="st44" x="10.8" y="28.32" width="266.4" height="254.28"/>
    </clipPath>
    <clipPath id="clippath-21">
      <rect class="st44" x="10.8" y="28.32" width="266.4" height="254.28"/>
    </clipPath>
    <clipPath id="clippath-22">
      <rect class="st44" x="10.8" y="28.32" width="266.4" height="254.28"/>
    </clipPath>
    <clipPath id="clippath-23">
      <rect class="st44" x="10.8" y="28.32" width="266.4" height="254.28"/>
    </clipPath>
    <clipPath id="clippath-24">
      <rect class="st44" x="10.8" y="28.32" width="266.4" height="254.28"/>
    </clipPath>
    <clipPath id="clippath-25">
      <rect class="st44" x="10.8" y="28.32" width="266.4" height="254.28"/>
    </clipPath>
    <clipPath id="clippath-26">
      <rect class="st44" x="10.8" y="28.32" width="266.4" height="254.28"/>
    </clipPath>
    <clipPath id="clippath-27">
      <rect class="st44" x="10.8" y="28.32" width="266.4" height="254.28"/>
    </clipPath>
    <clipPath id="clippath-28">
      <rect class="st44" x="10.8" y="28.32" width="266.4" height="254.28"/>
    </clipPath>
    <clipPath id="clippath-29">
      <rect class="st44" x="10.8" y="28.32" width="266.4" height="254.28"/>
    </clipPath>
    <clipPath id="clippath-30">
      <rect class="st44" x="10.8" y="28.32" width="266.4" height="254.28"/>
    </clipPath>
    <clipPath id="clippath-31">
      <rect class="st44" x="10.8" y="28.32" width="266.4" height="254.28"/>
    </clipPath>
    <clipPath id="clippath-32">
      <rect class="st44" x="10.8" y="28.32" width="266.4" height="254.28"/>
    </clipPath>
    <clipPath id="clippath-33">
      <rect class="st44" x="10.8" y="28.32" width="266.4" height="254.28"/>
    </clipPath>
    <clipPath id="clippath-34">
      <rect class="st44" x="10.8" y="28.32" width="266.4" height="254.28"/>
    </clipPath>
    <clipPath id="clippath-35">
      <rect class="st44" x="10.8" y="28.32" width="266.4" height="254.28"/>
    </clipPath>
    <clipPath id="clippath-36">
      <rect class="st44" x="10.8" y="28.32" width="266.4" height="254.28"/>
    </clipPath>
    <clipPath id="clippath-37">
      <rect class="st44" x="10.8" y="28.32" width="266.4" height="254.28"/>
    </clipPath>
    <clipPath id="clippath-38">
      <rect class="st44" x="10.8" y="28.32" width="266.4" height="254.28"/>
    </clipPath>
    <clipPath id="clippath-39">
      <rect class="st44" x="10.8" y="28.32" width="266.4" height="254.28"/>
    </clipPath>
    <clipPath id="clippath-40">
      <rect class="st44" x="10.8" y="28.32" width="266.4" height="254.28"/>
    </clipPath>
    <clipPath id="clippath-41">
      <rect class="st44" x="10.8" y="28.32" width="266.4" height="254.28"/>
    </clipPath>
    <clipPath id="clippath-42">
      <rect class="st44" x="10.8" y="28.32" width="266.4" height="254.28"/>
    </clipPath>
    <clipPath id="clippath-43">
      <rect class="st44" x="10.8" y="28.32" width="266.4" height="254.28"/>
    </clipPath>
    <clipPath id="clippath-44">
      <rect class="st44" x="10.8" y="28.32" width="266.4" height="254.28"/>
    </clipPath>
    <clipPath id="clippath-45">
      <rect class="st44" x="10.8" y="310.92" width="266.4" height="254.28"/>
    </clipPath>
    <clipPath id="clippath-46">
      <rect class="st44" x="10.8" y="310.92" width="266.4" height="254.28"/>
    </clipPath>
    <clipPath id="clippath-47">
      <rect class="st44" x="10.8" y="310.92" width="266.4" height="254.28"/>
    </clipPath>
    <clipPath id="clippath-48">
      <rect class="st44" x="10.8" y="310.92" width="266.4" height="254.28"/>
    </clipPath>
    <clipPath id="clippath-49">
      <rect class="st44" x="10.8" y="310.92" width="266.4" height="254.28"/>
    </clipPath>
    <clipPath id="clippath-50">
      <rect class="st44" x="10.8" y="310.92" width="266.4" height="254.28"/>
    </clipPath>
    <clipPath id="clippath-51">
      <rect class="st44" x="10.8" y="310.92" width="266.4" height="254.28"/>
    </clipPath>
    <clipPath id="clippath-52">
      <rect class="st44" x="10.8" y="310.92" width="266.4" height="254.28"/>
    </clipPath>
    <clipPath id="clippath-53">
      <rect class="st44" x="10.8" y="310.92" width="266.4" height="254.28"/>
    </clipPath>
    <clipPath id="clippath-54">
      <rect class="st44" x="10.8" y="310.92" width="266.4" height="254.28"/>
    </clipPath>
    <clipPath id="clippath-55">
      <rect class="st44" x="10.8" y="310.92" width="266.4" height="254.28"/>
    </clipPath>
    <clipPath id="clippath-56">
      <rect class="st44" x="10.8" y="310.92" width="266.4" height="254.28"/>
    </clipPath>
    <clipPath id="clippath-57">
      <rect class="st44" x="10.8" y="310.92" width="266.4" height="254.28"/>
    </clipPath>
    <clipPath id="clippath-58">
      <rect class="st44" x="10.8" y="310.92" width="266.4" height="254.28"/>
    </clipPath>
    <clipPath id="clippath-59">
      <rect class="st44" x="10.8" y="310.92" width="266.4" height="254.28"/>
    </clipPath>
    <clipPath id="clippath-60">
      <rect class="st44" x="10.8" y="310.92" width="266.4" height="254.28"/>
    </clipPath>
    <clipPath id="clippath-61">
      <rect class="st44" x="10.8" y="310.92" width="266.4" height="254.28"/>
    </clipPath>
    <clipPath id="clippath-62">
      <rect class="st44" x="10.8" y="310.92" width="266.4" height="254.28"/>
    </clipPath>
    <clipPath id="clippath-63">
      <rect class="st44" x="10.8" y="310.92" width="266.4" height="254.28"/>
    </clipPath>
    <clipPath id="clippath-64">
      <rect class="st44" x="10.8" y="310.92" width="266.4" height="254.28"/>
    </clipPath>
    <clipPath id="clippath-65">
      <rect class="st44" x="10.8" y="310.92" width="266.4" height="254.28"/>
    </clipPath>
    <clipPath id="clippath-66">
      <rect class="st44" x="10.8" y="310.92" width="266.4" height="254.28"/>
    </clipPath>
    <clipPath id="clippath-67">
      <rect class="st44" x="10.8" y="310.92" width="266.4" height="254.28"/>
    </clipPath>
    <clipPath id="clippath-68">
      <rect class="st44" x="10.8" y="310.92" width="266.4" height="254.28"/>
    </clipPath>
    <clipPath id="clippath-69">
      <rect class="st44" x="10.8" y="310.92" width="266.4" height="254.28"/>
    </clipPath>
    <clipPath id="clippath-70">
      <rect class="st44" x="10.8" y="310.92" width="266.4" height="254.28"/>
    </clipPath>
    <clipPath id="clippath-71">
      <rect class="st44" x="10.8" y="310.92" width="266.4" height="254.28"/>
    </clipPath>
    <clipPath id="clippath-72">
      <rect class="st44" x="10.8" y="310.92" width="266.4" height="254.28"/>
    </clipPath>
    <clipPath id="clippath-73">
      <rect class="st44" x="10.8" y="310.92" width="266.4" height="254.28"/>
    </clipPath>
    <clipPath id="clippath-74">
      <rect class="st44" x="10.8" y="310.92" width="266.4" height="254.28"/>
    </clipPath>
    <clipPath id="clippath-75">
      <rect class="st44" x="10.8" y="310.92" width="266.4" height="254.28"/>
    </clipPath>
    <clipPath id="clippath-76">
      <rect class="st44" x="10.8" y="310.92" width="266.4" height="254.28"/>
    </clipPath>
    <clipPath id="clippath-77">
      <rect class="st44" x="10.8" y="310.92" width="266.4" height="254.28"/>
    </clipPath>
    <clipPath id="clippath-78">
      <rect class="st44" x="10.8" y="310.92" width="266.4" height="254.28"/>
    </clipPath>
    <clipPath id="clippath-79">
      <rect class="st44" x="10.8" y="310.92" width="266.4" height="254.28"/>
    </clipPath>
    <clipPath id="clippath-80">
      <rect class="st44" x="10.8" y="310.92" width="266.4" height="254.28"/>
    </clipPath>
    <clipPath id="clippath-81">
      <rect class="st44" x="10.8" y="310.92" width="266.4" height="254.28"/>
    </clipPath>
    <clipPath id="clippath-82">
      <rect class="st44" x="10.8" y="310.92" width="266.4" height="254.28"/>
    </clipPath>
    <clipPath id="clippath-83">
      <rect class="st44" x="10.8" y="310.92" width="266.4" height="254.28"/>
    </clipPath>
    <clipPath id="clippath-84">
      <rect class="st44" x="10.8" y="310.92" width="266.4" height="254.28"/>
    </clipPath>
    <clipPath id="clippath-85">
      <rect class="st44" x="10.8" y="310.92" width="266.4" height="254.28"/>
    </clipPath>
    <clipPath id="clippath-86">
      <rect class="st44" x="10.8" y="310.92" width="266.4" height="254.28"/>
    </clipPath>
    <clipPath id="clippath-87">
      <rect class="st44" x="10.8" y="310.92" width="266.4" height="254.28"/>
    </clipPath>
  </defs>
  <rect class="st21" width="288" height="576"/>
  <rect class="st22" x="10.8" y="28.32" width="266.4" height="254.28"/>
  <rect class="st22" x="10.8" y="310.92" width="266.4" height="254.28"/>
  <g>
    <g id="axes_1">
      <g id="LineCollection_1">
        <g class="st89">
          <path class="st39" d="M166.34,127.44l.44,53.58"/>
        </g>
        <g class="st50">
          <path class="st39" d="M166.34,127.44l-47.54-19.74"/>
        </g>
        <g class="st80">
          <path class="st39" d="M166.34,127.44l40.76-29.28"/>
        </g>
        <g class="st62">
          <path class="st39" d="M166.78,181.02l-41.57,29.75"/>
        </g>
        <g class="st17">
          <path class="st39" d="M166.78,181.02l37.94,30.49"/>
        </g>
        <g class="st55">
          <path class="st39" d="M118.8,107.71l-41.46,29.91"/>
        </g>
        <g class="st5">
          <path class="st39" d="M118.8,107.71l-13.47-48.07"/>
        </g>
        <g class="st6">
          <path class="st39" d="M207.1,98.16l12.34-47.78"/>
        </g>
        <g class="st57">
          <path class="st39" d="M207.1,98.16l46.98,5.16"/>
        </g>
        <g class="st26">
          <path class="st39" d="M125.21,210.77l-45.91-20.79"/>
        </g>
        <g class="st28">
          <path class="st39" d="M125.21,210.77l2.46,49.77"/>
        </g>
        <g class="st36">
          <path class="st39" d="M77.34,137.61l1.96,52.36"/>
        </g>
        <g class="st64">
          <path class="st39" d="M77.34,137.61l-43.42-20.34"/>
        </g>
        <g class="st85">
          <path class="st39" d="M79.3,189.98l-38.98,28"/>
        </g>
      </g>
      <g id="LineCollection_2">
        <g class="st66">
          <path class="st41" d="M118.8,107.71l-13.47-48.07"/>
        </g>
        <g class="st12">
          <path class="st41" d="M125.21,210.77l2.46,49.77"/>
        </g>
        <g class="st79">
          <path class="st41" d="M79.3,189.98l-38.98,28"/>
        </g>
      </g>
      <g id="PathCollection_1">
        <g class="st7">
          <path id="C0_0_10f843ef07" class="st40" d="M166.34,140.19c3.38,0,6.62-1.34,9.01-3.73,2.39-2.39,3.73-5.63,3.73-9.01s-1.34-6.62-3.73-9.01c-2.39-2.39-5.63-3.73-9.01-3.73s-6.62,1.34-9.01,3.73c-2.39,2.39-3.73,5.63-3.73,9.01s1.34,6.62,3.73,9.01c2.39,2.39,5.63,3.73,9.01,3.73Z"/>
        </g>
        <g class="st15">
          <path id="C0_0_10f843ef071" data-name="C0_0_10f843ef07" class="st40" d="M166.78,193.77c3.38,0,6.62-1.34,9.01-3.73,2.39-2.39,3.73-5.63,3.73-9.01s-1.34-6.62-3.73-9.01c-2.39-2.39-5.63-3.73-9.01-3.73s-6.62,1.34-9.01,3.73c-2.39,2.39-3.73,5.63-3.73,9.01s1.34,6.62,3.73,9.01c2.39,2.39,5.63,3.73,9.01,3.73Z"/>
        </g>
        <g class="st69">
          <path id="C0_0_10f843ef072" data-name="C0_0_10f843ef07" class="st40" d="M118.8,120.45c3.38,0,6.62-1.34,9.01-3.73,2.39-2.39,3.73-5.63,3.73-9.01s-1.34-6.62-3.73-9.01c-2.39-2.39-5.63-3.73-9.01-3.73s-6.62,1.34-9.01,3.73c-2.39,2.39-3.73,5.63-3.73,9.01s1.34,6.62,3.73,9.01c2.39,2.39,5.63,3.73,9.01,3.73Z"/>
        </g>
        <g class="st56">
          <path id="C0_0_10f843ef073" data-name="C0_0_10f843ef07" class="st40" d="M207.1,110.91c3.38,0,6.62-1.34,9.01-3.73,2.39-2.39,3.73-5.63,3.73-9.01s-1.34-6.62-3.73-9.01c-2.39-2.39-5.63-3.73-9.01-3.73s-6.62,1.34-9.01,3.73c-2.39,2.39-3.73,5.63-3.73,9.01s1.34,6.62,3.73,9.01c2.39,2.39,5.63,3.73,9.01,3.73Z"/>
        </g>
        <g class="st4">
          <path id="C0_0_10f843ef074" data-name="C0_0_10f843ef07" class="st40" d="M125.21,223.51c3.38,0,6.62-1.34,9.01-3.73,2.39-2.39,3.73-5.63,3.73-9.01s-1.34-6.62-3.73-9.01c-2.39-2.39-5.63-3.73-9.01-3.73s-6.62,1.34-9.01,3.73c-2.39,2.39-3.73,5.63-3.73,9.01s1.34,6.62,3.73,9.01c2.39,2.39,5.63,3.73,9.01,3.73Z"/>
        </g>
        <g class="st19">
          <path id="C0_0_10f843ef075" data-name="C0_0_10f843ef07" class="st40" d="M77.34,150.36c3.38,0,6.62-1.34,9.01-3.73,2.39-2.39,3.73-5.63,3.73-9.01s-1.34-6.62-3.73-9.01c-2.39-2.39-5.63-3.73-9.01-3.73s-6.62,1.34-9.01,3.73c-2.39,2.39-3.73,5.63-3.73,9.01s1.34,6.62,3.73,9.01c2.39,2.39,5.63,3.73,9.01,3.73Z"/>
        </g>
        <g class="st20">
          <path id="C0_0_10f843ef076" data-name="C0_0_10f843ef07" class="st43" d="M219.44,63.13c3.38,0,6.62-1.34,9.01-3.73,2.39-2.39,3.73-5.63,3.73-9.01s-1.34-6.62-3.73-9.01c-2.39-2.39-5.63-3.73-9.01-3.73s-6.62,1.34-9.01,3.73c-2.39,2.39-3.73,5.63-3.73,9.01s1.34,6.62,3.73,9.01c2.39,2.39,5.63,3.73,9.01,3.73Z"/>
        </g>
        <g class="st88">
          <path id="C0_0_10f843ef077" data-name="C0_0_10f843ef07" class="st40" d="M79.3,202.72c3.38,0,6.62-1.34,9.01-3.73,2.39-2.39,3.73-5.63,3.73-9.01s-1.34-6.62-3.73-9.01c-2.39-2.39-5.63-3.73-9.01-3.73s-6.62,1.34-9.01,3.73c-2.39,2.39-3.73,5.63-3.73,9.01s1.34,6.62,3.73,9.01c2.39,2.39,5.63,3.73,9.01,3.73Z"/>
        </g>
        <g class="st33">
          <path id="C0_0_10f843ef078" data-name="C0_0_10f843ef07" class="st38" d="M40.32,230.73c3.38,0,6.62-1.34,9.01-3.73,2.39-2.39,3.73-5.63,3.73-9.01s-1.34-6.62-3.73-9.01c-2.39-2.39-5.63-3.73-9.01-3.73s-6.62,1.34-9.01,3.73c-2.39,2.39-3.73,5.63-3.73,9.01s1.34,6.62,3.73,9.01c2.39,2.39,5.63,3.73,9.01,3.73Z"/>
        </g>
        <g class="st63">
          <path id="C0_0_10f843ef079" data-name="C0_0_10f843ef07" class="st42" d="M204.72,224.26c3.38,0,6.62-1.34,9.01-3.73,2.39-2.39,3.73-5.63,3.73-9.01s-1.34-6.62-3.73-9.01c-2.39-2.39-5.63-3.73-9.01-3.73s-6.62,1.34-9.01,3.73c-2.39,2.39-3.73,5.63-3.73,9.01s1.34,6.62,3.73,9.01c2.39,2.39,5.63,3.73,9.01,3.73Z"/>
        </g>
        <g class="st34">
          <path id="C0_0_10f843ef0710" data-name="C0_0_10f843ef07" class="st42" d="M105.33,72.38c3.38,0,6.62-1.34,9.01-3.73,2.39-2.39,3.73-5.63,3.73-9.01s-1.34-6.62-3.73-9.01c-2.39-2.39-5.63-3.73-9.01-3.73s-6.62,1.34-9.01,3.73c-2.39,2.39-3.73,5.63-3.73,9.01s1.34,6.62,3.73,9.01c2.39,2.39,5.63,3.73,9.01,3.73Z"/>
        </g>
        <g class="st49">
          <path id="C0_0_10f843ef0711" data-name="C0_0_10f843ef07" class="st42" d="M254.08,116.07c3.38,0,6.62-1.34,9.01-3.73,2.39-2.39,3.73-5.63,3.73-9.01s-1.34-6.62-3.73-9.01c-2.39-2.39-5.63-3.73-9.01-3.73s-6.62,1.34-9.01,3.73c-2.39,2.39-3.73,5.63-3.73,9.01s1.34,6.62,3.73,9.01c2.39,2.39,5.63,3.73,9.01,3.73Z"/>
        </g>
        <g class="st81">
          <path id="C0_0_10f843ef0712" data-name="C0_0_10f843ef07" class="st42" d="M127.67,273.28c3.38,0,6.62-1.34,9.01-3.73,2.39-2.39,3.73-5.63,3.73-9.01s-1.34-6.62-3.73-9.01c-2.39-2.39-5.63-3.73-9.01-3.73s-6.62,1.34-9.01,3.73c-2.39,2.39-3.73,5.63-3.73,9.01s1.34,6.62,3.73,9.01c2.39,2.39,5.63,3.73,9.01,3.73Z"/>
        </g>
        <g class="st67">
          <path id="C0_0_10f843ef0713" data-name="C0_0_10f843ef07" class="st42" d="M33.92,130.02c3.38,0,6.62-1.34,9.01-3.73,2.39-2.39,3.73-5.63,3.73-9.01s-1.34-6.62-3.73-9.01c-2.39-2.39-5.63-3.73-9.01-3.73s-6.62,1.34-9.01,3.73c-2.39,2.39-3.73,5.63-3.73,9.01s1.34,6.62,3.73,9.01c2.39,2.39,5.63,3.73,9.01,3.73Z"/>
        </g>
      </g>
      <g id="text_1">
        <g class="st9">
          <path id="DejaVuSans-43" d="M170.47,121.89v1.45c-.47-.43-.96-.76-1.49-.97-.53-.21-1.09-.32-1.68-.32-1.17,0-2.06.36-2.68,1.07s-.93,1.74-.93,3.09.31,2.37.93,3.09,1.51,1.07,2.68,1.07c.59,0,1.15-.11,1.68-.32s1.02-.54,1.49-.97v1.44c-.48.33-.99.57-1.54.74-.54.16-1.11.25-1.71.25-1.55,0-2.76-.47-3.65-1.42-.89-.95-1.33-2.24-1.33-3.87s.44-2.93,1.33-3.88c.89-.95,2.11-1.42,3.65-1.42.61,0,1.18.08,1.72.24.54.16,1.05.4,1.52.73Z"/>
        </g>
      </g>
      <g id="text_2">
        <g class="st73">
          <path id="DejaVuSans-431" data-name="DejaVuSans-43" d="M170.91,175.46v1.45c-.47-.43-.96-.76-1.49-.97-.53-.21-1.09-.32-1.68-.32-1.17,0-2.06.36-2.68,1.07s-.93,1.74-.93,3.09.31,2.37.93,3.09,1.51,1.07,2.68,1.07c.59,0,1.15-.11,1.68-.32s1.02-.54,1.49-.97v1.44c-.48.33-.99.57-1.54.74-.54.16-1.11.25-1.71.25-1.55,0-2.76-.47-3.65-1.42-.89-.95-1.33-2.24-1.33-3.87s.44-2.93,1.33-3.88c.89-.95,2.11-1.42,3.65-1.42.61,0,1.18.08,1.72.24.54.16,1.05.4,1.52.73Z"/>
        </g>
      </g>
      <g id="text_3">
        <g class="st13">
          <path id="DejaVuSans-432" data-name="DejaVuSans-43" d="M122.93,102.15v1.45c-.47-.43-.96-.76-1.49-.97-.53-.21-1.09-.32-1.68-.32-1.17,0-2.06.36-2.68,1.07s-.93,1.74-.93,3.09.31,2.37.93,3.09,1.51,1.07,2.68,1.07c.59,0,1.15-.11,1.68-.32s1.02-.54,1.49-.97v1.44c-.48.33-.99.57-1.54.74-.54.16-1.11.25-1.71.25-1.55,0-2.76-.47-3.65-1.42-.89-.95-1.33-2.24-1.33-3.87s.44-2.93,1.33-3.88c.89-.95,2.11-1.42,3.65-1.42.61,0,1.18.08,1.72.24.54.16,1.05.4,1.52.73Z"/>
        </g>
      </g>
      <g id="text_4">
        <g class="st2">
          <path id="DejaVuSans-433" data-name="DejaVuSans-43" d="M211.23,92.61v1.45c-.47-.43-.96-.76-1.49-.97-.53-.21-1.09-.32-1.68-.32-1.17,0-2.06.36-2.68,1.07s-.93,1.74-.93,3.09.31,2.37.93,3.09,1.51,1.07,2.68,1.07c.59,0,1.15-.11,1.68-.32s1.02-.54,1.49-.97v1.44c-.48.33-.99.57-1.54.74-.54.16-1.11.25-1.71.25-1.55,0-2.76-.47-3.65-1.42-.89-.95-1.33-2.24-1.33-3.87s.44-2.93,1.33-3.88c.89-.95,2.11-1.42,3.65-1.42.61,0,1.18.08,1.72.24.54.16,1.05.4,1.52.73Z"/>
        </g>
      </g>
      <g id="text_5">
        <g class="st47">
          <path id="DejaVuSans-434" data-name="DejaVuSans-43" d="M129.34,205.21v1.45c-.47-.43-.96-.76-1.49-.97-.53-.21-1.09-.32-1.68-.32-1.17,0-2.06.36-2.68,1.07s-.93,1.74-.93,3.09.31,2.37.93,3.09,1.51,1.07,2.68,1.07c.59,0,1.15-.11,1.68-.32s1.02-.54,1.49-.97v1.44c-.48.33-.99.57-1.54.74-.54.16-1.11.25-1.71.25-1.55,0-2.76-.47-3.65-1.42-.89-.95-1.33-2.24-1.33-3.87s.44-2.93,1.33-3.88c.89-.95,2.11-1.42,3.65-1.42.61,0,1.18.08,1.72.24.54.16,1.05.4,1.52.73Z"/>
        </g>
      </g>
      <g id="text_6">
        <g class="st46">
          <path id="DejaVuSans-435" data-name="DejaVuSans-43" d="M81.47,132.06v1.45c-.47-.43-.96-.76-1.49-.97-.53-.21-1.09-.32-1.68-.32-1.17,0-2.06.36-2.68,1.07s-.93,1.74-.93,3.09.31,2.37.93,3.09,1.51,1.07,2.68,1.07c.59,0,1.15-.11,1.68-.32s1.02-.54,1.49-.97v1.44c-.48.33-.99.57-1.54.74-.54.16-1.11.25-1.71.25-1.55,0-2.76-.47-3.65-1.42-.89-.95-1.33-2.24-1.33-3.87s.44-2.93,1.33-3.88c.89-.95,2.11-1.42,3.65-1.42.61,0,1.18.08,1.72.24.54.16,1.05.4,1.52.73Z"/>
        </g>
      </g>
      <g id="text_7">
        <g class="st83">
          <path id="DejaVuSans-4f" d="M219.45,44.98c-1,0-1.8.37-2.39,1.12-.59.75-.88,1.77-.88,3.06s.29,2.3.88,3.05c.59.75,1.39,1.12,2.39,1.12s1.8-.37,2.38-1.12c.59-.75.88-1.76.88-3.05s-.29-2.31-.88-3.06c-.59-.75-1.38-1.12-2.38-1.12ZM219.45,43.86c1.43,0,2.57.48,3.43,1.44.86.96,1.29,2.25,1.29,3.86s-.43,2.89-1.29,3.85c-.86.96-2,1.44-3.43,1.44s-2.58-.48-3.44-1.44c-.86-.96-1.29-2.24-1.29-3.86s.43-2.9,1.29-3.86c.86-.96,2.01-1.44,3.44-1.44Z"/>
        </g>
      </g>
      <g id="text_8">
        <g class="st3">
          <path id="DejaVuSans-436" data-name="DejaVuSans-43" d="M83.43,184.42v1.45c-.47-.43-.96-.76-1.49-.97-.53-.21-1.09-.32-1.68-.32-1.17,0-2.06.36-2.68,1.07s-.93,1.74-.93,3.09.31,2.37.93,3.09,1.51,1.07,2.68,1.07c.59,0,1.15-.11,1.68-.32s1.02-.54,1.49-.97v1.44c-.48.33-.99.57-1.54.74-.54.16-1.11.25-1.71.25-1.55,0-2.76-.47-3.65-1.42-.89-.95-1.33-2.24-1.33-3.87s.44-2.93,1.33-3.88c.89-.95,2.11-1.42,3.65-1.42.61,0,1.18.08,1.72.24.54.16,1.05.4,1.52.73Z"/>
        </g>
      </g>
      <g id="text_9">
        <g class="st77">
          <g>
            <path id="DejaVuSans-437" data-name="DejaVuSans-43" d="M42.51,212.42v1.45c-.47-.43-.96-.76-1.49-.97-.53-.21-1.09-.32-1.68-.32-1.17,0-2.06.36-2.68,1.07s-.93,1.74-.93,3.09.31,2.37.93,3.09,1.51,1.07,2.68,1.07c.59,0,1.15-.11,1.68-.32s1.02-.54,1.49-.97v1.44c-.48.33-.99.57-1.54.74-.54.16-1.11.25-1.71.25-1.55,0-2.76-.47-3.65-1.42-.89-.95-1.33-2.24-1.33-3.87s.44-2.93,1.33-3.88c.89-.95,2.11-1.42,3.65-1.42.61,0,1.18.08,1.72.24.54.16,1.05.4,1.52.73Z"/>
            <path id="DejaVuSans-6c" d="M44.58,211.2h1.26v10.64h-1.26v-10.64Z"/>
          </g>
        </g>
      </g>
      <g id="text_10">
        <g class="st54">
          <path id="DejaVuSans-48" d="M200.83,205.17h1.38v4.18h5.02v-4.18h1.38v10.21h-1.38v-4.86h-5.02v4.86h-1.38v-10.21Z"/>
        </g>
      </g>
      <g id="text_11">
        <g class="st59">
          <path id="DejaVuSans-481" data-name="DejaVuSans-48" d="M101.44,53.29h1.38v4.18h5.02v-4.18h1.38v10.21h-1.38v-4.86h-5.02v4.86h-1.38v-10.21Z"/>
        </g>
      </g>
      <g id="text_12">
        <g class="st29">
          <path id="DejaVuSans-482" data-name="DejaVuSans-48" d="M250.19,96.98h1.38v4.18h5.02v-4.18h1.38v10.21h-1.38v-4.86h-5.02v4.86h-1.38v-10.21Z"/>
        </g>
      </g>
      <g id="text_13">
        <g class="st31">
          <path id="DejaVuSans-483" data-name="DejaVuSans-48" d="M123.78,254.19h1.38v4.18h5.02v-4.18h1.38v10.21h-1.38v-4.86h-5.02v4.86h-1.38v-10.21Z"/>
        </g>
      </g>
      <g id="text_14">
        <g class="st94">
          <path id="DejaVuSans-484" data-name="DejaVuSans-48" d="M30.03,110.93h1.38v4.18h5.02v-4.18h1.38v10.21h-1.38v-4.86h-5.02v4.86h-1.38v-10.21Z"/>
        </g>
      </g>
      <g id="text_15">
        <g>
          <path id="DejaVuSans-30" d="M161.86,151.09c-.41,0-.71.2-.92.6-.2.4-.31,1-.31,1.8s.1,1.4.31,1.8c.2.4.51.6.92.6s.72-.2.92-.6c.2-.4.31-1,.31-1.8s-.1-1.4-.31-1.8c-.2-.4-.51-.6-.92-.6ZM161.86,150.46c.65,0,1.15.26,1.5.78.34.52.52,1.27.52,2.25s-.17,1.73-.52,2.25c-.34.52-.84.77-1.5.77s-1.15-.26-1.5-.77c-.34-.52-.52-1.27-.52-2.25s.17-1.73.52-2.25c.34-.52.84-.78,1.5-.78Z"/>
          <path id="DejaVuSans-2e" d="M165.26,155.41h.82v.99h-.82v-.99Z"/>
          <path id="DejaVuSans-39" d="M167.83,156.28v-.72c.2.09.4.17.6.21.2.05.4.07.6.07.52,0,.92-.17,1.19-.52.27-.35.43-.88.47-1.6-.15.22-.34.4-.57.52-.23.12-.49.18-.77.18-.58,0-1.04-.18-1.38-.53-.34-.35-.51-.84-.51-1.45s.18-1.08.53-1.44c.35-.36.83-.54,1.41-.54.67,0,1.19.26,1.54.78.36.52.53,1.27.53,2.25,0,.92-.22,1.65-.65,2.2-.44.55-1.02.82-1.76.82-.2,0-.4-.02-.6-.06-.2-.04-.41-.1-.63-.18ZM169.4,153.81c.35,0,.63-.12.84-.36.21-.24.31-.57.31-1s-.1-.75-.31-.99c-.21-.24-.49-.36-.84-.36s-.63.12-.84.36c-.21.24-.31.57-.31.99s.1.75.31,1c.21.24.49.36.84.36Z"/>
          <path id="DejaVuSans-33" d="M175.29,153.26c.38.08.67.25.88.5.21.25.32.57.32.94,0,.57-.2,1.02-.59,1.34-.4.31-.96.47-1.69.47-.24,0-.5-.02-.75-.07-.26-.05-.53-.12-.8-.22v-.76c.22.13.46.22.72.29.26.06.53.1.82.1.49,0,.87-.1,1.13-.29s.39-.48.39-.85c0-.34-.12-.61-.36-.81-.24-.19-.58-.29-1-.29h-.68v-.65h.71c.39,0,.68-.08.89-.23s.31-.38.31-.67-.11-.53-.32-.69c-.21-.16-.52-.24-.91-.24-.22,0-.45.02-.7.07-.25.05-.52.12-.82.22v-.7c.3-.08.58-.15.84-.19s.51-.06.74-.06c.6,0,1.07.14,1.42.41.35.27.52.64.52,1.1,0,.32-.09.6-.28.82s-.45.38-.79.46Z"/>
          <path id="DejaVuSans-35" d="M177.99,150.57h3.1v.66h-2.37v1.43c.11-.04.23-.07.34-.09.11-.02.23-.03.34-.03.65,0,1.17.18,1.55.53.38.36.57.84.57,1.45s-.2,1.12-.59,1.46c-.39.35-.94.52-1.65.52-.24,0-.49-.02-.75-.06-.25-.04-.52-.1-.79-.19v-.79c.23.13.48.22.73.28s.51.09.79.09c.45,0,.81-.12,1.07-.35.26-.24.39-.56.39-.96s-.13-.73-.39-.96c-.26-.24-.62-.36-1.07-.36-.21,0-.42.02-.63.07-.21.05-.42.12-.64.22v-2.93Z"/>
        </g>
      </g>
      <g id="text_16">
        <g>
          <path id="DejaVuSans-301" data-name="DejaVuSans-30" d="M132.11,118.57c-.41,0-.71.2-.92.6-.2.4-.31,1-.31,1.8s.1,1.4.31,1.8c.2.4.51.6.92.6s.72-.2.92-.6c.2-.4.31-1,.31-1.8s-.1-1.4-.31-1.8c-.2-.4-.51-.6-.92-.6ZM132.11,117.94c.65,0,1.15.26,1.5.78.34.52.52,1.27.52,2.25s-.17,1.73-.52,2.25c-.34.52-.84.77-1.5.77s-1.15-.26-1.5-.77c-.34-.52-.52-1.27-.52-2.25s.17-1.73.52-2.25c.34-.52.84-.78,1.5-.78Z"/>
          <path id="DejaVuSans-2e1" data-name="DejaVuSans-2e" d="M135.52,122.89h.82v.99h-.82v-.99Z"/>
          <path id="DejaVuSans-302" data-name="DejaVuSans-30" d="M139.75,118.57c-.41,0-.71.2-.92.6-.2.4-.31,1-.31,1.8s.1,1.4.31,1.8c.2.4.51.6.92.6s.72-.2.92-.6c.2-.4.31-1,.31-1.8s-.1-1.4-.31-1.8c-.2-.4-.51-.6-.92-.6ZM139.75,117.94c.65,0,1.15.26,1.5.78.34.52.52,1.27.52,2.25s-.17,1.73-.52,2.25c-.34.52-.84.77-1.5.77s-1.15-.26-1.5-.77c-.34-.52-.52-1.27-.52-2.25s.17-1.73.52-2.25c.34-.52.84-.78,1.5-.78Z"/>
          <path id="DejaVuSans-38" d="M144.84,121.11c-.37,0-.67.1-.88.3-.21.2-.32.48-.32.83s.11.63.32.83c.21.2.51.3.88.3s.67-.1.89-.3c.22-.2.32-.48.32-.83s-.11-.63-.32-.83c-.21-.2-.51-.3-.89-.3ZM144.05,120.78c-.34-.08-.6-.24-.79-.47-.19-.23-.28-.52-.28-.85,0-.47.17-.83.5-1.1.33-.27.79-.41,1.36-.41s1.04.14,1.37.41.5.64.5,1.1c0,.33-.09.62-.28.85-.19.23-.45.39-.79.47.38.09.68.26.89.52.21.26.32.57.32.94,0,.57-.17,1-.52,1.3-.34.3-.84.45-1.48.45s-1.14-.15-1.48-.45c-.34-.3-.52-.74-.52-1.3,0-.37.11-.69.32-.94.21-.26.51-.43.89-.52ZM143.76,119.53c0,.3.09.54.28.71.19.17.45.25.79.25s.6-.08.79-.25c.19-.17.29-.4.29-.71s-.1-.54-.29-.71c-.19-.17-.46-.25-.79-.25s-.61.08-.79.25c-.19.17-.28.4-.28.71Z"/>
          <path id="DejaVuSans-303" data-name="DejaVuSans-30" d="M149.93,118.57c-.41,0-.71.2-.92.6-.2.4-.31,1-.31,1.8s.1,1.4.31,1.8c.2.4.51.6.92.6s.72-.2.92-.6c.2-.4.31-1,.31-1.8s-.1-1.4-.31-1.8c-.2-.4-.51-.6-.92-.6ZM149.93,117.94c.65,0,1.15.26,1.5.78.34.52.52,1.27.52,2.25s-.17,1.73-.52,2.25c-.34.52-.84.77-1.5.77s-1.15-.26-1.5-.77c-.34-.52-.52-1.27-.52-2.25s.17-1.73.52-2.25c.34-.52.84-.78,1.5-.78Z"/>
        </g>
      </g>
      <g id="text_17">
        <g>
          <path id="DejaVuSans-304" data-name="DejaVuSans-30" d="M175.43,106.06c-.41,0-.71.2-.92.6-.2.4-.31,1-.31,1.8s.1,1.4.31,1.8c.2.4.51.6.92.6s.72-.2.92-.6c.2-.4.31-1,.31-1.8s-.1-1.4-.31-1.8c-.2-.4-.51-.6-.92-.6ZM175.43,105.44c.65,0,1.15.26,1.5.78.34.52.52,1.27.52,2.25s-.17,1.73-.52,2.25c-.34.52-.84.77-1.5.77s-1.15-.26-1.5-.77c-.34-.52-.52-1.27-.52-2.25s.17-1.73.52-2.25c.34-.52.84-.78,1.5-.78Z"/>
          <path id="DejaVuSans-2e2" data-name="DejaVuSans-2e" d="M178.84,110.38h.82v.99h-.82v-.99Z"/>
          <path id="DejaVuSans-305" data-name="DejaVuSans-30" d="M183.07,106.06c-.41,0-.71.2-.92.6-.2.4-.31,1-.31,1.8s.1,1.4.31,1.8c.2.4.51.6.92.6s.72-.2.92-.6c.2-.4.31-1,.31-1.8s-.1-1.4-.31-1.8c-.2-.4-.51-.6-.92-.6ZM183.07,105.44c.65,0,1.15.26,1.5.78.34.52.52,1.27.52,2.25s-.17,1.73-.52,2.25c-.34.52-.84.77-1.5.77s-1.15-.26-1.5-.77c-.34-.52-.52-1.27-.52-2.25s.17-1.73.52-2.25c.34-.52.84-.78,1.5-.78Z"/>
          <path id="DejaVuSans-381" data-name="DejaVuSans-38" d="M188.16,108.6c-.37,0-.67.1-.88.3-.21.2-.32.48-.32.83s.11.63.32.83c.21.2.51.3.88.3s.67-.1.89-.3c.22-.2.32-.48.32-.83s-.11-.63-.32-.83c-.21-.2-.51-.3-.89-.3ZM187.37,108.27c-.34-.08-.6-.24-.79-.47-.19-.23-.28-.52-.28-.85,0-.47.17-.83.5-1.1.33-.27.79-.41,1.36-.41s1.04.14,1.37.41.5.64.5,1.1c0,.33-.09.62-.28.85-.19.23-.45.39-.79.47.38.09.68.26.89.52.21.26.32.57.32.94,0,.57-.17,1-.52,1.3-.34.3-.84.45-1.48.45s-1.14-.15-1.48-.45c-.34-.3-.52-.74-.52-1.3,0-.37.11-.69.32-.94.21-.26.51-.43.89-.52ZM187.08,107.02c0,.3.09.54.28.71.19.17.45.25.79.25s.6-.08.79-.25c.19-.17.29-.4.29-.71s-.1-.54-.29-.71c-.19-.17-.46-.25-.79-.25s-.61.08-.79.25c-.19.17-.28.4-.28.71Z"/>
          <path id="DejaVuSans-306" data-name="DejaVuSans-30" d="M193.25,106.06c-.41,0-.71.2-.92.6-.2.4-.31,1-.31,1.8s.1,1.4.31,1.8c.2.4.51.6.92.6s.72-.2.92-.6c.2-.4.31-1,.31-1.8s-.1-1.4-.31-1.8c-.2-.4-.51-.6-.92-.6ZM193.25,105.44c.65,0,1.15.26,1.5.78.34.52.52,1.27.52,2.25s-.17,1.73-.52,2.25c-.34.52-.84.77-1.5.77s-1.15-.26-1.5-.77c-.34-.52-.52-1.27-.52-2.25s.17-1.73.52-2.25c.34-.52.84-.78,1.5-.78Z"/>
        </g>
      </g>
      <g id="text_18">
        <g>
          <path id="DejaVuSans-307" data-name="DejaVuSans-30" d="M139.46,196.43c-.41,0-.71.2-.92.6-.2.4-.31,1-.31,1.8s.1,1.4.31,1.8c.2.4.51.6.92.6s.72-.2.92-.6c.2-.4.31-1,.31-1.8s-.1-1.4-.31-1.8c-.2-.4-.51-.6-.92-.6ZM139.46,195.8c.65,0,1.15.26,1.5.78.34.52.52,1.27.52,2.25s-.17,1.73-.52,2.25c-.34.52-.84.77-1.5.77s-1.15-.26-1.5-.77c-.34-.52-.52-1.27-.52-2.25s.17-1.73.52-2.25c.34-.52.84-.78,1.5-.78Z"/>
          <path id="DejaVuSans-2e3" data-name="DejaVuSans-2e" d="M142.86,200.75h.82v.99h-.82v-.99Z"/>
          <path id="DejaVuSans-391" data-name="DejaVuSans-39" d="M145.43,201.62v-.72c.2.09.4.17.6.21.2.05.4.07.6.07.52,0,.92-.17,1.19-.52.27-.35.43-.88.47-1.6-.15.22-.34.4-.57.52-.23.12-.49.18-.77.18-.58,0-1.04-.18-1.38-.53-.34-.35-.51-.84-.51-1.45s.18-1.08.53-1.44c.35-.36.83-.54,1.41-.54.67,0,1.19.26,1.54.78.36.52.53,1.27.53,2.25,0,.92-.22,1.65-.65,2.2-.44.55-1.02.82-1.76.82-.2,0-.4-.02-.6-.06-.2-.04-.41-.1-.63-.18ZM147,199.15c.35,0,.63-.12.84-.36.21-.24.31-.57.31-1s-.1-.75-.31-.99c-.21-.24-.49-.36-.84-.36s-.63.12-.84.36c-.21.24-.31.57-.31.99s.1.75.31,1c.21.24.49.36.84.36Z"/>
          <path id="DejaVuSans-331" data-name="DejaVuSans-33" d="M152.88,198.6c.38.08.67.25.88.5.21.25.32.57.32.94,0,.57-.2,1.02-.59,1.34-.4.31-.96.47-1.69.47-.24,0-.5-.02-.75-.07-.26-.05-.53-.12-.8-.22v-.76c.22.13.46.22.72.29.26.06.53.1.82.1.49,0,.87-.1,1.13-.29s.39-.48.39-.85c0-.34-.12-.61-.36-.81-.24-.19-.58-.29-1-.29h-.68v-.65h.71c.39,0,.68-.08.89-.23s.31-.38.31-.67-.11-.53-.32-.69c-.21-.16-.52-.24-.91-.24-.22,0-.45.02-.7.07-.25.05-.52.12-.82.22v-.7c.3-.08.58-.15.84-.19s.51-.06.74-.06c.6,0,1.07.14,1.42.41.35.27.52.64.52,1.1,0,.32-.09.6-.28.82s-.45.38-.79.46Z"/>
          <path id="DejaVuSans-36" d="M157.37,198.51c-.35,0-.63.12-.84.36-.21.24-.31.57-.31.99s.1.75.31.99c.21.24.49.36.84.36s.63-.12.84-.36c.21-.24.31-.58.31-.99s-.1-.75-.31-.99c-.21-.24-.49-.36-.84-.36ZM158.94,196.04v.72c-.2-.09-.4-.16-.6-.21-.2-.05-.4-.07-.6-.07-.52,0-.92.18-1.19.53-.27.35-.43.88-.47,1.59.15-.23.35-.4.58-.52.23-.12.49-.18.77-.18.59,0,1.05.18,1.39.53.34.35.51.84.51,1.45s-.18,1.08-.53,1.44c-.35.36-.83.54-1.41.54-.67,0-1.19-.26-1.55-.77-.36-.52-.53-1.27-.53-2.25,0-.92.22-1.66.66-2.2.44-.55,1.02-.82,1.76-.82.2,0,.4.02.6.06s.41.1.63.17Z"/>
        </g>
      </g>
      <g id="text_19">
        <g>
          <path id="DejaVuSans-308" data-name="DejaVuSans-30" d="M179.4,189.66c-.41,0-.71.2-.92.6-.2.4-.31,1-.31,1.8s.1,1.4.31,1.8c.2.4.51.6.92.6s.72-.2.92-.6c.2-.4.31-1,.31-1.8s-.1-1.4-.31-1.8c-.2-.4-.51-.6-.92-.6ZM179.4,189.04c.65,0,1.15.26,1.5.78.34.52.52,1.27.52,2.25s-.17,1.73-.52,2.25c-.34.52-.84.77-1.5.77s-1.15-.26-1.5-.77c-.34-.52-.52-1.27-.52-2.25s.17-1.73.52-2.25c.34-.52.84-.78,1.5-.78Z"/>
          <path id="DejaVuSans-2e4" data-name="DejaVuSans-2e" d="M182.8,193.98h.82v.99h-.82v-.99Z"/>
          <path id="DejaVuSans-392" data-name="DejaVuSans-39" d="M185.37,194.85v-.72c.2.09.4.17.6.21.2.05.4.07.6.07.52,0,.92-.17,1.19-.52.27-.35.43-.88.47-1.6-.15.22-.34.4-.57.52-.23.12-.49.18-.77.18-.58,0-1.04-.18-1.38-.53-.34-.35-.51-.84-.51-1.45s.18-1.08.53-1.44c.35-.36.83-.54,1.41-.54.67,0,1.19.26,1.54.78.36.52.53,1.27.53,2.25,0,.92-.22,1.65-.65,2.2-.44.55-1.02.82-1.76.82-.2,0-.4-.02-.6-.06-.2-.04-.41-.1-.63-.18ZM186.94,192.38c.35,0,.63-.12.84-.36.21-.24.31-.57.31-1s-.1-.75-.31-.99c-.21-.24-.49-.36-.84-.36s-.63.12-.84.36c-.21.24-.31.57-.31.99s.1.75.31,1c.21.24.49.36.84.36Z"/>
          <path id="DejaVuSans-332" data-name="DejaVuSans-33" d="M192.83,191.83c.38.08.67.25.88.5.21.25.32.57.32.94,0,.57-.2,1.02-.59,1.34-.4.31-.96.47-1.69.47-.24,0-.5-.02-.75-.07-.26-.05-.53-.12-.8-.22v-.76c.22.13.46.22.72.29.26.06.53.1.82.1.49,0,.87-.1,1.13-.29s.39-.48.39-.85c0-.34-.12-.61-.36-.81-.24-.19-.58-.29-1-.29h-.68v-.65h.71c.39,0,.68-.08.89-.23s.31-.38.31-.67-.11-.53-.32-.69c-.21-.16-.52-.24-.91-.24-.22,0-.45.02-.7.07-.25.05-.52.12-.82.22v-.7c.3-.08.58-.15.84-.19s.51-.06.74-.06c.6,0,1.07.14,1.42.41.35.27.52.64.52,1.1,0,.32-.09.6-.28.82s-.45.38-.79.46Z"/>
          <path id="DejaVuSans-351" data-name="DejaVuSans-35" d="M195.54,189.14h3.1v.66h-2.37v1.43c.11-.04.23-.07.34-.09.11-.02.23-.03.34-.03.65,0,1.17.18,1.55.53.38.36.57.84.57,1.45s-.2,1.12-.59,1.46c-.39.35-.94.52-1.65.52-.24,0-.49-.02-.75-.06-.25-.04-.52-.1-.79-.19v-.79c.23.13.48.22.73.28s.51.09.79.09c.45,0,.81-.12,1.07-.35.26-.24.39-.56.39-.96s-.13-.73-.39-.96c-.26-.24-.62-.36-1.07-.36-.21,0-.42.02-.63.07-.21.05-.42.12-.64.22v-2.93Z"/>
        </g>
      </g>
      <g id="text_20">
        <g>
          <path id="DejaVuSans-309" data-name="DejaVuSans-30" d="M91.55,123.19c-.41,0-.71.2-.92.6-.2.4-.31,1-.31,1.8s.1,1.4.31,1.8c.2.4.51.6.92.6s.72-.2.92-.6c.2-.4.31-1,.31-1.8s-.1-1.4-.31-1.8c-.2-.4-.51-.6-.92-.6ZM91.55,122.56c.65,0,1.15.26,1.5.78.34.52.52,1.27.52,2.25s-.17,1.73-.52,2.25c-.34.52-.84.77-1.5.77s-1.15-.26-1.5-.77c-.34-.52-.52-1.27-.52-2.25s.17-1.73.52-2.25c.34-.52.84-.78,1.5-.78Z"/>
          <path id="DejaVuSans-2e5" data-name="DejaVuSans-2e" d="M94.95,127.51h.82v.99h-.82v-.99Z"/>
          <path id="DejaVuSans-393" data-name="DejaVuSans-39" d="M97.52,128.38v-.72c.2.09.4.17.6.21.2.05.4.07.6.07.52,0,.92-.17,1.19-.52.27-.35.43-.88.47-1.6-.15.22-.34.4-.57.52-.23.12-.49.18-.77.18-.58,0-1.04-.18-1.38-.53-.34-.35-.51-.84-.51-1.45s.18-1.08.53-1.44c.35-.36.83-.54,1.41-.54.67,0,1.19.26,1.54.78.36.52.53,1.27.53,2.25,0,.92-.22,1.65-.65,2.2-.44.55-1.02.82-1.76.82-.2,0-.4-.02-.6-.06-.2-.04-.41-.1-.63-.18ZM99.09,125.9c.35,0,.63-.12.84-.36.21-.24.31-.57.31-1s-.1-.75-.31-.99c-.21-.24-.49-.36-.84-.36s-.63.12-.84.36c-.21.24-.31.57-.31.99s.1.75.31,1c.21.24.49.36.84.36Z"/>
          <path id="DejaVuSans-333" data-name="DejaVuSans-33" d="M104.97,125.35c.38.08.67.25.88.5.21.25.32.57.32.94,0,.57-.2,1.02-.59,1.34-.4.31-.96.47-1.69.47-.24,0-.5-.02-.75-.07-.26-.05-.53-.12-.8-.22v-.76c.22.13.46.22.72.29.26.06.53.1.82.1.49,0,.87-.1,1.13-.29s.39-.48.39-.85c0-.34-.12-.61-.36-.81-.24-.19-.58-.29-1-.29h-.68v-.65h.71c.39,0,.68-.08.89-.23s.31-.38.31-.67-.11-.53-.32-.69c-.21-.16-.52-.24-.91-.24-.22,0-.45.02-.7.07-.25.05-.52.12-.82.22v-.7c.3-.08.58-.15.84-.19s.51-.06.74-.06c.6,0,1.07.14,1.42.41.35.27.52.64.52,1.1,0,.32-.09.6-.28.82s-.45.38-.79.46Z"/>
          <path id="DejaVuSans-352" data-name="DejaVuSans-35" d="M107.68,122.67h3.1v.66h-2.37v1.43c.11-.04.23-.07.34-.09.11-.02.23-.03.34-.03.65,0,1.17.18,1.55.53.38.36.57.84.57,1.45s-.2,1.12-.59,1.46c-.39.35-.94.52-1.65.52-.24,0-.49-.02-.75-.06-.25-.04-.52-.1-.79-.19v-.79c.23.13.48.22.73.28s.51.09.79.09c.45,0,.81-.12,1.07-.35.26-.24.39-.56.39-.96s-.13-.73-.39-.96c-.26-.24-.62-.36-1.07-.36-.21,0-.42.02-.63.07-.21.05-.42.12-.64.22v-2.93Z"/>
        </g>
      </g>
      <g id="text_21">
        <g>
          <path id="DejaVuSans-3010" data-name="DejaVuSans-30" d="M99.12,81.81c-.41,0-.71.2-.92.6-.2.4-.31,1-.31,1.8s.1,1.4.31,1.8c.2.4.51.6.92.6s.72-.2.92-.6c.2-.4.31-1,.31-1.8s-.1-1.4-.31-1.8c-.2-.4-.51-.6-.92-.6ZM99.12,81.18c.65,0,1.15.26,1.5.78.34.52.52,1.27.52,2.25s-.17,1.73-.52,2.25c-.34.52-.84.77-1.5.77s-1.15-.26-1.5-.77c-.34-.52-.52-1.27-.52-2.25s.17-1.73.52-2.25c.34-.52.84-.78,1.5-.78Z"/>
          <path id="DejaVuSans-2e6" data-name="DejaVuSans-2e" d="M102.52,86.13h.82v.99h-.82v-.99Z"/>
          <path id="DejaVuSans-394" data-name="DejaVuSans-39" d="M105.09,87v-.72c.2.09.4.17.6.21.2.05.4.07.6.07.52,0,.92-.17,1.19-.52.27-.35.43-.88.47-1.6-.15.22-.34.4-.57.52-.23.12-.49.18-.77.18-.58,0-1.04-.18-1.38-.53-.34-.35-.51-.84-.51-1.45s.18-1.08.53-1.44c.35-.36.83-.54,1.41-.54.67,0,1.19.26,1.54.78.36.52.53,1.27.53,2.25,0,.92-.22,1.65-.65,2.2-.44.55-1.02.82-1.76.82-.2,0-.4-.02-.6-.06-.2-.04-.41-.1-.63-.18ZM106.66,84.53c.35,0,.63-.12.84-.36.21-.24.31-.57.31-1s-.1-.75-.31-.99c-.21-.24-.49-.36-.84-.36s-.63.12-.84.36c-.21.24-.31.57-.31.99s.1.75.31,1c.21.24.49.36.84.36Z"/>
          <path id="DejaVuSans-34" d="M112.33,81.97l-1.99,3.11h1.99v-3.11ZM112.12,81.29h.99v3.8h.83v.66h-.83v1.37h-.78v-1.37h-2.63v-.76l2.42-3.7Z"/>
          <path id="DejaVuSans-32" d="M115.93,86.46h2.75v.66h-3.7v-.66c.3-.31.71-.73,1.22-1.25.52-.52.84-.86.97-1.01.25-.28.43-.52.53-.72.1-.2.15-.39.15-.58,0-.31-.11-.56-.33-.76-.22-.2-.5-.29-.85-.29-.25,0-.51.04-.78.13-.27.09-.57.22-.88.39v-.8c.32-.13.61-.22.89-.29.28-.06.53-.1.76-.1.6,0,1.09.15,1.44.45.36.3.54.7.54,1.21,0,.24-.04.47-.13.68-.09.21-.25.47-.49.76-.06.08-.27.29-.62.65-.35.36-.84.87-1.48,1.51Z"/>
        </g>
      </g>
      <g id="text_22">
        <g>
          <path id="DejaVuSans-3011" data-name="DejaVuSans-30" d="M200.3,70.02c-.41,0-.71.2-.92.6-.2.4-.31,1-.31,1.8s.1,1.4.31,1.8c.2.4.51.6.92.6s.72-.2.92-.6c.2-.4.31-1,.31-1.8s-.1-1.4-.31-1.8c-.2-.4-.51-.6-.92-.6ZM200.3,69.39c.65,0,1.15.26,1.5.78.34.52.52,1.27.52,2.25s-.17,1.73-.52,2.25c-.34.52-.84.77-1.5.77s-1.15-.26-1.5-.77c-.34-.52-.52-1.27-.52-2.25s.17-1.73.52-2.25c.34-.52.84-.78,1.5-.78Z"/>
          <path id="DejaVuSans-2e7" data-name="DejaVuSans-2e" d="M203.7,74.34h.82v.99h-.82v-.99Z"/>
          <path id="DejaVuSans-3012" data-name="DejaVuSans-30" d="M207.93,70.02c-.41,0-.71.2-.92.6-.2.4-.31,1-.31,1.8s.1,1.4.31,1.8c.2.4.51.6.92.6s.72-.2.92-.6c.2-.4.31-1,.31-1.8s-.1-1.4-.31-1.8c-.2-.4-.51-.6-.92-.6ZM207.93,69.39c.65,0,1.15.26,1.5.78.34.52.52,1.27.52,2.25s-.17,1.73-.52,2.25c-.34.52-.84.77-1.5.77s-1.15-.26-1.5-.77c-.34-.52-.52-1.27-.52-2.25s.17-1.73.52-2.25c.34-.52.84-.78,1.5-.78Z"/>
          <path id="DejaVuSans-37" d="M211.14,69.5h3.75v.34l-2.12,5.5h-.82l1.99-5.17h-2.8v-.66Z"/>
          <path id="DejaVuSans-395" data-name="DejaVuSans-39" d="M216.45,75.21v-.72c.2.09.4.17.6.21.2.05.4.07.6.07.52,0,.92-.17,1.19-.52.27-.35.43-.88.47-1.6-.15.22-.34.4-.57.52-.23.12-.49.18-.77.18-.58,0-1.04-.18-1.38-.53-.34-.35-.51-.84-.51-1.45s.18-1.08.53-1.44c.35-.36.83-.54,1.41-.54.67,0,1.19.26,1.54.78.36.52.53,1.27.53,2.25,0,.92-.22,1.65-.65,2.2-.44.55-1.02.82-1.76.82-.2,0-.4-.02-.6-.06-.2-.04-.41-.1-.63-.18ZM218.02,72.74c.35,0,.63-.12.84-.36.21-.24.31-.57.31-1s-.1-.75-.31-.99c-.21-.24-.49-.36-.84-.36s-.63.12-.84.36c-.21.24-.31.57-.31.99s.1.75.31,1c.21.24.49.36.84.36Z"/>
        </g>
      </g>
      <g id="text_23">
        <g>
          <path id="DejaVuSans-3013" data-name="DejaVuSans-30" d="M222.12,93.25c-.41,0-.71.2-.92.6-.2.4-.31,1-.31,1.8s.1,1.4.31,1.8c.2.4.51.6.92.6s.72-.2.92-.6c.2-.4.31-1,.31-1.8s-.1-1.4-.31-1.8c-.2-.4-.51-.6-.92-.6ZM222.12,92.63c.65,0,1.15.26,1.5.78.34.52.52,1.27.52,2.25s-.17,1.73-.52,2.25c-.34.52-.84.77-1.5.77s-1.15-.26-1.5-.77c-.34-.52-.52-1.27-.52-2.25s.17-1.73.52-2.25c.34-.52.84-.78,1.5-.78Z"/>
          <path id="DejaVuSans-2e8" data-name="DejaVuSans-2e" d="M225.52,97.57h.82v.99h-.82v-.99Z"/>
          <path id="DejaVuSans-396" data-name="DejaVuSans-39" d="M228.09,98.44v-.72c.2.09.4.17.6.21.2.05.4.07.6.07.52,0,.92-.17,1.19-.52.27-.35.43-.88.47-1.6-.15.22-.34.4-.57.52-.23.12-.49.18-.77.18-.58,0-1.04-.18-1.38-.53-.34-.35-.51-.84-.51-1.45s.18-1.08.53-1.44c.35-.36.83-.54,1.41-.54.67,0,1.19.26,1.54.78.36.52.53,1.27.53,2.25,0,.92-.22,1.65-.65,2.2-.44.55-1.02.82-1.76.82-.2,0-.4-.02-.6-.06-.2-.04-.41-.1-.63-.18ZM229.66,95.97c.35,0,.63-.12.84-.36.21-.24.31-.57.31-1s-.1-.75-.31-.99c-.21-.24-.49-.36-.84-.36s-.63.12-.84.36c-.21.24-.31.57-.31.99s.1.75.31,1c.21.24.49.36.84.36Z"/>
          <path id="DejaVuSans-334" data-name="DejaVuSans-33" d="M235.55,95.42c.38.08.67.25.88.5.21.25.32.57.32.94,0,.57-.2,1.02-.59,1.34-.4.31-.96.47-1.69.47-.24,0-.5-.02-.75-.07-.26-.05-.53-.12-.8-.22v-.76c.22.13.46.22.72.29.26.06.53.1.82.1.49,0,.87-.1,1.13-.29s.39-.48.39-.85c0-.34-.12-.61-.36-.81-.24-.19-.58-.29-1-.29h-.68v-.65h.71c.39,0,.68-.08.89-.23s.31-.38.31-.67-.11-.53-.32-.69c-.21-.16-.52-.24-.91-.24-.22,0-.45.02-.7.07-.25.05-.52.12-.82.22v-.7c.3-.08.58-.15.84-.19s.51-.06.74-.06c.6,0,1.07.14,1.42.41.35.27.52.64.52,1.1,0,.32-.09.6-.28.82s-.45.38-.79.46Z"/>
          <path id="DejaVuSans-353" data-name="DejaVuSans-35" d="M238.25,92.73h3.1v.66h-2.37v1.43c.11-.04.23-.07.34-.09.11-.02.23-.03.34-.03.65,0,1.17.18,1.55.53.38.36.57.84.57,1.45s-.2,1.12-.59,1.46c-.39.35-.94.52-1.65.52-.24,0-.49-.02-.75-.06-.25-.04-.52-.1-.79-.19v-.79c.23.13.48.22.73.28s.51.09.79.09c.45,0,.81-.12,1.07-.35.26-.24.39-.56.39-.96s-.13-.73-.39-.96c-.26-.24-.62-.36-1.07-.36-.21,0-.42.02-.63.07-.21.05-.42.12-.64.22v-2.93Z"/>
        </g>
      </g>
      <g id="text_24">
        <g>
          <path id="DejaVuSans-3014" data-name="DejaVuSans-30" d="M91.68,201.31c-.41,0-.71.2-.92.6-.2.4-.31,1-.31,1.8s.1,1.4.31,1.8c.2.4.51.6.92.6s.72-.2.92-.6c.2-.4.31-1,.31-1.8s-.1-1.4-.31-1.8c-.2-.4-.51-.6-.92-.6ZM91.68,200.69c.65,0,1.15.26,1.5.78.34.52.52,1.27.52,2.25s-.17,1.73-.52,2.25c-.34.52-.84.77-1.5.77s-1.15-.26-1.5-.77c-.34-.52-.52-1.27-.52-2.25s.17-1.73.52-2.25c.34-.52.84-.78,1.5-.78Z"/>
          <path id="DejaVuSans-2e9" data-name="DejaVuSans-2e" d="M95.08,205.63h.82v.99h-.82v-.99Z"/>
          <path id="DejaVuSans-3015" data-name="DejaVuSans-30" d="M99.31,201.31c-.41,0-.71.2-.92.6-.2.4-.31,1-.31,1.8s.1,1.4.31,1.8c.2.4.51.6.92.6s.72-.2.92-.6c.2-.4.31-1,.31-1.8s-.1-1.4-.31-1.8c-.2-.4-.51-.6-.92-.6ZM99.31,200.69c.65,0,1.15.26,1.5.78.34.52.52,1.27.52,2.25s-.17,1.73-.52,2.25c-.34.52-.84.77-1.5.77s-1.15-.26-1.5-.77c-.34-.52-.52-1.27-.52-2.25s.17-1.73.52-2.25c.34-.52.84-.78,1.5-.78Z"/>
          <path id="DejaVuSans-371" data-name="DejaVuSans-37" d="M102.51,200.79h3.75v.34l-2.12,5.5h-.82l1.99-5.17h-2.8v-.66Z"/>
          <path id="DejaVuSans-397" data-name="DejaVuSans-39" d="M107.83,206.5v-.72c.2.09.4.17.6.21.2.05.4.07.6.07.52,0,.92-.17,1.19-.52.27-.35.43-.88.47-1.6-.15.22-.34.4-.57.52-.23.12-.49.18-.77.18-.58,0-1.04-.18-1.38-.53-.34-.35-.51-.84-.51-1.45s.18-1.08.53-1.44c.35-.36.83-.54,1.41-.54.67,0,1.19.26,1.54.78.36.52.53,1.27.53,2.25,0,.92-.22,1.65-.65,2.2-.44.55-1.02.82-1.76.82-.2,0-.4-.02-.6-.06-.2-.04-.41-.1-.63-.18ZM109.4,204.03c.35,0,.63-.12.84-.36.21-.24.31-.57.31-1s-.1-.75-.31-.99c-.21-.24-.49-.36-.84-.36s-.63.12-.84.36c-.21.24-.31.57-.31.99s.1.75.31,1c.21.24.49.36.84.36Z"/>
        </g>
      </g>
      <g id="text_25">
        <g>
          <path id="DejaVuSans-3016" data-name="DejaVuSans-30" d="M121.73,232.32c-.41,0-.71.2-.92.6-.2.4-.31,1-.31,1.8s.1,1.4.31,1.8c.2.4.51.6.92.6s.72-.2.92-.6c.2-.4.31-1,.31-1.8s-.1-1.4-.31-1.8c-.2-.4-.51-.6-.92-.6ZM121.73,231.69c.65,0,1.15.26,1.5.78.34.52.52,1.27.52,2.25s-.17,1.73-.52,2.25c-.34.52-.84.77-1.5.77s-1.15-.26-1.5-.77c-.34-.52-.52-1.27-.52-2.25s.17-1.73.52-2.25c.34-.52.84-.78,1.5-.78Z"/>
          <path id="DejaVuSans-2e10" data-name="DejaVuSans-2e" d="M125.14,236.64h.82v.99h-.82v-.99Z"/>
          <path id="DejaVuSans-398" data-name="DejaVuSans-39" d="M127.7,237.51v-.72c.2.09.4.17.6.21.2.05.4.07.6.07.52,0,.92-.17,1.19-.52.27-.35.43-.88.47-1.6-.15.22-.34.4-.57.52-.23.12-.49.18-.77.18-.58,0-1.04-.18-1.38-.53-.34-.35-.51-.84-.51-1.45s.18-1.08.53-1.44c.35-.36.83-.54,1.41-.54.67,0,1.19.26,1.54.78.36.52.53,1.27.53,2.25,0,.92-.22,1.65-.65,2.2-.44.55-1.02.82-1.76.82-.2,0-.4-.02-.6-.06-.2-.04-.41-.1-.63-.18ZM129.27,235.04c.35,0,.63-.12.84-.36.21-.24.31-.57.31-1s-.1-.75-.31-.99c-.21-.24-.49-.36-.84-.36s-.63.12-.84.36c-.21.24-.31.57-.31.99s.1.75.31,1c.21.24.49.36.84.36Z"/>
          <path id="DejaVuSans-341" data-name="DejaVuSans-34" d="M134.94,232.48l-1.99,3.11h1.99v-3.11ZM134.73,231.8h.99v3.8h.83v.66h-.83v1.37h-.78v-1.37h-2.63v-.76l2.42-3.7Z"/>
          <path id="DejaVuSans-31" d="M138,236.97h1.29v-4.45l-1.4.28v-.72l1.39-.28h.79v5.17h1.29v.66h-3.36v-.66Z"/>
        </g>
      </g>
      <g id="text_26">
        <g>
          <path id="DejaVuSans-3017" data-name="DejaVuSans-30" d="M73.61,160.52c-.41,0-.71.2-.92.6-.2.4-.31,1-.31,1.8s.1,1.4.31,1.8c.2.4.51.6.92.6s.72-.2.92-.6c.2-.4.31-1,.31-1.8s-.1-1.4-.31-1.8c-.2-.4-.51-.6-.92-.6ZM73.61,159.89c.65,0,1.15.26,1.5.78.34.52.52,1.27.52,2.25s-.17,1.73-.52,2.25c-.34.52-.84.77-1.5.77s-1.15-.26-1.5-.77c-.34-.52-.52-1.27-.52-2.25s.17-1.73.52-2.25c.34-.52.84-.78,1.5-.78Z"/>
          <path id="DejaVuSans-2e11" data-name="DejaVuSans-2e" d="M77.02,164.84h.82v.99h-.82v-.99Z"/>
          <path id="DejaVuSans-399" data-name="DejaVuSans-39" d="M79.58,165.71v-.72c.2.09.4.17.6.21.2.05.4.07.6.07.52,0,.92-.17,1.19-.52.27-.35.43-.88.47-1.6-.15.22-.34.4-.57.52-.23.12-.49.18-.77.18-.58,0-1.04-.18-1.38-.53-.34-.35-.51-.84-.51-1.45s.18-1.08.53-1.44c.35-.36.83-.54,1.41-.54.67,0,1.19.26,1.54.78.36.52.53,1.27.53,2.25,0,.92-.22,1.65-.65,2.2-.44.55-1.02.82-1.76.82-.2,0-.4-.02-.6-.06-.2-.04-.41-.1-.63-.18ZM81.15,163.23c.35,0,.63-.12.84-.36.21-.24.31-.57.31-1s-.1-.75-.31-.99c-.21-.24-.49-.36-.84-.36s-.63.12-.84.36c-.21.24-.31.57-.31.99s.1.75.31,1c.21.24.49.36.84.36Z"/>
          <path id="DejaVuSans-335" data-name="DejaVuSans-33" d="M87.04,162.68c.38.08.67.25.88.5.21.25.32.57.32.94,0,.57-.2,1.02-.59,1.34-.4.31-.96.47-1.69.47-.24,0-.5-.02-.75-.07-.26-.05-.53-.12-.8-.22v-.76c.22.13.46.22.72.29.26.06.53.1.82.1.49,0,.87-.1,1.13-.29s.39-.48.39-.85c0-.34-.12-.61-.36-.81-.24-.19-.58-.29-1-.29h-.68v-.65h.71c.39,0,.68-.08.89-.23s.31-.38.31-.67-.11-.53-.32-.69c-.21-.16-.52-.24-.91-.24-.22,0-.45.02-.7.07-.25.05-.52.12-.82.22v-.7c.3-.08.58-.15.84-.19s.51-.06.74-.06c.6,0,1.07.14,1.42.41.35.27.52.64.52,1.1,0,.32-.09.6-.28.82s-.45.38-.79.46Z"/>
          <path id="DejaVuSans-361" data-name="DejaVuSans-36" d="M91.53,162.6c-.35,0-.63.12-.84.36-.21.24-.31.57-.31.99s.1.75.31.99c.21.24.49.36.84.36s.63-.12.84-.36c.21-.24.31-.58.31-.99s-.1-.75-.31-.99c-.21-.24-.49-.36-.84-.36ZM93.09,160.12v.72c-.2-.09-.4-.16-.6-.21-.2-.05-.4-.07-.6-.07-.52,0-.92.18-1.19.53-.27.35-.43.88-.47,1.59.15-.23.35-.4.58-.52.23-.12.49-.18.77-.18.59,0,1.05.18,1.39.53.34.35.51.84.51,1.45s-.18,1.08-.53,1.44c-.35.36-.83.54-1.41.54-.67,0-1.19-.26-1.55-.77-.36-.52-.53-1.27-.53-2.25,0-.92.22-1.66.66-2.2.44-.55,1.02-.82,1.76-.82.2,0,.4.02.6.06s.41.1.63.17Z"/>
        </g>
      </g>
      <g id="text_27">
        <g>
          <path id="DejaVuSans-3018" data-name="DejaVuSans-30" d="M45,128.36c-.41,0-.71.2-.92.6-.2.4-.31,1-.31,1.8s.1,1.4.31,1.8c.2.4.51.6.92.6s.72-.2.92-.6c.2-.4.31-1,.31-1.8s-.1-1.4-.31-1.8c-.2-.4-.51-.6-.92-.6ZM45,127.74c.65,0,1.15.26,1.5.78.34.52.52,1.27.52,2.25s-.17,1.73-.52,2.25c-.34.52-.84.77-1.5.77s-1.15-.26-1.5-.77c-.34-.52-.52-1.27-.52-2.25s.17-1.73.52-2.25c.34-.52.84-.78,1.5-.78Z"/>
          <path id="DejaVuSans-2e12" data-name="DejaVuSans-2e" d="M48.4,132.68h.82v.99h-.82v-.99Z"/>
          <path id="DejaVuSans-3910" data-name="DejaVuSans-39" d="M50.97,133.55v-.72c.2.09.4.17.6.21.2.05.4.07.6.07.52,0,.92-.17,1.19-.52.27-.35.43-.88.47-1.6-.15.22-.34.4-.57.52-.23.12-.49.18-.77.18-.58,0-1.04-.18-1.38-.53-.34-.35-.51-.84-.51-1.45s.18-1.08.53-1.44c.35-.36.83-.54,1.41-.54.67,0,1.19.26,1.54.78.36.52.53,1.27.53,2.25,0,.92-.22,1.65-.65,2.2-.44.55-1.02.82-1.76.82-.2,0-.4-.02-.6-.06-.2-.04-.41-.1-.63-.18ZM52.54,131.08c.35,0,.63-.12.84-.36.21-.24.31-.57.31-1s-.1-.75-.31-.99c-.21-.24-.49-.36-.84-.36s-.63.12-.84.36c-.21.24-.31.57-.31.99s.1.75.31,1c.21.24.49.36.84.36Z"/>
          <path id="DejaVuSans-336" data-name="DejaVuSans-33" d="M58.43,130.53c.38.08.67.25.88.5.21.25.32.57.32.94,0,.57-.2,1.02-.59,1.34-.4.31-.96.47-1.69.47-.24,0-.5-.02-.75-.07-.26-.05-.53-.12-.8-.22v-.76c.22.13.46.22.72.29.26.06.53.1.82.1.49,0,.87-.1,1.13-.29s.39-.48.39-.85c0-.34-.12-.61-.36-.81-.24-.19-.58-.29-1-.29h-.68v-.65h.71c.39,0,.68-.08.89-.23s.31-.38.31-.67-.11-.53-.32-.69c-.21-.16-.52-.24-.91-.24-.22,0-.45.02-.7.07-.25.05-.52.12-.82.22v-.7c.3-.08.58-.15.84-.19s.51-.06.74-.06c.6,0,1.07.14,1.42.41.35.27.52.64.52,1.1,0,.32-.09.6-.28.82s-.45.38-.79.46Z"/>
          <path id="DejaVuSans-354" data-name="DejaVuSans-35" d="M61.14,127.84h3.1v.66h-2.37v1.43c.11-.04.23-.07.34-.09.11-.02.23-.03.34-.03.65,0,1.17.18,1.55.53.38.36.57.84.57,1.45s-.2,1.12-.59,1.46c-.39.35-.94.52-1.65.52-.24,0-.49-.02-.75-.06-.25-.04-.52-.1-.79-.19v-.79c.23.13.48.22.73.28s.51.09.79.09c.45,0,.81-.12,1.07-.35.26-.24.39-.56.39-.96s-.13-.73-.39-.96c-.26-.24-.62-.36-1.07-.36-.21,0-.42.02-.63.07-.21.05-.42.12-.64.22v-2.93Z"/>
        </g>
      </g>
      <g id="text_28">
        <g>
          <path id="DejaVuSans-3019" data-name="DejaVuSans-30" d="M53.28,204.51c-.41,0-.71.2-.92.6-.2.4-.31,1-.31,1.8s.1,1.4.31,1.8c.2.4.51.6.92.6s.72-.2.92-.6c.2-.4.31-1,.31-1.8s-.1-1.4-.31-1.8c-.2-.4-.51-.6-.92-.6ZM53.28,203.88c.65,0,1.15.26,1.5.78.34.52.52,1.27.52,2.25s-.17,1.73-.52,2.25c-.34.52-.84.77-1.5.77s-1.15-.26-1.5-.77c-.34-.52-.52-1.27-.52-2.25s.17-1.73.52-2.25c.34-.52.84-.78,1.5-.78Z"/>
          <path id="DejaVuSans-2e13" data-name="DejaVuSans-2e" d="M56.68,208.83h.82v.99h-.82v-.99Z"/>
          <path id="DejaVuSans-3911" data-name="DejaVuSans-39" d="M59.25,209.7v-.72c.2.09.4.17.6.21.2.05.4.07.6.07.52,0,.92-.17,1.19-.52.27-.35.43-.88.47-1.6-.15.22-.34.4-.57.52-.23.12-.49.18-.77.18-.58,0-1.04-.18-1.38-.53-.34-.35-.51-.84-.51-1.45s.18-1.08.53-1.44c.35-.36.83-.54,1.41-.54.67,0,1.19.26,1.54.78.36.52.53,1.27.53,2.25,0,.92-.22,1.65-.65,2.2-.44.55-1.02.82-1.76.82-.2,0-.4-.02-.6-.06-.2-.04-.41-.1-.63-.18ZM60.82,207.23c.35,0,.63-.12.84-.36.21-.24.31-.57.31-1s-.1-.75-.31-.99c-.21-.24-.49-.36-.84-.36s-.63.12-.84.36c-.21.24-.31.57-.31.99s.1.75.31,1c.21.24.49.36.84.36Z"/>
          <path id="DejaVuSans-342" data-name="DejaVuSans-34" d="M66.49,204.67l-1.99,3.11h1.99v-3.11ZM66.28,203.99h.99v3.8h.83v.66h-.83v1.37h-.78v-1.37h-2.63v-.76l2.42-3.7Z"/>
          <path id="DejaVuSans-355" data-name="DejaVuSans-35" d="M69.42,203.99h3.1v.66h-2.37v1.43c.11-.04.23-.07.34-.09.11-.02.23-.03.34-.03.65,0,1.17.18,1.55.53.38.36.57.84.57,1.45s-.2,1.12-.59,1.46c-.39.35-.94.52-1.65.52-.24,0-.49-.02-.75-.06-.25-.04-.52-.1-.79-.19v-.79c.23.13.48.22.73.28s.51.09.79.09c.45,0,.81-.12,1.07-.35.26-.24.39-.56.39-.96s-.13-.73-.39-.96c-.26-.24-.62-.36-1.07-.36-.21,0-.42.02-.63.07-.21.05-.42.12-.64.22v-2.93Z"/>
        </g>
      </g>
      <g id="text_29">
        <g>
          <path id="DejaVuSans-47" d="M97.86,20.65v-3.13h-2.58v-1.3h4.14v5.01c-.61.43-1.28.76-2.01.98-.73.22-1.52.33-2.35.33-1.82,0-3.25-.53-4.28-1.6-1.03-1.07-1.54-2.55-1.54-4.45s.51-3.39,1.54-4.46c1.03-1.06,2.46-1.6,4.28-1.6.76,0,1.48.09,2.17.28.68.19,1.32.46,1.89.83v1.68c-.58-.49-1.2-.87-1.86-1.12s-1.35-.37-2.07-.37c-1.43,0-2.5.4-3.22,1.19-.71.8-1.07,1.98-1.07,3.56s.36,2.76,1.07,3.55c.72.8,1.79,1.19,3.22,1.19.56,0,1.05-.05,1.49-.14.44-.1.83-.25,1.18-.45Z"/>
          <path id="DejaVuSans-4e" d="M102.3,10.65h2.12l5.17,9.76v-9.76h1.53v11.66h-2.12l-5.17-9.76v9.76h-1.53v-11.66Z"/>
          <path id="DejaVuSans-4e1" data-name="DejaVuSans-4e" d="M114.27,10.65h2.12l5.17,9.76v-9.76h1.53v11.66h-2.12l-5.17-9.76v9.76h-1.53v-11.66Z"/>
          <path id="DejaVuSans-45" d="M126.24,10.65h7.37v1.33h-5.8v3.45h5.55v1.33h-5.55v4.23h5.94v1.33h-7.51v-11.66Z"/>
          <path id="DejaVuSans-78" d="M143.56,13.57l-3.16,4.26,3.33,4.49h-1.69l-2.55-3.44-2.54,3.44h-1.7l3.4-4.58-3.11-4.17h1.69l2.32,3.12,2.32-3.12h1.7Z"/>
          <path id="DejaVuSans-70" d="M147.15,21.01v4.64h-1.44v-12.08h1.44v1.33c.3-.52.68-.91,1.14-1.16.46-.25,1.01-.38,1.65-.38,1.06,0,1.93.42,2.59,1.26.66.84,1,1.95,1,3.33s-.33,2.48-1,3.33c-.66.84-1.53,1.26-2.59,1.26-.64,0-1.19-.13-1.65-.38-.46-.25-.84-.64-1.14-1.16ZM152.04,17.95c0-1.06-.22-1.89-.65-2.49s-1.03-.9-1.79-.9-1.36.3-1.79.9-.65,1.43-.65,2.49.22,1.89.65,2.49c.43.6,1.03.9,1.79.9s1.36-.3,1.79-.9c.43-.6.65-1.43.65-2.49Z"/>
          <path id="DejaVuSans-6c1" data-name="DejaVuSans-6c" d="M155.91,10.16h1.44v12.16h-1.44v-12.16Z"/>
          <path id="DejaVuSans-61" d="M164.33,17.92c-1.16,0-1.97.13-2.41.4s-.67.72-.67,1.36c0,.51.17.91.5,1.21.34.3.79.45,1.37.45.8,0,1.44-.28,1.92-.85s.72-1.32.72-2.25v-.32h-1.43ZM167.2,17.33v4.99h-1.44v-1.33c-.33.53-.74.92-1.23,1.17-.49.25-1.09.38-1.8.38-.89,0-1.61-.25-2.14-.75-.53-.5-.79-1.18-.79-2.02,0-.98.33-1.72.99-2.22.66-.5,1.64-.75,2.95-.75h2.02v-.14c0-.66-.22-1.17-.65-1.53s-1.05-.54-1.83-.54c-.5,0-.99.06-1.46.18-.47.12-.93.3-1.36.54v-1.33c.52-.2,1.03-.35,1.53-.45.49-.1.98-.15,1.44-.15,1.27,0,2.21.33,2.84.98.62.65.94,1.65.94,2.98Z"/>
          <path id="DejaVuSans-69" d="M170.16,13.57h1.44v8.75h-1.44v-8.75ZM170.16,10.16h1.44v1.82h-1.44v-1.82Z"/>
          <path id="DejaVuSans-6e" d="M181.88,17.04v5.28h-1.44v-5.23c0-.83-.16-1.45-.48-1.86-.32-.41-.81-.62-1.45-.62-.78,0-1.39.25-1.84.74-.45.49-.67,1.17-.67,2.02v4.94h-1.44v-8.75h1.44v1.36c.34-.53.75-.92,1.21-1.18.47-.26,1-.39,1.61-.39,1,0,1.76.31,2.28.93.52.62.77,1.54.77,2.74Z"/>
          <path id="DejaVuSans-65" d="M192.23,17.58v.7h-6.61c.06.99.36,1.74.89,2.26.53.52,1.28.78,2.23.78.55,0,1.09-.07,1.6-.2s1.03-.34,1.54-.61v1.36c-.52.22-1.05.38-1.59.5s-1.09.17-1.65.17c-1.4,0-2.5-.41-3.32-1.22-.81-.81-1.22-1.91-1.22-3.3s.39-2.57,1.16-3.41c.77-.84,1.82-1.26,3.13-1.26,1.18,0,2.11.38,2.79,1.14.68.76,1.03,1.79,1.03,3.09ZM190.79,17.16c0-.78-.23-1.41-.66-1.88-.43-.47-1-.7-1.71-.7-.8,0-1.44.23-1.92.68s-.76,1.09-.83,1.91h5.12Z"/>
          <path id="DejaVuSans-72" d="M199.66,14.91c-.16-.09-.34-.16-.53-.2-.19-.04-.4-.07-.63-.07-.81,0-1.44.26-1.87.79s-.65,1.29-.65,2.28v4.61h-1.44v-8.75h1.44v1.36c.3-.53.7-.93,1.18-1.18.48-.26,1.07-.39,1.77-.39.1,0,.21,0,.33.02.12.01.25.03.4.06v1.47Z"/>
        </g>
      </g>
    </g>
    <g id="axes_2">
      <g id="LineCollection_3">
        <g class="st52">
          <path class="st39" d="M166.34,410.04l.44,53.58"/>
        </g>
        <g class="st53">
          <path class="st39" d="M166.34,410.04l-47.54-19.74"/>
        </g>
        <g class="st16">
          <path class="st39" d="M166.34,410.04l40.76-29.28"/>
        </g>
        <g class="st48">
          <path class="st39" d="M166.78,463.62l-41.57,29.75"/>
        </g>
        <g class="st82">
          <path class="st39" d="M166.78,463.62l37.94,30.49"/>
        </g>
        <g class="st65">
          <path class="st39" d="M118.8,390.31l-41.46,29.91"/>
        </g>
        <g class="st1">
          <path class="st39" d="M118.8,390.31l-13.47-48.07"/>
        </g>
        <g class="st58">
          <path class="st39" d="M207.1,380.76l12.34-47.78"/>
        </g>
        <g class="st76">
          <path class="st39" d="M207.1,380.76l46.98,5.16"/>
        </g>
        <g class="st24">
          <path class="st39" d="M125.21,493.37l-45.91-20.79"/>
        </g>
        <g class="st74">
          <path class="st39" d="M125.21,493.37l2.46,49.77"/>
        </g>
        <g class="st51">
          <path class="st39" d="M77.34,420.21l1.96,52.36"/>
        </g>
        <g class="st37">
          <path class="st39" d="M77.34,420.21l-43.42-20.34"/>
        </g>
        <g class="st84">
          <path class="st39" d="M79.3,472.58l-38.98,28"/>
        </g>
      </g>
      <g id="LineCollection_4">
        <g class="st30">
          <path class="st41" d="M79.3,472.58l-38.98,28"/>
        </g>
      </g>
      <g id="PathCollection_2">
        <g class="st35">
          <path id="C1_0_e47aed4b53" class="st40" d="M166.34,422.79c3.38,0,6.62-1.34,9.01-3.73,2.39-2.39,3.73-5.63,3.73-9.01s-1.34-6.62-3.73-9.01c-2.39-2.39-5.63-3.73-9.01-3.73s-6.62,1.34-9.01,3.73c-2.39,2.39-3.73,5.63-3.73,9.01s1.34,6.62,3.73,9.01c2.39,2.39,5.63,3.73,9.01,3.73Z"/>
        </g>
        <g class="st14">
          <path id="C1_0_e47aed4b531" data-name="C1_0_e47aed4b53" class="st40" d="M166.78,476.37c3.38,0,6.62-1.34,9.01-3.73,2.39-2.39,3.73-5.63,3.73-9.01s-1.34-6.62-3.73-9.01c-2.39-2.39-5.63-3.73-9.01-3.73s-6.62,1.34-9.01,3.73c-2.39,2.39-3.73,5.63-3.73,9.01s1.34,6.62,3.73,9.01c2.39,2.39,5.63,3.73,9.01,3.73Z"/>
        </g>
        <g class="st95">
          <path id="C1_0_e47aed4b532" data-name="C1_0_e47aed4b53" class="st40" d="M118.8,403.05c3.38,0,6.62-1.34,9.01-3.73,2.39-2.39,3.73-5.63,3.73-9.01s-1.34-6.62-3.73-9.01c-2.39-2.39-5.63-3.73-9.01-3.73s-6.62,1.34-9.01,3.73c-2.39,2.39-3.73,5.63-3.73,9.01s1.34,6.62,3.73,9.01c2.39,2.39,5.63,3.73,9.01,3.73Z"/>
        </g>
        <g class="st87">
          <path id="C1_0_e47aed4b533" data-name="C1_0_e47aed4b53" class="st40" d="M207.1,393.51c3.38,0,6.62-1.34,9.01-3.73,2.39-2.39,3.73-5.63,3.73-9.01s-1.34-6.62-3.73-9.01c-2.39-2.39-5.63-3.73-9.01-3.73s-6.62,1.34-9.01,3.73c-2.39,2.39-3.73,5.63-3.73,9.01s1.34,6.62,3.73,9.01c2.39,2.39,5.63,3.73,9.01,3.73Z"/>
        </g>
        <g class="st32">
          <path id="C1_0_e47aed4b534" data-name="C1_0_e47aed4b53" class="st40" d="M125.21,506.11c3.38,0,6.62-1.34,9.01-3.73,2.39-2.39,3.73-5.63,3.73-9.01s-1.34-6.62-3.73-9.01c-2.39-2.39-5.63-3.73-9.01-3.73s-6.62,1.34-9.01,3.73c-2.39,2.39-3.73,5.63-3.73,9.01s1.34,6.62,3.73,9.01c2.39,2.39,5.63,3.73,9.01,3.73Z"/>
        </g>
        <g class="st93">
          <path id="C1_0_e47aed4b535" data-name="C1_0_e47aed4b53" class="st40" d="M77.34,432.96c3.38,0,6.62-1.34,9.01-3.73,2.39-2.39,3.73-5.63,3.73-9.01s-1.34-6.62-3.73-9.01c-2.39-2.39-5.63-3.73-9.01-3.73s-6.62,1.34-9.01,3.73c-2.39,2.39-3.73,5.63-3.73,9.01s1.34,6.62,3.73,9.01c2.39,2.39,5.63,3.73,9.01,3.73Z"/>
        </g>
        <g class="st25">
          <path id="C1_0_e47aed4b536" data-name="C1_0_e47aed4b53" class="st43" d="M219.44,345.73c3.38,0,6.62-1.34,9.01-3.73,2.39-2.39,3.73-5.63,3.73-9.01s-1.34-6.62-3.73-9.01c-2.39-2.39-5.63-3.73-9.01-3.73s-6.62,1.34-9.01,3.73c-2.39,2.39-3.73,5.63-3.73,9.01s1.34,6.62,3.73,9.01c2.39,2.39,5.63,3.73,9.01,3.73Z"/>
        </g>
        <g class="st60">
          <path id="C1_0_e47aed4b537" data-name="C1_0_e47aed4b53" class="st40" d="M79.3,485.32c3.38,0,6.62-1.34,9.01-3.73,2.39-2.39,3.73-5.63,3.73-9.01s-1.34-6.62-3.73-9.01c-2.39-2.39-5.63-3.73-9.01-3.73s-6.62,1.34-9.01,3.73c-2.39,2.39-3.73,5.63-3.73,9.01s1.34,6.62,3.73,9.01c2.39,2.39,5.63,3.73,9.01,3.73Z"/>
        </g>
        <g class="st91">
          <path id="C1_0_e47aed4b538" data-name="C1_0_e47aed4b53" class="st38" d="M40.32,513.33c3.38,0,6.62-1.34,9.01-3.73,2.39-2.39,3.73-5.63,3.73-9.01s-1.34-6.62-3.73-9.01c-2.39-2.39-5.63-3.73-9.01-3.73s-6.62,1.34-9.01,3.73c-2.39,2.39-3.73,5.63-3.73,9.01s1.34,6.62,3.73,9.01c2.39,2.39,5.63,3.73,9.01,3.73Z"/>
        </g>
        <g class="st96">
          <path id="C1_0_e47aed4b539" data-name="C1_0_e47aed4b53" class="st42" d="M204.72,506.86c3.38,0,6.62-1.34,9.01-3.73,2.39-2.39,3.73-5.63,3.73-9.01s-1.34-6.62-3.73-9.01c-2.39-2.39-5.63-3.73-9.01-3.73s-6.62,1.34-9.01,3.73c-2.39,2.39-3.73,5.63-3.73,9.01s1.34,6.62,3.73,9.01c2.39,2.39,5.63,3.73,9.01,3.73Z"/>
        </g>
        <g class="st27">
          <path id="C1_0_e47aed4b5310" data-name="C1_0_e47aed4b53" class="st42" d="M105.33,354.98c3.38,0,6.62-1.34,9.01-3.73,2.39-2.39,3.73-5.63,3.73-9.01s-1.34-6.62-3.73-9.01c-2.39-2.39-5.63-3.73-9.01-3.73s-6.62,1.34-9.01,3.73c-2.39,2.39-3.73,5.63-3.73,9.01s1.34,6.62,3.73,9.01c2.39,2.39,5.63,3.73,9.01,3.73Z"/>
        </g>
        <g class="st18">
          <path id="C1_0_e47aed4b5311" data-name="C1_0_e47aed4b53" class="st42" d="M254.08,398.67c3.38,0,6.62-1.34,9.01-3.73,2.39-2.39,3.73-5.63,3.73-9.01s-1.34-6.62-3.73-9.01c-2.39-2.39-5.63-3.73-9.01-3.73s-6.62,1.34-9.01,3.73c-2.39,2.39-3.73,5.63-3.73,9.01s1.34,6.62,3.73,9.01c2.39,2.39,5.63,3.73,9.01,3.73Z"/>
        </g>
        <g class="st71">
          <path id="C1_0_e47aed4b5312" data-name="C1_0_e47aed4b53" class="st42" d="M127.67,555.88c3.38,0,6.62-1.34,9.01-3.73,2.39-2.39,3.73-5.63,3.73-9.01s-1.34-6.62-3.73-9.01c-2.39-2.39-5.63-3.73-9.01-3.73s-6.62,1.34-9.01,3.73c-2.39,2.39-3.73,5.63-3.73,9.01s1.34,6.62,3.73,9.01c2.39,2.39,5.63,3.73,9.01,3.73Z"/>
        </g>
        <g class="st75">
          <path id="C1_0_e47aed4b5313" data-name="C1_0_e47aed4b53" class="st42" d="M33.92,412.62c3.38,0,6.62-1.34,9.01-3.73,2.39-2.39,3.73-5.63,3.73-9.01s-1.34-6.62-3.73-9.01c-2.39-2.39-5.63-3.73-9.01-3.73s-6.62,1.34-9.01,3.73c-2.39,2.39-3.73,5.63-3.73,9.01s1.34,6.62,3.73,9.01c2.39,2.39,5.63,3.73,9.01,3.73Z"/>
        </g>
      </g>
      <g id="text_30">
        <g class="st61">
          <path id="DejaVuSans-438" data-name="DejaVuSans-43" d="M170.47,404.49v1.45c-.47-.43-.96-.76-1.49-.97-.53-.21-1.09-.32-1.68-.32-1.17,0-2.06.36-2.68,1.07s-.93,1.74-.93,3.09.31,2.37.93,3.09,1.51,1.07,2.68,1.07c.59,0,1.15-.11,1.68-.32s1.02-.54,1.49-.97v1.44c-.48.33-.99.57-1.54.74-.54.16-1.11.25-1.71.25-1.55,0-2.76-.47-3.65-1.42-.89-.95-1.33-2.24-1.33-3.87s.44-2.93,1.33-3.88c.89-.95,2.11-1.42,3.65-1.42.61,0,1.18.08,1.72.24.54.16,1.05.4,1.52.73Z"/>
        </g>
      </g>
      <g id="text_31">
        <g class="st11">
          <path id="DejaVuSans-439" data-name="DejaVuSans-43" d="M170.91,458.06v1.45c-.47-.43-.96-.76-1.49-.97-.53-.21-1.09-.32-1.68-.32-1.17,0-2.06.36-2.68,1.07s-.93,1.74-.93,3.09.31,2.37.93,3.09,1.51,1.07,2.68,1.07c.59,0,1.15-.11,1.68-.32s1.02-.54,1.49-.97v1.44c-.48.33-.99.57-1.54.74-.54.16-1.11.25-1.71.25-1.55,0-2.76-.47-3.65-1.42-.89-.95-1.33-2.24-1.33-3.87s.44-2.93,1.33-3.88c.89-.95,2.11-1.42,3.65-1.42.61,0,1.18.08,1.72.24.54.16,1.05.4,1.52.73Z"/>
        </g>
      </g>
      <g id="text_32">
        <g class="st0">
          <path id="DejaVuSans-4310" data-name="DejaVuSans-43" d="M122.93,384.75v1.45c-.47-.43-.96-.76-1.49-.97-.53-.21-1.09-.32-1.68-.32-1.17,0-2.06.36-2.68,1.07s-.93,1.74-.93,3.09.31,2.37.93,3.09,1.51,1.07,2.68,1.07c.59,0,1.15-.11,1.68-.32s1.02-.54,1.49-.97v1.44c-.48.33-.99.57-1.54.74-.54.16-1.11.25-1.71.25-1.55,0-2.76-.47-3.65-1.42-.89-.95-1.33-2.24-1.33-3.87s.44-2.93,1.33-3.88c.89-.95,2.11-1.42,3.65-1.42.61,0,1.18.08,1.72.24.54.16,1.05.4,1.52.73Z"/>
        </g>
      </g>
      <g id="text_33">
        <g class="st68">
          <path id="DejaVuSans-4311" data-name="DejaVuSans-43" d="M211.23,375.21v1.45c-.47-.43-.96-.76-1.49-.97-.53-.21-1.09-.32-1.68-.32-1.17,0-2.06.36-2.68,1.07s-.93,1.74-.93,3.09.31,2.37.93,3.09,1.51,1.07,2.68,1.07c.59,0,1.15-.11,1.68-.32s1.02-.54,1.49-.97v1.44c-.48.33-.99.57-1.54.74-.54.16-1.11.25-1.71.25-1.55,0-2.76-.47-3.65-1.42-.89-.95-1.33-2.24-1.33-3.87s.44-2.93,1.33-3.88c.89-.95,2.11-1.42,3.65-1.42.61,0,1.18.08,1.72.24.54.16,1.05.4,1.52.73Z"/>
        </g>
      </g>
      <g id="text_34">
        <g class="st70">
          <path id="DejaVuSans-4312" data-name="DejaVuSans-43" d="M129.34,487.81v1.45c-.47-.43-.96-.76-1.49-.97-.53-.21-1.09-.32-1.68-.32-1.17,0-2.06.36-2.68,1.07s-.93,1.74-.93,3.09.31,2.37.93,3.09,1.51,1.07,2.68,1.07c.59,0,1.15-.11,1.68-.32s1.02-.54,1.49-.97v1.44c-.48.33-.99.57-1.54.74-.54.16-1.11.25-1.71.25-1.55,0-2.76-.47-3.65-1.42-.89-.95-1.33-2.24-1.33-3.87s.44-2.93,1.33-3.88c.89-.95,2.11-1.42,3.65-1.42.61,0,1.18.08,1.72.24.54.16,1.05.4,1.52.73Z"/>
        </g>
      </g>
      <g id="text_35">
        <g class="st10">
          <path id="DejaVuSans-4313" data-name="DejaVuSans-43" d="M81.47,414.66v1.45c-.47-.43-.96-.76-1.49-.97-.53-.21-1.09-.32-1.68-.32-1.17,0-2.06.36-2.68,1.07s-.93,1.74-.93,3.09.31,2.37.93,3.09,1.51,1.07,2.68,1.07c.59,0,1.15-.11,1.68-.32s1.02-.54,1.49-.97v1.44c-.48.33-.99.57-1.54.74-.54.16-1.11.25-1.71.25-1.55,0-2.76-.47-3.65-1.42-.89-.95-1.33-2.24-1.33-3.87s.44-2.93,1.33-3.88c.89-.95,2.11-1.42,3.65-1.42.61,0,1.18.08,1.72.24.54.16,1.05.4,1.52.73Z"/>
        </g>
      </g>
      <g id="text_36">
        <g class="st8">
          <path id="DejaVuSans-4f1" data-name="DejaVuSans-4f" d="M219.45,327.58c-1,0-1.8.37-2.39,1.12-.59.75-.88,1.77-.88,3.06s.29,2.3.88,3.05c.59.75,1.39,1.12,2.39,1.12s1.8-.37,2.38-1.12c.59-.75.88-1.76.88-3.05s-.29-2.31-.88-3.06c-.59-.75-1.38-1.12-2.38-1.12ZM219.45,326.46c1.43,0,2.57.48,3.43,1.44.86.96,1.29,2.25,1.29,3.86s-.43,2.89-1.29,3.85c-.86.96-2,1.44-3.43,1.44s-2.58-.48-3.44-1.44c-.86-.96-1.29-2.24-1.29-3.86s.43-2.9,1.29-3.86c.86-.96,2.01-1.44,3.44-1.44Z"/>
        </g>
      </g>
      <g id="text_37">
        <g class="st78">
          <path id="DejaVuSans-4314" data-name="DejaVuSans-43" d="M83.43,467.02v1.45c-.47-.43-.96-.76-1.49-.97-.53-.21-1.09-.32-1.68-.32-1.17,0-2.06.36-2.68,1.07s-.93,1.74-.93,3.09.31,2.37.93,3.09,1.51,1.07,2.68,1.07c.59,0,1.15-.11,1.68-.32s1.02-.54,1.49-.97v1.44c-.48.33-.99.57-1.54.74-.54.16-1.11.25-1.71.25-1.55,0-2.76-.47-3.65-1.42-.89-.95-1.33-2.24-1.33-3.87s.44-2.93,1.33-3.88c.89-.95,2.11-1.42,3.65-1.42.61,0,1.18.08,1.72.24.54.16,1.05.4,1.52.73Z"/>
        </g>
      </g>
      <g id="text_38">
        <g class="st23">
          <g>
            <path id="DejaVuSans-4315" data-name="DejaVuSans-43" d="M42.51,495.02v1.45c-.47-.43-.96-.76-1.49-.97-.53-.21-1.09-.32-1.68-.32-1.17,0-2.06.36-2.68,1.07s-.93,1.74-.93,3.09.31,2.37.93,3.09,1.51,1.07,2.68,1.07c.59,0,1.15-.11,1.68-.32s1.02-.54,1.49-.97v1.44c-.48.33-.99.57-1.54.74-.54.16-1.11.25-1.71.25-1.55,0-2.76-.47-3.65-1.42-.89-.95-1.33-2.24-1.33-3.87s.44-2.93,1.33-3.88c.89-.95,2.11-1.42,3.65-1.42.61,0,1.18.08,1.72.24.54.16,1.05.4,1.52.73Z"/>
            <path id="DejaVuSans-6c2" data-name="DejaVuSans-6c" d="M44.58,493.8h1.26v10.64h-1.26v-10.64Z"/>
          </g>
        </g>
      </g>
      <g id="text_39">
        <g class="st92">
          <path id="DejaVuSans-485" data-name="DejaVuSans-48" d="M200.83,487.77h1.38v4.18h5.02v-4.18h1.38v10.21h-1.38v-4.86h-5.02v4.86h-1.38v-10.21Z"/>
        </g>
      </g>
      <g id="text_40">
        <g class="st72">
          <path id="DejaVuSans-486" data-name="DejaVuSans-48" d="M101.44,335.89h1.38v4.18h5.02v-4.18h1.38v10.21h-1.38v-4.86h-5.02v4.86h-1.38v-10.21Z"/>
        </g>
      </g>
      <g id="text_41">
        <g class="st45">
          <path id="DejaVuSans-487" data-name="DejaVuSans-48" d="M250.19,379.58h1.38v4.18h5.02v-4.18h1.38v10.21h-1.38v-4.86h-5.02v4.86h-1.38v-10.21Z"/>
        </g>
      </g>
      <g id="text_42">
        <g class="st86">
          <path id="DejaVuSans-488" data-name="DejaVuSans-48" d="M123.78,536.79h1.38v4.18h5.02v-4.18h1.38v10.21h-1.38v-4.86h-5.02v4.86h-1.38v-10.21Z"/>
        </g>
      </g>
      <g id="text_43">
        <g class="st90">
          <path id="DejaVuSans-489" data-name="DejaVuSans-48" d="M30.03,393.53h1.38v4.18h5.02v-4.18h1.38v10.21h-1.38v-4.86h-5.02v4.86h-1.38v-10.21Z"/>
        </g>
      </g>
      <g id="text_44">
        <g>
          <path id="DejaVuSans-471" data-name="DejaVuSans-47" d="M101.29,303.26v-3.13h-2.58v-1.3h4.14v5.01c-.61.43-1.28.76-2.01.98-.73.22-1.52.33-2.35.33-1.82,0-3.25-.53-4.28-1.6-1.03-1.07-1.54-2.55-1.54-4.45s.51-3.39,1.54-4.46c1.03-1.06,2.46-1.6,4.28-1.6.76,0,1.48.09,2.17.28.68.19,1.32.46,1.89.83v1.68c-.58-.49-1.2-.87-1.86-1.12s-1.35-.37-2.07-.37c-1.43,0-2.5.4-3.22,1.19-.71.8-1.07,1.98-1.07,3.56s.36,2.76,1.07,3.55c.72.8,1.79,1.19,3.22,1.19.56,0,1.05-.05,1.49-.14.44-.1.83-.25,1.18-.45Z"/>
          <path id="DejaVuSans-721" data-name="DejaVuSans-72" d="M110.74,297.51c-.16-.09-.34-.16-.53-.2-.19-.04-.4-.07-.63-.07-.81,0-1.44.26-1.87.79s-.65,1.29-.65,2.28v4.61h-1.44v-8.75h1.44v1.36c.3-.53.7-.93,1.18-1.18.48-.26,1.07-.39,1.77-.39.1,0,.21,0,.33.02.12.01.25.03.4.06v1.47Z"/>
          <path id="DejaVuSans-6f" d="M115.28,297.18c-.77,0-1.38.3-1.83.9s-.67,1.43-.67,2.47.22,1.87.67,2.47c.45.6,1.06.9,1.83.9s1.37-.3,1.82-.9c.45-.6.67-1.43.67-2.47s-.22-1.86-.67-2.46c-.45-.61-1.05-.91-1.82-.91ZM115.28,295.96c1.25,0,2.23.41,2.94,1.22.71.81,1.07,1.94,1.07,3.37s-.36,2.56-1.07,3.37c-.71.81-1.69,1.22-2.94,1.22s-2.24-.41-2.95-1.22c-.71-.82-1.06-1.94-1.06-3.37s.35-2.56,1.06-3.37c.71-.81,1.69-1.22,2.95-1.22Z"/>
          <path id="DejaVuSans-75" d="M121.53,301.47v-5.3h1.44v5.24c0,.83.16,1.45.48,1.86.32.41.81.62,1.45.62.77,0,1.39-.25,1.84-.74.45-.49.68-1.17.68-2.02v-4.96h1.44v8.75h-1.44v-1.34c-.35.53-.75.93-1.21,1.18-.46.26-.99.39-1.6.39-1,0-1.77-.31-2.29-.94-.52-.62-.78-1.54-.78-2.74ZM125.15,295.96h0Z"/>
          <path id="DejaVuSans-6e1" data-name="DejaVuSans-6e" d="M139.09,299.64v5.28h-1.44v-5.23c0-.83-.16-1.45-.48-1.86-.32-.41-.81-.62-1.45-.62-.78,0-1.39.25-1.84.74-.45.49-.67,1.17-.67,2.02v4.94h-1.44v-8.75h1.44v1.36c.34-.53.75-.92,1.21-1.18.47-.26,1-.39,1.61-.39,1,0,1.76.31,2.28.93.52.62.77,1.54.77,2.74Z"/>
          <path id="DejaVuSans-64" d="M147.72,297.5v-4.73h1.44v12.16h-1.44v-1.31c-.3.52-.68.91-1.14,1.16-.46.25-1.01.38-1.66.38-1.06,0-1.92-.42-2.58-1.26-.66-.84-.99-1.95-.99-3.33s.33-2.48.99-3.33c.66-.84,1.53-1.26,2.58-1.26.65,0,1.2.13,1.66.38.46.25.84.64,1.14,1.16ZM142.82,300.55c0,1.06.22,1.89.65,2.49.43.6,1.03.9,1.79.9s1.36-.3,1.79-.9c.44-.6.66-1.43.66-2.49s-.22-1.89-.66-2.49c-.44-.6-1.03-.9-1.79-.9s-1.36.3-1.79.9-.65,1.43-.65,2.49Z"/>
          <path id="DejaVuSans-20" d="M150.61,304.92"/>
          <path id="DejaVuSans-54" d="M155.65,293.26h9.87v1.33h-4.14v10.33h-1.58v-10.33h-4.14v-1.33Z"/>
          <path id="DejaVuSans-722" data-name="DejaVuSans-72" d="M169.68,297.51c-.16-.09-.34-.16-.53-.2-.19-.04-.4-.07-.63-.07-.81,0-1.44.26-1.87.79s-.65,1.29-.65,2.28v4.61h-1.44v-8.75h1.44v1.36c.3-.53.7-.93,1.18-1.18.48-.26,1.07-.39,1.77-.39.1,0,.21,0,.33.02.12.01.25.03.4.06v1.47Z"/>
          <path id="DejaVuSans-751" data-name="DejaVuSans-75" d="M171.05,301.47v-5.3h1.44v5.24c0,.83.16,1.45.48,1.86.32.41.81.62,1.45.62.77,0,1.39-.25,1.84-.74.45-.49.68-1.17.68-2.02v-4.96h1.44v8.75h-1.44v-1.34c-.35.53-.75.93-1.21,1.18-.46.26-.99.39-1.6.39-1,0-1.77-.31-2.29-.94-.52-.62-.78-1.54-.78-2.74ZM174.66,295.96h0Z"/>
          <path id="DejaVuSans-74" d="M182.76,293.69v2.48h2.96v1.12h-2.96v4.75c0,.71.1,1.17.29,1.37s.59.3,1.19.3h1.47v1.2h-1.47c-1.11,0-1.88-.21-2.3-.62-.42-.41-.63-1.17-.63-2.26v-4.75h-1.05v-1.12h1.05v-2.48h1.44Z"/>
          <path id="DejaVuSans-68" d="M194.88,299.64v5.28h-1.44v-5.23c0-.83-.16-1.45-.48-1.86-.32-.41-.81-.62-1.45-.62-.78,0-1.39.25-1.84.74-.45.49-.67,1.17-.67,2.02v4.94h-1.44v-12.16h1.44v4.77c.34-.53.75-.92,1.21-1.18.47-.26,1-.39,1.61-.39,1,0,1.76.31,2.28.93.52.62.77,1.54.77,2.74Z"/>
        </g>
      </g>
    </g>
  </g>
</svg>