<?xml version="1.0" encoding="UTF-8"?>
<svg id="_图层_1" data-name="图层_1" xmlns="http://www.w3.org/2000/svg" version="1.1" xmlns:xlink="http://www.w3.org/1999/xlink" viewBox="0 0 288 576">
  <!-- Generator: Adobe Illustrator 29.6.0, SVG Export Plug-In . SVG Version: 2.1.1 Build 207)  -->
  <defs>
    <style>
      .st0 {
        clip-path: url(#clippath-51);
      }

      .st1 {
        clip-path: url(#clippath-34);
      }

      .st2 {
        clip-path: url(#clippath-38);
      }

      .st3 {
        clip-path: url(#clippath-21);
      }

      .st4 {
        clip-path: url(#clippath-6);
      }

      .st5 {
        clip-path: url(#clippath-7);
      }

      .st6 {
        clip-path: url(#clippath-17);
      }

      .st7 {
        clip-path: url(#clippath-31);
      }

      .st8 {
        clip-path: url(#clippath-15);
      }

      .st9 {
        clip-path: url(#clippath-33);
      }

      .st10 {
        clip-path: url(#clippath-18);
      }

      .st11 {
        clip-path: url(#clippath-47);
      }

      .st12 {
        clip-path: url(#clippath-4);
      }

      .st13 {
        clip-path: url(#clippath-22);
      }

      .st14 {
        clip-path: url(#clippath-23);
      }

      .st15 {
        fill: #fff;
        stroke-dasharray: 12;
        stroke-width: 2px;
      }

      .st15, .st16 {
        stroke: #000;
        stroke-miterlimit: 10;
      }

      .st17 {
        clip-path: url(#clippath-54);
      }

      .st18 {
        clip-path: url(#clippath-9);
      }

      .st19 {
        clip-path: url(#clippath-10);
      }

      .st20 {
        clip-path: url(#clippath-42);
      }

      .st21 {
        clip-path: url(#clippath-43);
      }

      .st22 {
        clip-path: url(#clippath-25);
      }

      .st23 {
        clip-path: url(#clippath-27);
      }

      .st24 {
        clip-path: url(#clippath-11);
      }

      .st25, .st26, .st27 {
        fill: none;
      }

      .st16 {
        fill: #eff4fc;
      }

      .st28 {
        clip-path: url(#clippath-36);
      }

      .st29 {
        clip-path: url(#clippath-35);
      }

      .st30 {
        clip-path: url(#clippath-48);
      }

      .st31 {
        clip-path: url(#clippath-28);
      }

      .st26 {
        stroke: silver;
        stroke-width: 3px;
      }

      .st26, .st32, .st33, .st27, .st34, .st35 {
        stroke-linejoin: round;
      }

      .st36 {
        clip-path: url(#clippath-1);
      }

      .st37 {
        clip-path: url(#clippath-45);
      }

      .st38 {
        clip-path: url(#clippath-46);
      }

      .st39 {
        clip-path: url(#clippath-40);
      }

      .st40 {
        clip-path: url(#clippath-5);
      }

      .st41 {
        clip-path: url(#clippath-20);
      }

      .st42 {
        clip-path: url(#clippath-8);
      }

      .st43 {
        clip-path: url(#clippath-52);
      }

      .st44 {
        clip-path: url(#clippath-41);
      }

      .st45 {
        clip-path: url(#clippath-3);
      }

      .st32 {
        fill: #2eabc5;
        stroke: #2eabc5;
      }

      .st46 {
        clip-path: url(#clippath-26);
      }

      .st47 {
        clip-path: url(#clippath-12);
      }

      .st48 {
        clip-path: url(#clippath-50);
      }

      .st33 {
        fill: #90b4cf;
        stroke: #90b4cf;
      }

      .st49 {
        clip-path: url(#clippath-14);
      }

      .st50 {
        clip-path: url(#clippath-30);
      }

      .st51 {
        clip-path: url(#clippath-19);
      }

      .st52 {
        clip-path: url(#clippath-32);
      }

      .st27 {
        stroke: #f9373a;
        stroke-width: 4px;
      }

      .st53 {
        clip-path: url(#clippath-53);
      }

      .st54 {
        clip-path: url(#clippath-39);
      }

      .st34 {
        fill: #87bfd6;
        stroke: #87bfd6;
      }

      .st55 {
        clip-path: url(#clippath-16);
      }

      .st56 {
        clip-path: url(#clippath-2);
      }

      .st57 {
        clip-path: url(#clippath-29);
      }

      .st58 {
        clip-path: url(#clippath-49);
      }

      .st59 {
        clip-path: url(#clippath-37);
      }

      .st60 {
        clip-path: url(#clippath-13);
      }

      .st35 {
        fill: #8f96bd;
        stroke: #8f96bd;
      }

      .st61 {
        clip-path: url(#clippath-24);
      }

      .st62 {
        clip-path: url(#clippath);
      }

      .st63 {
        clip-path: url(#clippath-44);
      }
    </style>
    <clipPath id="clippath">
      <rect class="st25" x="10.8" y="28.32" width="266.4" height="254.28"/>
    </clipPath>
    <clipPath id="clippath-1">
      <rect class="st25" x="10.8" y="28.32" width="266.4" height="254.28"/>
    </clipPath>
    <clipPath id="clippath-2">
      <rect class="st25" x="10.8" y="28.32" width="266.4" height="254.28"/>
    </clipPath>
    <clipPath id="clippath-3">
      <rect class="st25" x="10.8" y="28.32" width="266.4" height="254.28"/>
    </clipPath>
    <clipPath id="clippath-4">
      <rect class="st25" x="10.8" y="28.32" width="266.4" height="254.28"/>
    </clipPath>
    <clipPath id="clippath-5">
      <rect class="st25" x="10.8" y="28.32" width="266.4" height="254.28"/>
    </clipPath>
    <clipPath id="clippath-6">
      <rect class="st25" x="10.8" y="28.32" width="266.4" height="254.28"/>
    </clipPath>
    <clipPath id="clippath-7">
      <rect class="st25" x="10.8" y="28.32" width="266.4" height="254.28"/>
    </clipPath>
    <clipPath id="clippath-8">
      <rect class="st25" x="10.8" y="28.32" width="266.4" height="254.28"/>
    </clipPath>
    <clipPath id="clippath-9">
      <rect class="st25" x="10.8" y="28.32" width="266.4" height="254.28"/>
    </clipPath>
    <clipPath id="clippath-10">
      <rect class="st25" x="10.8" y="28.32" width="266.4" height="254.28"/>
    </clipPath>
    <clipPath id="clippath-11">
      <rect class="st25" x="10.8" y="28.32" width="266.4" height="254.28"/>
    </clipPath>
    <clipPath id="clippath-12">
      <rect class="st25" x="10.8" y="28.32" width="266.4" height="254.28"/>
    </clipPath>
    <clipPath id="clippath-13">
      <rect class="st25" x="10.8" y="28.32" width="266.4" height="254.28"/>
    </clipPath>
    <clipPath id="clippath-14">
      <rect class="st25" x="10.8" y="28.32" width="266.4" height="254.28"/>
    </clipPath>
    <clipPath id="clippath-15">
      <rect class="st25" x="10.8" y="28.32" width="266.4" height="254.28"/>
    </clipPath>
    <clipPath id="clippath-16">
      <rect class="st25" x="10.8" y="28.32" width="266.4" height="254.28"/>
    </clipPath>
    <clipPath id="clippath-17">
      <rect class="st25" x="10.8" y="28.32" width="266.4" height="254.28"/>
    </clipPath>
    <clipPath id="clippath-18">
      <rect class="st25" x="10.8" y="28.32" width="266.4" height="254.28"/>
    </clipPath>
    <clipPath id="clippath-19">
      <rect class="st25" x="10.8" y="28.32" width="266.4" height="254.28"/>
    </clipPath>
    <clipPath id="clippath-20">
      <rect class="st25" x="10.8" y="28.32" width="266.4" height="254.28"/>
    </clipPath>
    <clipPath id="clippath-21">
      <rect class="st25" x="10.8" y="28.32" width="266.4" height="254.28"/>
    </clipPath>
    <clipPath id="clippath-22">
      <rect class="st25" x="10.8" y="28.32" width="266.4" height="254.28"/>
    </clipPath>
    <clipPath id="clippath-23">
      <rect class="st25" x="10.8" y="28.32" width="266.4" height="254.28"/>
    </clipPath>
    <clipPath id="clippath-24">
      <rect class="st25" x="10.8" y="28.32" width="266.4" height="254.28"/>
    </clipPath>
    <clipPath id="clippath-25">
      <rect class="st25" x="10.8" y="28.32" width="266.4" height="254.28"/>
    </clipPath>
    <clipPath id="clippath-26">
      <rect class="st25" x="10.8" y="310.92" width="266.4" height="254.28"/>
    </clipPath>
    <clipPath id="clippath-27">
      <rect class="st25" x="10.8" y="310.92" width="266.4" height="254.28"/>
    </clipPath>
    <clipPath id="clippath-28">
      <rect class="st25" x="10.8" y="310.92" width="266.4" height="254.28"/>
    </clipPath>
    <clipPath id="clippath-29">
      <rect class="st25" x="10.8" y="310.92" width="266.4" height="254.28"/>
    </clipPath>
    <clipPath id="clippath-30">
      <rect class="st25" x="10.8" y="310.92" width="266.4" height="254.28"/>
    </clipPath>
    <clipPath id="clippath-31">
      <rect class="st25" x="10.8" y="310.92" width="266.4" height="254.28"/>
    </clipPath>
    <clipPath id="clippath-32">
      <rect class="st25" x="10.8" y="310.92" width="266.4" height="254.28"/>
    </clipPath>
    <clipPath id="clippath-33">
      <rect class="st25" x="10.8" y="310.92" width="266.4" height="254.28"/>
    </clipPath>
    <clipPath id="clippath-34">
      <rect class="st25" x="10.8" y="310.92" width="266.4" height="254.28"/>
    </clipPath>
    <clipPath id="clippath-35">
      <rect class="st25" x="10.8" y="310.92" width="266.4" height="254.28"/>
    </clipPath>
    <clipPath id="clippath-36">
      <rect class="st25" x="10.8" y="310.92" width="266.4" height="254.28"/>
    </clipPath>
    <clipPath id="clippath-37">
      <rect class="st25" x="10.8" y="310.92" width="266.4" height="254.28"/>
    </clipPath>
    <clipPath id="clippath-38">
      <rect class="st25" x="10.8" y="310.92" width="266.4" height="254.28"/>
    </clipPath>
    <clipPath id="clippath-39">
      <rect class="st25" x="10.8" y="310.92" width="266.4" height="254.28"/>
    </clipPath>
    <clipPath id="clippath-40">
      <rect class="st25" x="10.8" y="310.92" width="266.4" height="254.28"/>
    </clipPath>
    <clipPath id="clippath-41">
      <rect class="st25" x="10.8" y="310.92" width="266.4" height="254.28"/>
    </clipPath>
    <clipPath id="clippath-42">
      <rect class="st25" x="10.8" y="310.92" width="266.4" height="254.28"/>
    </clipPath>
    <clipPath id="clippath-43">
      <rect class="st25" x="10.8" y="310.92" width="266.4" height="254.28"/>
    </clipPath>
    <clipPath id="clippath-44">
      <rect class="st25" x="10.8" y="310.92" width="266.4" height="254.28"/>
    </clipPath>
    <clipPath id="clippath-45">
      <rect class="st25" x="10.8" y="310.92" width="266.4" height="254.28"/>
    </clipPath>
    <clipPath id="clippath-46">
      <rect class="st25" x="10.8" y="310.92" width="266.4" height="254.28"/>
    </clipPath>
    <clipPath id="clippath-47">
      <rect class="st25" x="10.8" y="310.92" width="266.4" height="254.28"/>
    </clipPath>
    <clipPath id="clippath-48">
      <rect class="st25" x="10.8" y="310.92" width="266.4" height="254.28"/>
    </clipPath>
    <clipPath id="clippath-49">
      <rect class="st25" x="10.8" y="310.92" width="266.4" height="254.28"/>
    </clipPath>
    <clipPath id="clippath-50">
      <rect class="st25" x="10.8" y="310.92" width="266.4" height="254.28"/>
    </clipPath>
    <clipPath id="clippath-51">
      <rect class="st25" x="10.8" y="310.92" width="266.4" height="254.28"/>
    </clipPath>
    <clipPath id="clippath-52">
      <rect class="st25" x="10.8" y="310.92" width="266.4" height="254.28"/>
    </clipPath>
    <clipPath id="clippath-53">
      <rect class="st25" x="10.8" y="310.92" width="266.4" height="254.28"/>
    </clipPath>
    <clipPath id="clippath-54">
      <rect class="st25" x="10.8" y="310.92" width="266.4" height="254.28"/>
    </clipPath>
  </defs>
  <rect class="st15" width="288" height="576"/>
  <rect class="st16" x="10.8" y="28.32" width="266.4" height="254.28"/>
  <rect class="st16" x="10.8" y="310.74" width="266.4" height="254.46"/>
  <g>
    <g id="axes_1">
      <g id="LineCollection_1">
        <g class="st62">
          <path class="st26" d="M146.32,124.21l-64.61-3.5"/>
        </g>
        <g class="st36">
          <path class="st26" d="M146.32,124.21l45.49,57.83"/>
        </g>
        <g class="st56">
          <path class="st26" d="M146.32,124.21l25.98-73.82"/>
        </g>
        <g class="st45">
          <path class="st26" d="M81.7,120.71L45.33,56.44"/>
        </g>
        <g class="st12">
          <path class="st26" d="M81.7,120.71l-47.79,50.55"/>
        </g>
        <g class="st40">
          <path class="st26" d="M191.81,182.04l2.37,78.49"/>
        </g>
        <g class="st4">
          <path class="st26" d="M191.81,182.04l62.28-9.32"/>
        </g>
      </g>
      <g id="LineCollection_2">
        <g class="st5">
          <path class="st27" d="M81.7,120.71L45.33,56.44"/>
        </g>
        <g class="st42">
          <path class="st27" d="M81.7,120.71l-47.79,50.55"/>
        </g>
        <g class="st18">
          <path class="st27" d="M191.81,182.04l2.37,78.49"/>
        </g>
      </g>
      <g id="PathCollection_1">
        <g class="st19">
          <path id="C0_0_89712277b0" class="st33" d="M146.32,136.96c3.38,0,6.62-1.34,9.01-3.73,2.39-2.39,3.73-5.63,3.73-9.01s-1.34-6.62-3.73-9.01c-2.39-2.39-5.63-3.73-9.01-3.73s-6.62,1.34-9.01,3.73c-2.39,2.39-3.73,5.63-3.73,9.01s1.34,6.62,3.73,9.01c2.39,2.39,5.63,3.73,9.01,3.73Z"/>
        </g>
        <g class="st24">
          <path id="C0_0_89712277b01" data-name="C0_0_89712277b0" class="st35" d="M81.7,133.46c3.38,0,6.62-1.34,9.01-3.73,2.39-2.39,3.73-5.63,3.73-9.01s-1.34-6.62-3.73-9.01c-2.39-2.39-5.63-3.73-9.01-3.73s-6.62,1.34-9.01,3.73c-2.39,2.39-3.73,5.63-3.73,9.01s1.34,6.62,3.73,9.01c2.39,2.39,5.63,3.73,9.01,3.73Z"/>
        </g>
        <g class="st47">
          <path id="C0_0_89712277b02" data-name="C0_0_89712277b0" class="st35" d="M191.81,194.79c3.38,0,6.62-1.34,9.01-3.73,2.39-2.39,3.73-5.63,3.73-9.01s-1.34-6.62-3.73-9.01c-2.39-2.39-5.63-3.73-9.01-3.73s-6.62,1.34-9.01,3.73c-2.39,2.39-3.73,5.63-3.73,9.01s1.34,6.62,3.73,9.01c2.39,2.39,5.63,3.73,9.01,3.73Z"/>
        </g>
        <g class="st60">
          <path id="C0_0_89712277b03" data-name="C0_0_89712277b0" class="st32" d="M172.3,63.13c3.38,0,6.62-1.34,9.01-3.73,2.39-2.39,3.73-5.63,3.73-9.01s-1.34-6.62-3.73-9.01c-2.39-2.39-5.63-3.73-9.01-3.73s-6.62,1.34-9.01,3.73c-2.39,2.39-3.73,5.63-3.73,9.01s1.34,6.62,3.73,9.01c2.39,2.39,5.63,3.73,9.01,3.73Z"/>
        </g>
        <g class="st49">
          <path id="C0_0_89712277b04" data-name="C0_0_89712277b0" class="st34" d="M45.33,69.18c3.38,0,6.62-1.34,9.01-3.73,2.39-2.39,3.73-5.63,3.73-9.01s-1.34-6.62-3.73-9.01c-2.39-2.39-5.63-3.73-9.01-3.73s-6.62,1.34-9.01,3.73c-2.39,2.39-3.73,5.63-3.73,9.01s1.34,6.62,3.73,9.01c2.39,2.39,5.63,3.73,9.01,3.73Z"/>
        </g>
        <g class="st8">
          <path id="C0_0_89712277b05" data-name="C0_0_89712277b0" class="st34" d="M33.92,184.01c3.38,0,6.62-1.34,9.01-3.73,2.39-2.39,3.73-5.63,3.73-9.01s-1.34-6.62-3.73-9.01c-2.39-2.39-5.63-3.73-9.01-3.73s-6.62,1.34-9.01,3.73c-2.39,2.39-3.73,5.63-3.73,9.01s1.34,6.62,3.73,9.01c2.39,2.39,5.63,3.73,9.01,3.73Z"/>
        </g>
        <g class="st55">
          <path id="C0_0_89712277b06" data-name="C0_0_89712277b0" class="st34" d="M194.18,273.28c3.38,0,6.62-1.34,9.01-3.73,2.39-2.39,3.73-5.63,3.73-9.01s-1.34-6.62-3.73-9.01c-2.39-2.39-5.63-3.73-9.01-3.73s-6.62,1.34-9.01,3.73c-2.39,2.39-3.73,5.63-3.73,9.01s1.34,6.62,3.73,9.01c2.39,2.39,5.63,3.73,9.01,3.73Z"/>
        </g>
        <g class="st6">
          <path id="C0_0_89712277b07" data-name="C0_0_89712277b0" class="st34" d="M254.08,185.47c3.38,0,6.62-1.34,9.01-3.73,2.39-2.39,3.73-5.63,3.73-9.01s-1.34-6.62-3.73-9.01c-2.39-2.39-5.63-3.73-9.01-3.73s-6.62,1.34-9.01,3.73c-2.39,2.39-3.73,5.63-3.73,9.01s1.34,6.62,3.73,9.01c2.39,2.39,5.63,3.73,9.01,3.73Z"/>
        </g>
      </g>
      <g id="text_1">
        <g class="st10">
          <path id="DejaVuSans-43" d="M150.45,118.65v1.45c-.47-.43-.96-.76-1.49-.97-.53-.21-1.09-.32-1.68-.32-1.17,0-2.06.36-2.68,1.07s-.93,1.74-.93,3.09.31,2.37.93,3.09,1.51,1.07,2.68,1.07c.59,0,1.15-.11,1.68-.32s1.02-.54,1.49-.97v1.44c-.48.33-.99.57-1.54.74-.54.16-1.11.25-1.71.25-1.55,0-2.76-.47-3.65-1.42-.89-.95-1.33-2.24-1.33-3.87s.44-2.93,1.33-3.88c.89-.95,2.11-1.42,3.65-1.42.61,0,1.18.08,1.72.24.54.16,1.05.4,1.52.73Z"/>
        </g>
      </g>
      <g id="text_2">
        <g class="st51">
          <path id="DejaVuSans-4e" d="M77.84,114.37h1.86l4.53,8.54v-8.54h1.34v10.21h-1.86l-4.52-8.54v8.54h-1.34v-10.21Z"/>
        </g>
      </g>
      <g id="text_3">
        <g class="st41">
          <path id="DejaVuSans-4e1" data-name="DejaVuSans-4e" d="M187.94,175.7h1.86l4.53,8.54v-8.54h1.34v10.21h-1.86l-4.52-8.54v8.54h-1.34v-10.21Z"/>
        </g>
      </g>
      <g id="text_4">
        <g class="st3">
          <path id="DejaVuSans-53" d="M175.35,44.38v1.35c-.52-.25-1.02-.44-1.48-.56-.47-.12-.91-.19-1.35-.19-.75,0-1.33.15-1.74.44-.41.29-.61.71-.61,1.24,0,.45.14.79.41,1.02.27.23.79.41,1.54.56l.83.17c1.03.2,1.79.54,2.28,1.04s.74,1.16.74,1.98c0,.99-.33,1.74-1,2.25-.66.51-1.63.77-2.91.77-.48,0-1-.05-1.54-.16-.54-.11-1.11-.27-1.69-.49v-1.42c.56.31,1.11.55,1.65.71.54.16,1.07.24,1.59.24.79,0,1.4-.15,1.82-.46.43-.31.64-.75.64-1.33,0-.5-.15-.89-.46-1.17s-.81-.5-1.51-.64l-.84-.16c-1.03-.2-1.77-.53-2.24-.96-.46-.44-.69-1.05-.69-1.83,0-.9.32-1.61.95-2.13.64-.52,1.51-.78,2.63-.78.48,0,.97.04,1.46.13.5.09,1.01.22,1.52.39Z"/>
        </g>
      </g>
      <g id="text_5">
        <g class="st13">
          <path id="DejaVuSans-48" d="M41.44,50.09h1.38v4.18h5.02v-4.18h1.38v10.21h-1.38v-4.86h-5.02v4.86h-1.38v-10.21Z"/>
        </g>
      </g>
      <g id="text_6">
        <g class="st14">
          <path id="DejaVuSans-481" data-name="DejaVuSans-48" d="M30.03,164.92h1.38v4.18h5.02v-4.18h1.38v10.21h-1.38v-4.86h-5.02v4.86h-1.38v-10.21Z"/>
        </g>
      </g>
      <g id="text_7">
        <g class="st61">
          <path id="DejaVuSans-482" data-name="DejaVuSans-48" d="M190.29,254.19h1.38v4.18h5.02v-4.18h1.38v10.21h-1.38v-4.86h-5.02v4.86h-1.38v-10.21Z"/>
        </g>
      </g>
      <g id="text_8">
        <g class="st22">
          <path id="DejaVuSans-483" data-name="DejaVuSans-48" d="M250.19,166.38h1.38v4.18h5.02v-4.18h1.38v10.21h-1.38v-4.86h-5.02v4.86h-1.38v-10.21Z"/>
        </g>
      </g>
      <g id="text_9">
        <g>
          <path id="DejaVuSans-30" d="M104.94,124.22c-.41,0-.71.2-.92.6-.2.4-.31,1-.31,1.8s.1,1.4.31,1.8c.2.4.51.6.92.6s.72-.2.92-.6c.2-.4.31-1,.31-1.8s-.1-1.4-.31-1.8c-.2-.4-.51-.6-.92-.6ZM104.94,123.6c.65,0,1.15.26,1.5.78.34.52.52,1.27.52,2.25s-.17,1.73-.52,2.25c-.34.52-.84.77-1.5.77s-1.15-.26-1.5-.77c-.34-.52-.52-1.27-.52-2.25s.17-1.73.52-2.25c.34-.52.84-.78,1.5-.78Z"/>
          <path id="DejaVuSans-2e" d="M108.34,128.54h.82v.99h-.82v-.99Z"/>
          <path id="DejaVuSans-39" d="M110.9,129.41v-.72c.2.09.4.17.6.21.2.05.4.07.6.07.52,0,.92-.17,1.19-.52.27-.35.43-.88.47-1.6-.15.22-.34.4-.57.52-.23.12-.49.18-.77.18-.58,0-1.04-.18-1.38-.53-.34-.35-.51-.84-.51-1.45s.18-1.08.53-1.44c.35-.36.83-.54,1.41-.54.67,0,1.19.26,1.54.78.36.52.53,1.27.53,2.25,0,.92-.22,1.65-.65,2.2-.44.55-1.02.82-1.76.82-.2,0-.4-.02-.6-.06-.2-.04-.41-.1-.63-.18ZM112.47,126.94c.35,0,.63-.12.84-.36.21-.24.31-.57.31-1s-.1-.75-.31-.99c-.21-.24-.49-.36-.84-.36s-.63.12-.84.36c-.21.24-.31.57-.31.99s.1.75.31,1c.21.24.49.36.84.36Z"/>
          <path id="DejaVuSans-33" d="M118.36,126.39c.38.08.67.25.88.5.21.25.32.57.32.94,0,.57-.2,1.02-.59,1.34-.4.31-.96.47-1.69.47-.24,0-.5-.02-.75-.07-.26-.05-.53-.12-.8-.22v-.76c.22.13.46.22.72.29.26.06.53.1.82.1.49,0,.87-.1,1.13-.29s.39-.48.39-.85c0-.34-.12-.61-.36-.81-.24-.19-.58-.29-1-.29h-.68v-.65h.71c.39,0,.68-.08.89-.23s.31-.38.31-.67-.11-.53-.32-.69c-.21-.16-.52-.24-.91-.24-.22,0-.45.02-.7.07-.25.05-.52.12-.82.22v-.7c.3-.08.58-.15.84-.19s.51-.06.74-.06c.6,0,1.07.14,1.42.41.35.27.52.64.52,1.1,0,.32-.09.6-.28.82s-.45.38-.79.46Z"/>
          <path id="DejaVuSans-32" d="M121.74,128.87h2.75v.66h-3.7v-.66c.3-.31.71-.73,1.22-1.25.52-.52.84-.86.97-1.01.25-.28.43-.52.53-.72.1-.2.15-.39.15-.58,0-.31-.11-.56-.33-.76-.22-.2-.5-.29-.85-.29-.25,0-.51.04-.78.13-.27.09-.57.22-.88.39v-.8c.32-.13.61-.22.89-.29.28-.06.53-.1.76-.1.6,0,1.09.15,1.44.45.36.3.54.7.54,1.21,0,.24-.04.47-.13.68-.09.21-.25.47-.49.76-.06.08-.27.29-.62.65-.35.36-.84.87-1.48,1.51Z"/>
        </g>
      </g>
      <g id="text_10">
        <g>
          <path id="DejaVuSans-301" data-name="DejaVuSans-30" d="M162.91,146.6c-.41,0-.71.2-.92.6-.2.4-.31,1-.31,1.8s.1,1.4.31,1.8c.2.4.51.6.92.6s.72-.2.92-.6c.2-.4.31-1,.31-1.8s-.1-1.4-.31-1.8c-.2-.4-.51-.6-.92-.6ZM162.91,145.97c.65,0,1.15.26,1.5.78.34.52.52,1.27.52,2.25s-.17,1.73-.52,2.25c-.34.52-.84.77-1.5.77s-1.15-.26-1.5-.77c-.34-.52-.52-1.27-.52-2.25s.17-1.73.52-2.25c.34-.52.84-.78,1.5-.78Z"/>
          <path id="DejaVuSans-2e1" data-name="DejaVuSans-2e" d="M166.31,150.92h.82v.99h-.82v-.99Z"/>
          <path id="DejaVuSans-391" data-name="DejaVuSans-39" d="M168.87,151.79v-.72c.2.09.4.17.6.21.2.05.4.07.6.07.52,0,.92-.17,1.19-.52.27-.35.43-.88.47-1.6-.15.22-.34.4-.57.52-.23.12-.49.18-.77.18-.58,0-1.04-.18-1.38-.53-.34-.35-.51-.84-.51-1.45s.18-1.08.53-1.44c.35-.36.83-.54,1.41-.54.67,0,1.19.26,1.54.78.36.52.53,1.27.53,2.25,0,.92-.22,1.65-.65,2.2-.44.55-1.02.82-1.76.82-.2,0-.4-.02-.6-.06-.2-.04-.41-.1-.63-.18ZM170.44,149.31c.35,0,.63-.12.84-.36.21-.24.31-.57.31-1s-.1-.75-.31-.99c-.21-.24-.49-.36-.84-.36s-.63.12-.84.36c-.21.24-.31.57-.31.99s.1.75.31,1c.21.24.49.36.84.36Z"/>
          <path id="DejaVuSans-331" data-name="DejaVuSans-33" d="M176.33,148.76c.38.08.67.25.88.5.21.25.32.57.32.94,0,.57-.2,1.02-.59,1.34-.4.31-.96.47-1.69.47-.24,0-.5-.02-.75-.07-.26-.05-.53-.12-.8-.22v-.76c.22.13.46.22.72.29.26.06.53.1.82.1.49,0,.87-.1,1.13-.29s.39-.48.39-.85c0-.34-.12-.61-.36-.81-.24-.19-.58-.29-1-.29h-.68v-.65h.71c.39,0,.68-.08.89-.23s.31-.38.31-.67-.11-.53-.32-.69c-.21-.16-.52-.24-.91-.24-.22,0-.45.02-.7.07-.25.05-.52.12-.82.22v-.7c.3-.08.58-.15.84-.19s.51-.06.74-.06c.6,0,1.07.14,1.42.41.35.27.52.64.52,1.1,0,.32-.09.6-.28.82s-.45.38-.79.46Z"/>
          <path id="DejaVuSans-321" data-name="DejaVuSans-32" d="M179.71,151.24h2.75v.66h-3.7v-.66c.3-.31.71-.73,1.22-1.25.52-.52.84-.86.97-1.01.25-.28.43-.52.53-.72.1-.2.15-.39.15-.58,0-.31-.11-.56-.33-.76-.22-.2-.5-.29-.85-.29-.25,0-.51.04-.78.13-.27.09-.57.22-.88.39v-.8c.32-.13.61-.22.89-.29.28-.06.53-.1.76-.1.6,0,1.09.15,1.44.45.36.3.54.7.54,1.21,0,.24-.04.47-.13.68-.09.21-.25.47-.49.76-.06.08-.27.29-.62.65-.35.36-.84.87-1.48,1.51Z"/>
        </g>
      </g>
      <g id="text_11">
        <g>
          <path id="DejaVuSans-302" data-name="DejaVuSans-30" d="M146.86,82.22c-.41,0-.71.2-.92.6-.2.4-.31,1-.31,1.8s.1,1.4.31,1.8c.2.4.51.6.92.6s.72-.2.92-.6c.2-.4.31-1,.31-1.8s-.1-1.4-.31-1.8c-.2-.4-.51-.6-.92-.6ZM146.86,81.6c.65,0,1.15.26,1.5.78.34.52.52,1.27.52,2.25s-.17,1.73-.52,2.25c-.34.52-.84.77-1.5.77s-1.15-.26-1.5-.77c-.34-.52-.52-1.27-.52-2.25s.17-1.73.52-2.25c.34-.52.84-.78,1.5-.78Z"/>
          <path id="DejaVuSans-2e2" data-name="DejaVuSans-2e" d="M150.26,86.54h.82v.99h-.82v-.99Z"/>
          <path id="DejaVuSans-303" data-name="DejaVuSans-30" d="M154.49,82.22c-.41,0-.71.2-.92.6-.2.4-.31,1-.31,1.8s.1,1.4.31,1.8c.2.4.51.6.92.6s.72-.2.92-.6c.2-.4.31-1,.31-1.8s-.1-1.4-.31-1.8c-.2-.4-.51-.6-.92-.6ZM154.49,81.6c.65,0,1.15.26,1.5.78.34.52.52,1.27.52,2.25s-.17,1.73-.52,2.25c-.34.52-.84.77-1.5.77s-1.15-.26-1.5-.77c-.34-.52-.52-1.27-.52-2.25s.17-1.73.52-2.25c.34-.52.84-.78,1.5-.78Z"/>
          <path id="DejaVuSans-37" d="M157.69,81.7h3.75v.34l-2.12,5.5h-.82l1.99-5.17h-2.8v-.66Z"/>
          <path id="DejaVuSans-35" d="M162.99,81.7h3.1v.66h-2.37v1.43c.11-.04.23-.07.34-.09.11-.02.23-.03.34-.03.65,0,1.17.18,1.55.53.38.36.57.84.57,1.45s-.2,1.12-.59,1.46c-.39.35-.94.52-1.65.52-.24,0-.49-.02-.75-.06-.25-.04-.52-.1-.79-.19v-.79c.23.13.48.22.73.28s.51.09.79.09c.45,0,.81-.12,1.07-.35.26-.24.39-.56.39-.96s-.13-.73-.39-.96c-.26-.24-.62-.36-1.07-.36-.21,0-.42.02-.63.07-.21.05-.42.12-.64.22v-2.93Z"/>
        </g>
      </g>
      <g id="text_12">
        <g>
          <path id="DejaVuSans-304" data-name="DejaVuSans-30" d="M51.45,88.29c-.41,0-.71.2-.92.6-.2.4-.31,1-.31,1.8s.1,1.4.31,1.8c.2.4.51.6.92.6s.72-.2.92-.6c.2-.4.31-1,.31-1.8s-.1-1.4-.31-1.8c-.2-.4-.51-.6-.92-.6ZM51.45,87.67c.65,0,1.15.26,1.5.78.34.52.52,1.27.52,2.25s-.17,1.73-.52,2.25c-.34.52-.84.77-1.5.77s-1.15-.26-1.5-.77c-.34-.52-.52-1.27-.52-2.25s.17-1.73.52-2.25c.34-.52.84-.78,1.5-.78Z"/>
          <path id="DejaVuSans-2e3" data-name="DejaVuSans-2e" d="M54.86,92.61h.82v.99h-.82v-.99Z"/>
          <path id="DejaVuSans-392" data-name="DejaVuSans-39" d="M57.42,93.49v-.72c.2.09.4.17.6.21.2.05.4.07.6.07.52,0,.92-.17,1.19-.52.27-.35.43-.88.47-1.6-.15.22-.34.4-.57.52-.23.12-.49.18-.77.18-.58,0-1.04-.18-1.38-.53-.34-.35-.51-.84-.51-1.45s.18-1.08.53-1.44c.35-.36.83-.54,1.41-.54.67,0,1.19.26,1.54.78.36.52.53,1.27.53,2.25,0,.92-.22,1.65-.65,2.2-.44.55-1.02.82-1.76.82-.2,0-.4-.02-.6-.06-.2-.04-.41-.1-.63-.18ZM58.99,91.01c.35,0,.63-.12.84-.36.21-.24.31-.57.31-1s-.1-.75-.31-.99c-.21-.24-.49-.36-.84-.36s-.63.12-.84.36c-.21.24-.31.57-.31.99s.1.75.31,1c.21.24.49.36.84.36Z"/>
          <path id="DejaVuSans-332" data-name="DejaVuSans-33" d="M64.88,90.46c.38.08.67.25.88.5.21.25.32.57.32.94,0,.57-.2,1.02-.59,1.34-.4.31-.96.47-1.69.47-.24,0-.5-.02-.75-.07-.26-.05-.53-.12-.8-.22v-.76c.22.13.46.22.72.29.26.06.53.1.82.1.49,0,.87-.1,1.13-.29s.39-.48.39-.85c0-.34-.12-.61-.36-.81-.24-.19-.58-.29-1-.29h-.68v-.65h.71c.39,0,.68-.08.89-.23s.31-.38.31-.67-.11-.53-.32-.69c-.21-.16-.52-.24-.91-.24-.22,0-.45.02-.7.07-.25.05-.52.12-.82.22v-.7c.3-.08.58-.15.84-.19s.51-.06.74-.06c.6,0,1.07.14,1.42.41.35.27.52.64.52,1.1,0,.32-.09.6-.28.82s-.45.38-.79.46Z"/>
          <path id="DejaVuSans-371" data-name="DejaVuSans-37" d="M67.38,87.77h3.75v.34l-2.12,5.5h-.82l1.99-5.17h-2.8v-.66Z"/>
        </g>
      </g>
      <g id="text_13">
        <g>
          <path id="DejaVuSans-305" data-name="DejaVuSans-30" d="M51.39,146.61c-.41,0-.71.2-.92.6-.2.4-.31,1-.31,1.8s.1,1.4.31,1.8c.2.4.51.6.92.6s.72-.2.92-.6c.2-.4.31-1,.31-1.8s-.1-1.4-.31-1.8c-.2-.4-.51-.6-.92-.6ZM51.39,145.98c.65,0,1.15.26,1.5.78.34.52.52,1.27.52,2.25s-.17,1.73-.52,2.25c-.34.52-.84.77-1.5.77s-1.15-.26-1.5-.77c-.34-.52-.52-1.27-.52-2.25s.17-1.73.52-2.25c.34-.52.84-.78,1.5-.78Z"/>
          <path id="DejaVuSans-2e4" data-name="DejaVuSans-2e" d="M54.8,150.93h.82v.99h-.82v-.99Z"/>
          <path id="DejaVuSans-393" data-name="DejaVuSans-39" d="M57.36,151.8v-.72c.2.09.4.17.6.21.2.05.4.07.6.07.52,0,.92-.17,1.19-.52.27-.35.43-.88.47-1.6-.15.22-.34.4-.57.52-.23.12-.49.18-.77.18-.58,0-1.04-.18-1.38-.53-.34-.35-.51-.84-.51-1.45s.18-1.08.53-1.44c.35-.36.83-.54,1.41-.54.67,0,1.19.26,1.54.78.36.52.53,1.27.53,2.25,0,.92-.22,1.65-.65,2.2-.44.55-1.02.82-1.76.82-.2,0-.4-.02-.6-.06-.2-.04-.41-.1-.63-.18ZM58.93,149.33c.35,0,.63-.12.84-.36.21-.24.31-.57.31-1s-.1-.75-.31-.99c-.21-.24-.49-.36-.84-.36s-.63.12-.84.36c-.21.24-.31.57-.31.99s.1.75.31,1c.21.24.49.36.84.36Z"/>
          <path id="DejaVuSans-333" data-name="DejaVuSans-33" d="M64.82,148.78c.38.08.67.25.88.5.21.25.32.57.32.94,0,.57-.2,1.02-.59,1.34-.4.31-.96.47-1.69.47-.24,0-.5-.02-.75-.07-.26-.05-.53-.12-.8-.22v-.76c.22.13.46.22.72.29.26.06.53.1.82.1.49,0,.87-.1,1.13-.29s.39-.48.39-.85c0-.34-.12-.61-.36-.81-.24-.19-.58-.29-1-.29h-.68v-.65h.71c.39,0,.68-.08.89-.23s.31-.38.31-.67-.11-.53-.32-.69c-.21-.16-.52-.24-.91-.24-.22,0-.45.02-.7.07-.25.05-.52.12-.82.22v-.7c.3-.08.58-.15.84-.19s.51-.06.74-.06c.6,0,1.07.14,1.42.41.35.27.52.64.52,1.1,0,.32-.09.6-.28.82s-.45.38-.79.46Z"/>
          <path id="DejaVuSans-351" data-name="DejaVuSans-35" d="M67.53,146.09h3.1v.66h-2.37v1.43c.11-.04.23-.07.34-.09.11-.02.23-.03.34-.03.65,0,1.17.18,1.55.53.38.36.57.84.57,1.45s-.2,1.12-.59,1.46c-.39.35-.94.52-1.65.52-.24,0-.49-.02-.75-.06-.25-.04-.52-.1-.79-.19v-.79c.23.13.48.22.73.28s.51.09.79.09c.45,0,.81-.12,1.07-.35.26-.24.39-.56.39-.96s-.13-.73-.39-.96c-.26-.24-.62-.36-1.07-.36-.21,0-.42.02-.63.07-.21.05-.42.12-.64.22v-2.93Z"/>
        </g>
      </g>
      <g id="text_14">
        <g>
          <path id="DejaVuSans-306" data-name="DejaVuSans-30" d="M187.95,218c-.41,0-.71.2-.92.6-.2.4-.31,1-.31,1.8s.1,1.4.31,1.8c.2.4.51.6.92.6s.72-.2.92-.6c.2-.4.31-1,.31-1.8s-.1-1.4-.31-1.8c-.2-.4-.51-.6-.92-.6ZM187.95,217.37c.65,0,1.15.26,1.5.78.34.52.52,1.27.52,2.25s-.17,1.73-.52,2.25c-.34.52-.84.77-1.5.77s-1.15-.26-1.5-.77c-.34-.52-.52-1.27-.52-2.25s.17-1.73.52-2.25c.34-.52.84-.78,1.5-.78Z"/>
          <path id="DejaVuSans-2e5" data-name="DejaVuSans-2e" d="M191.36,222.32h.82v.99h-.82v-.99Z"/>
          <path id="DejaVuSans-394" data-name="DejaVuSans-39" d="M193.92,223.19v-.72c.2.09.4.17.6.21.2.05.4.07.6.07.52,0,.92-.17,1.19-.52.27-.35.43-.88.47-1.6-.15.22-.34.4-.57.52-.23.12-.49.18-.77.18-.58,0-1.04-.18-1.38-.53-.34-.35-.51-.84-.51-1.45s.18-1.08.53-1.44c.35-.36.83-.54,1.41-.54.67,0,1.19.26,1.54.78.36.52.53,1.27.53,2.25,0,.92-.22,1.65-.65,2.2-.44.55-1.02.82-1.76.82-.2,0-.4-.02-.6-.06-.2-.04-.41-.1-.63-.18ZM195.49,220.72c.35,0,.63-.12.84-.36.21-.24.31-.57.31-1s-.1-.75-.31-.99c-.21-.24-.49-.36-.84-.36s-.63.12-.84.36c-.21.24-.31.57-.31.99s.1.75.31,1c.21.24.49.36.84.36Z"/>
          <path id="DejaVuSans-334" data-name="DejaVuSans-33" d="M201.38,220.17c.38.08.67.25.88.5.21.25.32.57.32.94,0,.57-.2,1.02-.59,1.34-.4.31-.96.47-1.69.47-.24,0-.5-.02-.75-.07-.26-.05-.53-.12-.8-.22v-.76c.22.13.46.22.72.29.26.06.53.1.82.1.49,0,.87-.1,1.13-.29s.39-.48.39-.85c0-.34-.12-.61-.36-.81-.24-.19-.58-.29-1-.29h-.68v-.65h.71c.39,0,.68-.08.89-.23s.31-.38.31-.67-.11-.53-.32-.69c-.21-.16-.52-.24-.91-.24-.22,0-.45.02-.7.07-.25.05-.52.12-.82.22v-.7c.3-.08.58-.15.84-.19s.51-.06.74-.06c.6,0,1.07.14,1.42.41.35.27.52.64.52,1.1,0,.32-.09.6-.28.82s-.45.38-.79.46Z"/>
          <path id="DejaVuSans-36" d="M205.87,220.08c-.35,0-.63.12-.84.36-.21.24-.31.57-.31.99s.1.75.31.99c.21.24.49.36.84.36s.63-.12.84-.36c.21-.24.31-.58.31-.99s-.1-.75-.31-.99c-.21-.24-.49-.36-.84-.36ZM207.43,217.61v.72c-.2-.09-.4-.16-.6-.21-.2-.05-.4-.07-.6-.07-.52,0-.92.18-1.19.53-.27.35-.43.88-.47,1.59.15-.23.35-.4.58-.52.23-.12.49-.18.77-.18.59,0,1.05.18,1.39.53.34.35.51.84.51,1.45s-.18,1.08-.53,1.44c-.35.36-.83.54-1.41.54-.67,0-1.19-.26-1.55-.77-.36-.52-.53-1.27-.53-2.25,0-.92.22-1.66.66-2.2.44-.55,1.02-.82,1.76-.82.2,0,.4.02.6.06s.41.1.63.17Z"/>
        </g>
      </g>
      <g id="text_15">
        <g>
          <path id="DejaVuSans-307" data-name="DejaVuSans-30" d="M213.58,169.44c-.41,0-.71.2-.92.6-.2.4-.31,1-.31,1.8s.1,1.4.31,1.8c.2.4.51.6.92.6s.72-.2.92-.6c.2-.4.31-1,.31-1.8s-.1-1.4-.31-1.8c-.2-.4-.51-.6-.92-.6ZM213.58,168.82c.65,0,1.15.26,1.5.78.34.52.52,1.27.52,2.25s-.17,1.73-.52,2.25c-.34.52-.84.77-1.5.77s-1.15-.26-1.5-.77c-.34-.52-.52-1.27-.52-2.25s.17-1.73.52-2.25c.34-.52.84-.78,1.5-.78Z"/>
          <path id="DejaVuSans-2e6" data-name="DejaVuSans-2e" d="M216.98,173.76h.82v.99h-.82v-.99Z"/>
          <path id="DejaVuSans-395" data-name="DejaVuSans-39" d="M219.55,174.63v-.72c.2.09.4.17.6.21.2.05.4.07.6.07.52,0,.92-.17,1.19-.52.27-.35.43-.88.47-1.6-.15.22-.34.4-.57.52-.23.12-.49.18-.77.18-.58,0-1.04-.18-1.38-.53-.34-.35-.51-.84-.51-1.45s.18-1.08.53-1.44c.35-.36.83-.54,1.41-.54.67,0,1.19.26,1.54.78.36.52.53,1.27.53,2.25,0,.92-.22,1.65-.65,2.2-.44.55-1.02.82-1.76.82-.2,0-.4-.02-.6-.06-.2-.04-.41-.1-.63-.18ZM221.12,172.16c.35,0,.63-.12.84-.36.21-.24.31-.57.31-1s-.1-.75-.31-.99c-.21-.24-.49-.36-.84-.36s-.63.12-.84.36c-.21.24-.31.57-.31.99s.1.75.31,1c.21.24.49.36.84.36Z"/>
          <path id="DejaVuSans-335" data-name="DejaVuSans-33" d="M227,171.61c.38.08.67.25.88.5.21.25.32.57.32.94,0,.57-.2,1.02-.59,1.34-.4.31-.96.47-1.69.47-.24,0-.5-.02-.75-.07-.26-.05-.53-.12-.8-.22v-.76c.22.13.46.22.72.29.26.06.53.1.82.1.49,0,.87-.1,1.13-.29s.39-.48.39-.85c0-.34-.12-.61-.36-.81-.24-.19-.58-.29-1-.29h-.68v-.65h.71c.39,0,.68-.08.89-.23s.31-.38.31-.67-.11-.53-.32-.69c-.21-.16-.52-.24-.91-.24-.22,0-.45.02-.7.07-.25.05-.52.12-.82.22v-.7c.3-.08.58-.15.84-.19s.51-.06.74-.06c.6,0,1.07.14,1.42.41.35.27.52.64.52,1.1,0,.32-.09.6-.28.82s-.45.38-.79.46Z"/>
          <path id="DejaVuSans-34" d="M231.87,169.61l-1.99,3.11h1.99v-3.11ZM231.66,168.92h.99v3.8h.83v.66h-.83v1.37h-.78v-1.37h-2.63v-.76l2.42-3.7Z"/>
        </g>
      </g>
      <g id="text_16">
        <g>
          <path id="DejaVuSans-47" d="M97.86,20.65v-3.13h-2.58v-1.3h4.14v5.01c-.61.43-1.28.76-2.01.98-.73.22-1.52.33-2.35.33-1.82,0-3.25-.53-4.28-1.6-1.03-1.07-1.54-2.55-1.54-4.45s.51-3.39,1.54-4.46c1.03-1.06,2.46-1.6,4.28-1.6.76,0,1.48.09,2.17.28.68.19,1.32.46,1.89.83v1.68c-.58-.49-1.2-.87-1.86-1.12s-1.35-.37-2.07-.37c-1.43,0-2.5.4-3.22,1.19-.71.8-1.07,1.98-1.07,3.56s.36,2.76,1.07,3.55c.72.8,1.79,1.19,3.22,1.19.56,0,1.05-.05,1.49-.14.44-.1.83-.25,1.18-.45Z"/>
          <path id="DejaVuSans-4e2" data-name="DejaVuSans-4e" d="M102.3,10.65h2.12l5.17,9.76v-9.76h1.53v11.66h-2.12l-5.17-9.76v9.76h-1.53v-11.66Z"/>
          <path id="DejaVuSans-4e3" data-name="DejaVuSans-4e" d="M114.27,10.65h2.12l5.17,9.76v-9.76h1.53v11.66h-2.12l-5.17-9.76v9.76h-1.53v-11.66Z"/>
          <path id="DejaVuSans-45" d="M126.24,10.65h7.37v1.33h-5.8v3.45h5.55v1.33h-5.55v4.23h5.94v1.33h-7.51v-11.66Z"/>
          <path id="DejaVuSans-78" d="M143.56,13.57l-3.16,4.26,3.33,4.49h-1.69l-2.55-3.44-2.54,3.44h-1.7l3.4-4.58-3.11-4.17h1.69l2.32,3.12,2.32-3.12h1.7Z"/>
          <path id="DejaVuSans-70" d="M147.15,21.01v4.64h-1.44v-12.08h1.44v1.33c.3-.52.68-.91,1.14-1.16.46-.25,1.01-.38,1.65-.38,1.06,0,1.93.42,2.59,1.26.66.84,1,1.95,1,3.33s-.33,2.48-1,3.33c-.66.84-1.53,1.26-2.59,1.26-.64,0-1.19-.13-1.65-.38-.46-.25-.84-.64-1.14-1.16ZM152.04,17.95c0-1.06-.22-1.89-.65-2.49s-1.03-.9-1.79-.9-1.36.3-1.79.9-.65,1.43-.65,2.49.22,1.89.65,2.49c.43.6,1.03.9,1.79.9s1.36-.3,1.79-.9c.43-.6.65-1.43.65-2.49Z"/>
          <path id="DejaVuSans-6c" d="M155.91,10.16h1.44v12.16h-1.44v-12.16Z"/>
          <path id="DejaVuSans-61" d="M164.33,17.92c-1.16,0-1.97.13-2.41.4s-.67.72-.67,1.36c0,.51.17.91.5,1.21.34.3.79.45,1.37.45.8,0,1.44-.28,1.92-.85s.72-1.32.72-2.25v-.32h-1.43ZM167.2,17.33v4.99h-1.44v-1.33c-.33.53-.74.92-1.23,1.17-.49.25-1.09.38-1.8.38-.89,0-1.61-.25-2.14-.75-.53-.5-.79-1.18-.79-2.02,0-.98.33-1.72.99-2.22.66-.5,1.64-.75,2.95-.75h2.02v-.14c0-.66-.22-1.17-.65-1.53s-1.05-.54-1.83-.54c-.5,0-.99.06-1.46.18-.47.12-.93.3-1.36.54v-1.33c.52-.2,1.03-.35,1.53-.45.49-.1.98-.15,1.44-.15,1.27,0,2.21.33,2.84.98.62.65.94,1.65.94,2.98Z"/>
          <path id="DejaVuSans-69" d="M170.16,13.57h1.44v8.75h-1.44v-8.75ZM170.16,10.16h1.44v1.82h-1.44v-1.82Z"/>
          <path id="DejaVuSans-6e" d="M181.88,17.04v5.28h-1.44v-5.23c0-.83-.16-1.45-.48-1.86-.32-.41-.81-.62-1.45-.62-.78,0-1.39.25-1.84.74-.45.49-.67,1.17-.67,2.02v4.94h-1.44v-8.75h1.44v1.36c.34-.53.75-.92,1.21-1.18.47-.26,1-.39,1.61-.39,1,0,1.76.31,2.28.93.52.62.77,1.54.77,2.74Z"/>
          <path id="DejaVuSans-65" d="M192.23,17.58v.7h-6.61c.06.99.36,1.74.89,2.26.53.52,1.28.78,2.23.78.55,0,1.09-.07,1.6-.2s1.03-.34,1.54-.61v1.36c-.52.22-1.05.38-1.59.5s-1.09.17-1.65.17c-1.4,0-2.5-.41-3.32-1.22-.81-.81-1.22-1.91-1.22-3.3s.39-2.57,1.16-3.41c.77-.84,1.82-1.26,3.13-1.26,1.18,0,2.11.38,2.79,1.14.68.76,1.03,1.79,1.03,3.09ZM190.79,17.16c0-.78-.23-1.41-.66-1.88-.43-.47-1-.7-1.71-.7-.8,0-1.44.23-1.92.68s-.76,1.09-.83,1.91h5.12Z"/>
          <path id="DejaVuSans-72" d="M199.66,14.91c-.16-.09-.34-.16-.53-.2-.19-.04-.4-.07-.63-.07-.81,0-1.44.26-1.87.79s-.65,1.29-.65,2.28v4.61h-1.44v-8.75h1.44v1.36c.3-.53.7-.93,1.18-1.18.48-.26,1.07-.39,1.77-.39.1,0,.21,0,.33.02.12.01.25.03.4.06v1.47Z"/>
        </g>
      </g>
    </g>
    <g id="axes_2">
      <g id="LineCollection_3">
        <g class="st46">
          <path class="st26" d="M146.32,406.81l-64.61-3.5"/>
        </g>
        <g class="st23">
          <path class="st26" d="M146.32,406.81l45.49,57.83"/>
        </g>
        <g class="st31">
          <path class="st26" d="M146.32,406.81l25.98-73.82"/>
        </g>
        <g class="st57">
          <path class="st26" d="M81.7,403.31l-36.37-64.27"/>
        </g>
        <g class="st50">
          <path class="st26" d="M81.7,403.31l-47.79,50.55"/>
        </g>
        <g class="st7">
          <path class="st26" d="M191.81,464.64l2.37,78.49"/>
        </g>
        <g class="st52">
          <path class="st26" d="M191.81,464.64l62.28-9.32"/>
        </g>
      </g>
      <g id="LineCollection_4">
        <g class="st9">
          <path class="st27" d="M146.32,406.81l-64.61-3.5"/>
        </g>
        <g class="st1">
          <path class="st27" d="M191.81,464.64l62.28-9.32"/>
        </g>
        <g class="st29">
          <path class="st27" d="M81.7,403.31l-47.79,50.55"/>
        </g>
        <g class="st28">
          <path class="st27" d="M81.7,403.31l-36.37-64.27"/>
        </g>
        <g class="st59">
          <path class="st27" d="M146.32,406.81l45.49,57.83"/>
        </g>
        <g class="st2">
          <path class="st27" d="M191.81,464.64l2.37,78.49"/>
        </g>
      </g>
      <g id="PathCollection_2">
        <g class="st54">
          <path id="C1_0_2debb58d7f" class="st33" d="M146.32,419.56c3.38,0,6.62-1.34,9.01-3.73,2.39-2.39,3.73-5.63,3.73-9.01s-1.34-6.62-3.73-9.01c-2.39-2.39-5.63-3.73-9.01-3.73s-6.62,1.34-9.01,3.73c-2.39,2.39-3.73,5.63-3.73,9.01s1.34,6.62,3.73,9.01c2.39,2.39,5.63,3.73,9.01,3.73Z"/>
        </g>
        <g class="st39">
          <path id="C1_0_2debb58d7f1" data-name="C1_0_2debb58d7f" class="st35" d="M81.7,416.06c3.38,0,6.62-1.34,9.01-3.73,2.39-2.39,3.73-5.63,3.73-9.01s-1.34-6.62-3.73-9.01c-2.39-2.39-5.63-3.73-9.01-3.73s-6.62,1.34-9.01,3.73c-2.39,2.39-3.73,5.63-3.73,9.01s1.34,6.62,3.73,9.01c2.39,2.39,5.63,3.73,9.01,3.73Z"/>
        </g>
        <g class="st44">
          <path id="C1_0_2debb58d7f2" data-name="C1_0_2debb58d7f" class="st35" d="M191.81,477.39c3.38,0,6.62-1.34,9.01-3.73,2.39-2.39,3.73-5.63,3.73-9.01s-1.34-6.62-3.73-9.01c-2.39-2.39-5.63-3.73-9.01-3.73s-6.62,1.34-9.01,3.73c-2.39,2.39-3.73,5.63-3.73,9.01s1.34,6.62,3.73,9.01c2.39,2.39,5.63,3.73,9.01,3.73Z"/>
        </g>
        <g class="st20">
          <path id="C1_0_2debb58d7f3" data-name="C1_0_2debb58d7f" class="st32" d="M172.3,345.73c3.38,0,6.62-1.34,9.01-3.73,2.39-2.39,3.73-5.63,3.73-9.01s-1.34-6.62-3.73-9.01c-2.39-2.39-5.63-3.73-9.01-3.73s-6.62,1.34-9.01,3.73c-2.39,2.39-3.73,5.63-3.73,9.01s1.34,6.62,3.73,9.01c2.39,2.39,5.63,3.73,9.01,3.73Z"/>
        </g>
        <g class="st21">
          <path id="C1_0_2debb58d7f4" data-name="C1_0_2debb58d7f" class="st34" d="M45.33,351.78c3.38,0,6.62-1.34,9.01-3.73,2.39-2.39,3.73-5.63,3.73-9.01s-1.34-6.62-3.73-9.01c-2.39-2.39-5.63-3.73-9.01-3.73s-6.62,1.34-9.01,3.73c-2.39,2.39-3.73,5.63-3.73,9.01s1.34,6.62,3.73,9.01c2.39,2.39,5.63,3.73,9.01,3.73Z"/>
        </g>
        <g class="st63">
          <path id="C1_0_2debb58d7f5" data-name="C1_0_2debb58d7f" class="st34" d="M33.92,466.61c3.38,0,6.62-1.34,9.01-3.73,2.39-2.39,3.73-5.63,3.73-9.01s-1.34-6.62-3.73-9.01c-2.39-2.39-5.63-3.73-9.01-3.73s-6.62,1.34-9.01,3.73c-2.39,2.39-3.73,5.63-3.73,9.01s1.34,6.62,3.73,9.01c2.39,2.39,5.63,3.73,9.01,3.73Z"/>
        </g>
        <g class="st37">
          <path id="C1_0_2debb58d7f6" data-name="C1_0_2debb58d7f" class="st34" d="M194.18,555.88c3.38,0,6.62-1.34,9.01-3.73,2.39-2.39,3.73-5.63,3.73-9.01s-1.34-6.62-3.73-9.01c-2.39-2.39-5.63-3.73-9.01-3.73s-6.62,1.34-9.01,3.73c-2.39,2.39-3.73,5.63-3.73,9.01s1.34,6.62,3.73,9.01c2.39,2.39,5.63,3.73,9.01,3.73Z"/>
        </g>
        <g class="st38">
          <path id="C1_0_2debb58d7f7" data-name="C1_0_2debb58d7f" class="st34" d="M254.08,468.07c3.38,0,6.62-1.34,9.01-3.73,2.39-2.39,3.73-5.63,3.73-9.01s-1.34-6.62-3.73-9.01c-2.39-2.39-5.63-3.73-9.01-3.73s-6.62,1.34-9.01,3.73c-2.39,2.39-3.73,5.63-3.73,9.01s1.34,6.62,3.73,9.01c2.39,2.39,5.63,3.73,9.01,3.73Z"/>
        </g>
      </g>
      <g id="text_17">
        <g class="st11">
          <path id="DejaVuSans-431" data-name="DejaVuSans-43" d="M150.45,401.25v1.45c-.47-.43-.96-.76-1.49-.97-.53-.21-1.09-.32-1.68-.32-1.17,0-2.06.36-2.68,1.07s-.93,1.74-.93,3.09.31,2.37.93,3.09,1.51,1.07,2.68,1.07c.59,0,1.15-.11,1.68-.32s1.02-.54,1.49-.97v1.44c-.48.33-.99.57-1.54.74-.54.16-1.11.25-1.71.25-1.55,0-2.76-.47-3.65-1.42-.89-.95-1.33-2.24-1.33-3.87s.44-2.93,1.33-3.88c.89-.95,2.11-1.42,3.65-1.42.61,0,1.18.08,1.72.24.54.16,1.05.4,1.52.73Z"/>
        </g>
      </g>
      <g id="text_18">
        <g class="st30">
          <path id="DejaVuSans-4e4" data-name="DejaVuSans-4e" d="M77.84,396.97h1.86l4.53,8.54v-8.54h1.34v10.21h-1.86l-4.52-8.54v8.54h-1.34v-10.21Z"/>
        </g>
      </g>
      <g id="text_19">
        <g class="st58">
          <path id="DejaVuSans-4e5" data-name="DejaVuSans-4e" d="M187.94,458.3h1.86l4.53,8.54v-8.54h1.34v10.21h-1.86l-4.52-8.54v8.54h-1.34v-10.21Z"/>
        </g>
      </g>
      <g id="text_20">
        <g class="st48">
          <path id="DejaVuSans-531" data-name="DejaVuSans-53" d="M175.35,326.98v1.35c-.52-.25-1.02-.44-1.48-.56-.47-.12-.91-.19-1.35-.19-.75,0-1.33.15-1.74.44-.41.29-.61.71-.61,1.24,0,.45.14.79.41,1.02.27.23.79.41,1.54.56l.83.17c1.03.2,1.79.54,2.28,1.04s.74,1.16.74,1.98c0,.99-.33,1.74-1,2.25-.66.51-1.63.77-2.91.77-.48,0-1-.05-1.54-.16-.54-.11-1.11-.27-1.69-.49v-1.42c.56.31,1.11.55,1.65.71.54.16,1.07.24,1.59.24.79,0,1.4-.15,1.82-.46.43-.31.64-.75.64-1.33,0-.5-.15-.89-.46-1.17s-.81-.5-1.51-.64l-.84-.16c-1.03-.2-1.77-.53-2.24-.96-.46-.44-.69-1.05-.69-1.83,0-.9.32-1.61.95-2.13.64-.52,1.51-.78,2.63-.78.48,0,.97.04,1.46.13.5.09,1.01.22,1.52.39Z"/>
        </g>
      </g>
      <g id="text_21">
        <g class="st0">
          <path id="DejaVuSans-484" data-name="DejaVuSans-48" d="M41.44,332.69h1.38v4.18h5.02v-4.18h1.38v10.21h-1.38v-4.86h-5.02v4.86h-1.38v-10.21Z"/>
        </g>
      </g>
      <g id="text_22">
        <g class="st43">
          <path id="DejaVuSans-485" data-name="DejaVuSans-48" d="M30.03,447.52h1.38v4.18h5.02v-4.18h1.38v10.21h-1.38v-4.86h-5.02v4.86h-1.38v-10.21Z"/>
        </g>
      </g>
      <g id="text_23">
        <g class="st53">
          <path id="DejaVuSans-486" data-name="DejaVuSans-48" d="M190.29,536.79h1.38v4.18h5.02v-4.18h1.38v10.21h-1.38v-4.86h-5.02v4.86h-1.38v-10.21Z"/>
        </g>
      </g>
      <g id="text_24">
        <g class="st17">
          <path id="DejaVuSans-487" data-name="DejaVuSans-48" d="M250.19,448.98h1.38v4.18h5.02v-4.18h1.38v10.21h-1.38v-4.86h-5.02v4.86h-1.38v-10.21Z"/>
        </g>
      </g>
      <g id="text_25">
        <g>
          <path id="DejaVuSans-471" data-name="DejaVuSans-47" d="M101.29,303.26v-3.13h-2.58v-1.3h4.14v5.01c-.61.43-1.28.76-2.01.98-.73.22-1.52.33-2.35.33-1.82,0-3.25-.53-4.28-1.6-1.03-1.07-1.54-2.55-1.54-4.45s.51-3.39,1.54-4.46c1.03-1.06,2.46-1.6,4.28-1.6.76,0,1.48.09,2.17.28.68.19,1.32.46,1.89.83v1.68c-.58-.49-1.2-.87-1.86-1.12s-1.35-.37-2.07-.37c-1.43,0-2.5.4-3.22,1.19-.71.8-1.07,1.98-1.07,3.56s.36,2.76,1.07,3.55c.72.8,1.79,1.19,3.22,1.19.56,0,1.05-.05,1.49-.14.44-.1.83-.25,1.18-.45Z"/>
          <path id="DejaVuSans-721" data-name="DejaVuSans-72" d="M110.74,297.51c-.16-.09-.34-.16-.53-.2-.19-.04-.4-.07-.63-.07-.81,0-1.44.26-1.87.79s-.65,1.29-.65,2.28v4.61h-1.44v-8.75h1.44v1.36c.3-.53.7-.93,1.18-1.18.48-.26,1.07-.39,1.77-.39.1,0,.21,0,.33.02.12.01.25.03.4.06v1.47Z"/>
          <path id="DejaVuSans-6f" d="M115.28,297.18c-.77,0-1.38.3-1.83.9s-.67,1.43-.67,2.47.22,1.87.67,2.47c.45.6,1.06.9,1.83.9s1.37-.3,1.82-.9c.45-.6.67-1.43.67-2.47s-.22-1.86-.67-2.46c-.45-.61-1.05-.91-1.82-.91ZM115.28,295.96c1.25,0,2.23.41,2.94,1.22.71.81,1.07,1.94,1.07,3.37s-.36,2.56-1.07,3.37c-.71.81-1.69,1.22-2.94,1.22s-2.24-.41-2.95-1.22c-.71-.82-1.06-1.94-1.06-3.37s.35-2.56,1.06-3.37c.71-.81,1.69-1.22,2.95-1.22Z"/>
          <path id="DejaVuSans-75" d="M121.53,301.47v-5.3h1.44v5.24c0,.83.16,1.45.48,1.86.32.41.81.62,1.45.62.77,0,1.39-.25,1.84-.74.45-.49.68-1.17.68-2.02v-4.96h1.44v8.75h-1.44v-1.34c-.35.53-.75.93-1.21,1.18-.46.26-.99.39-1.6.39-1,0-1.77-.31-2.29-.94-.52-.62-.78-1.54-.78-2.74ZM125.15,295.96h0Z"/>
          <path id="DejaVuSans-6e1" data-name="DejaVuSans-6e" d="M139.09,299.64v5.28h-1.44v-5.23c0-.83-.16-1.45-.48-1.86-.32-.41-.81-.62-1.45-.62-.78,0-1.39.25-1.84.74-.45.49-.67,1.17-.67,2.02v4.94h-1.44v-8.75h1.44v1.36c.34-.53.75-.92,1.21-1.18.47-.26,1-.39,1.61-.39,1,0,1.76.31,2.28.93.52.62.77,1.54.77,2.74Z"/>
          <path id="DejaVuSans-64" d="M147.72,297.5v-4.73h1.44v12.16h-1.44v-1.31c-.3.52-.68.91-1.14,1.16-.46.25-1.01.38-1.66.38-1.06,0-1.92-.42-2.58-1.26-.66-.84-.99-1.95-.99-3.33s.33-2.48.99-3.33c.66-.84,1.53-1.26,2.58-1.26.65,0,1.2.13,1.66.38.46.25.84.64,1.14,1.16ZM142.82,300.55c0,1.06.22,1.89.65,2.49.43.6,1.03.9,1.79.9s1.36-.3,1.79-.9c.44-.6.66-1.43.66-2.49s-.22-1.89-.66-2.49c-.44-.6-1.03-.9-1.79-.9s-1.36.3-1.79.9-.65,1.43-.65,2.49Z"/>
          <path id="DejaVuSans-20" d="M150.61,304.92"/>
          <path id="DejaVuSans-54" d="M155.65,293.26h9.87v1.33h-4.14v10.33h-1.58v-10.33h-4.14v-1.33Z"/>
          <path id="DejaVuSans-722" data-name="DejaVuSans-72" d="M169.68,297.51c-.16-.09-.34-.16-.53-.2-.19-.04-.4-.07-.63-.07-.81,0-1.44.26-1.87.79s-.65,1.29-.65,2.28v4.61h-1.44v-8.75h1.44v1.36c.3-.53.7-.93,1.18-1.18.48-.26,1.07-.39,1.77-.39.1,0,.21,0,.33.02.12.01.25.03.4.06v1.47Z"/>
          <path id="DejaVuSans-751" data-name="DejaVuSans-75" d="M171.05,301.47v-5.3h1.44v5.24c0,.83.16,1.45.48,1.86.32.41.81.62,1.45.62.77,0,1.39-.25,1.84-.74.45-.49.68-1.17.68-2.02v-4.96h1.44v8.75h-1.44v-1.34c-.35.53-.75.93-1.21,1.18-.46.26-.99.39-1.6.39-1,0-1.77-.31-2.29-.94-.52-.62-.78-1.54-.78-2.74ZM174.66,295.96h0Z"/>
          <path id="DejaVuSans-74" d="M182.76,293.69v2.48h2.96v1.12h-2.96v4.75c0,.71.1,1.17.29,1.37s.59.3,1.19.3h1.47v1.2h-1.47c-1.11,0-1.88-.21-2.3-.62-.42-.41-.63-1.17-.63-2.26v-4.75h-1.05v-1.12h1.05v-2.48h1.44Z"/>
          <path id="DejaVuSans-68" d="M194.88,299.64v5.28h-1.44v-5.23c0-.83-.16-1.45-.48-1.86-.32-.41-.81-.62-1.45-.62-.78,0-1.39.25-1.84.74-.45.49-.67,1.17-.67,2.02v4.94h-1.44v-12.16h1.44v4.77c.34-.53.75-.92,1.21-1.18.47-.26,1-.39,1.61-.39,1,0,1.76.31,2.28.93.52.62.77,1.54.77,2.74Z"/>
        </g>
      </g>
    </g>
  </g>
</svg>