<?xml version="1.0" encoding="utf-8" standalone="no"?>
<!DOCTYPE svg PUBLIC "-//W3C//DTD SVG 1.1//EN"
  "http://www.w3.org/Graphics/SVG/1.1/DTD/svg11.dtd">
<svg xmlns:xlink="http://www.w3.org/1999/xlink" width="576pt" height="1152pt" viewBox="0 0 576 1152" xmlns="http://www.w3.org/2000/svg" version="1.1">
 <metadata>
  <rdf:RDF xmlns:dc="http://purl.org/dc/elements/1.1/" xmlns:cc="http://creativecommons.org/ns#" xmlns:rdf="http://www.w3.org/1999/02/22-rdf-syntax-ns#">
   <cc:Work>
    <dc:type rdf:resource="http://purl.org/dc/dcmitype/StillImage"/>
    <dc:date>2025-10-19T12:13:50.002361</dc:date>
    <dc:format>image/svg+xml</dc:format>
    <dc:creator>
     <cc:Agent>
      <dc:title>Matplotlib v3.10.1, https://matplotlib.org/</dc:title>
     </cc:Agent>
    </dc:creator>
   </cc:Work>
  </rdf:RDF>
 </metadata>
 <defs>
  <style type="text/css">*{stroke-linejoin: round; stroke-linecap: butt}</style>
 </defs>
 <g id="figure_1">
  <g id="patch_1">
   <path d="M 0 1152 
L 576 1152 
L 576 0 
L 0 0 
z
" style="fill: #ffffff"/>
  </g>
  <g id="axes_1">
   <g id="LineCollection_1">
    <path d="M 287.988063 284.352392 
L 313.901597 356.067045 
" clip-path="url(#p35e572a2ed)" style="fill: none; stroke: #7f7f7f; stroke-width: 5"/>
    <path d="M 287.988063 284.352392 
L 219.954561 261.300648 
" clip-path="url(#p35e572a2ed)" style="fill: none; stroke: #7f7f7f; stroke-width: 5"/>
    <path d="M 287.988063 284.352392 
L 308.641713 162.885441 
" clip-path="url(#p35e572a2ed)" style="fill: none; stroke: #7f7f7f; stroke-width: 5"/>
    <path d="M 287.988063 284.352392 
L 326.466705 229.755169 
" clip-path="url(#p35e572a2ed)" style="fill: none; stroke: #7f7f7f; stroke-width: 5"/>
    <path d="M 287.988063 284.352392 
L 288.956728 407.949314 
" clip-path="url(#p35e572a2ed)" style="fill: none; stroke: #7f7f7f; stroke-width: 5"/>
    <path d="M 287.988063 284.352392 
L 355.115582 303.386241 
" clip-path="url(#p35e572a2ed)" style="fill: none; stroke: #7f7f7f; stroke-width: 5"/>
    <path d="M 287.988063 284.352392 
L 277.344856 203.610982 
" clip-path="url(#p35e572a2ed)" style="fill: none; stroke: #7f7f7f; stroke-width: 5"/>
    <path d="M 287.988063 284.352392 
L 260.191187 355.297459 
" clip-path="url(#p35e572a2ed)" style="fill: none; stroke: #7f7f7f; stroke-width: 5"/>
    <path d="M 219.954561 261.300648 
L 157.966055 301.47981 
" clip-path="url(#p35e572a2ed)" style="fill: none; stroke: #7f7f7f; stroke-width: 5"/>
    <path d="M 219.954561 261.300648 
L 215.086967 142.007689 
" clip-path="url(#p35e572a2ed)" style="fill: none; stroke: #7f7f7f; stroke-width: 5"/>
    <path d="M 219.954561 261.300648 
L 189.407235 184.740017 
" clip-path="url(#p35e572a2ed)" style="fill: none; stroke: #7f7f7f; stroke-width: 5"/>
    <path d="M 157.966055 301.47981 
L 117.689462 387.962453 
" clip-path="url(#p35e572a2ed)" style="fill: none; stroke: #7f7f7f; stroke-width: 5"/>
    <path d="M 157.966055 301.47981 
L 113.080412 218.053453 
" clip-path="url(#p35e572a2ed)" style="fill: none; stroke: #7f7f7f; stroke-width: 5"/>
    <path d="M 308.641713 162.885441 
L 323.092796 58.617521 
" clip-path="url(#p35e572a2ed)" style="fill: none; stroke: #7f7f7f; stroke-width: 5"/>
    <path d="M 117.689462 387.962453 
L 58.909091 360.418436 
" clip-path="url(#p35e572a2ed)" style="fill: none; stroke: #7f7f7f; stroke-width: 5"/>
    <path d="M 117.689462 387.962453 
L 73.945963 454.365607 
" clip-path="url(#p35e572a2ed)" style="fill: none; stroke: #7f7f7f; stroke-width: 5"/>
    <path d="M 117.689462 387.962453 
L 119.206718 496.962539 
" clip-path="url(#p35e572a2ed)" style="fill: none; stroke: #7f7f7f; stroke-width: 5"/>
    <path d="M 113.080412 218.053453 
L 72.298444 141.830384 
" clip-path="url(#p35e572a2ed)" style="fill: none; stroke: #7f7f7f; stroke-width: 5"/>
    <path d="M 288.956728 407.949314 
L 295.602037 514.022479 
" clip-path="url(#p35e572a2ed)" style="fill: none; stroke: #7f7f7f; stroke-width: 5"/>
    <path d="M 355.115582 303.386241 
L 414.375365 319.21181 
" clip-path="url(#p35e572a2ed)" style="fill: none; stroke: #7f7f7f; stroke-width: 5"/>
    <path d="M 414.375365 319.21181 
L 451.979545 402.718045 
" clip-path="url(#p35e572a2ed)" style="fill: none; stroke: #7f7f7f; stroke-width: 5"/>
    <path d="M 414.375365 319.21181 
L 463.521965 257.803829 
" clip-path="url(#p35e572a2ed)" style="fill: none; stroke: #7f7f7f; stroke-width: 5"/>
    <path d="M 451.979545 402.718045 
L 509.27495 393.99436 
" clip-path="url(#p35e572a2ed)" style="fill: none; stroke: #7f7f7f; stroke-width: 5"/>
    <path d="M 509.27495 393.99436 
L 517.090909 295.090021 
" clip-path="url(#p35e572a2ed)" style="fill: none; stroke: #7f7f7f; stroke-width: 5"/>
    <path d="M 517.090909 295.090021 
L 463.521965 257.803829 
" clip-path="url(#p35e572a2ed)" style="fill: none; stroke: #7f7f7f; stroke-width: 5"/>
   </g>
   <g id="LineCollection_2">
    <path d="M 287.988063 284.352392 
L 313.901597 356.067045 
" clip-path="url(#p35e572a2ed)" style="fill: none; stroke: #f9373a; stroke-width: 9"/>
    <path d="M 287.988063 284.352392 
L 219.954561 261.300648 
" clip-path="url(#p35e572a2ed)" style="fill: none; stroke: #f9373a; stroke-width: 9"/>
    <path d="M 287.988063 284.352392 
L 308.641713 162.885441 
" clip-path="url(#p35e572a2ed)" style="fill: none; stroke: #f9373a; stroke-width: 9"/>
    <path d="M 287.988063 284.352392 
L 288.956728 407.949314 
" clip-path="url(#p35e572a2ed)" style="fill: none; stroke: #f9373a; stroke-width: 9"/>
    <path d="M 287.988063 284.352392 
L 277.344856 203.610982 
" clip-path="url(#p35e572a2ed)" style="fill: none; stroke: #f9373a; stroke-width: 9"/>
    <path d="M 287.988063 284.352392 
L 260.191187 355.297459 
" clip-path="url(#p35e572a2ed)" style="fill: none; stroke: #f9373a; stroke-width: 9"/>
    <path d="M 219.954561 261.300648 
L 157.966055 301.47981 
" clip-path="url(#p35e572a2ed)" style="fill: none; stroke: #f9373a; stroke-width: 9"/>
    <path d="M 157.966055 301.47981 
L 117.689462 387.962453 
" clip-path="url(#p35e572a2ed)" style="fill: none; stroke: #f9373a; stroke-width: 9"/>
    <path d="M 308.641713 162.885441 
L 323.092796 58.617521 
" clip-path="url(#p35e572a2ed)" style="fill: none; stroke: #f9373a; stroke-width: 9"/>
    <path d="M 117.689462 387.962453 
L 119.206718 496.962539 
" clip-path="url(#p35e572a2ed)" style="fill: none; stroke: #f9373a; stroke-width: 9"/>
   </g>
   <g id="PathCollection_1">
    <defs>
     <path id="C0_0_07a6f37bcf" d="M 0 12.247449 
C 3.248061 12.247449 6.363528 10.95698 8.660254 8.660254 
C 10.95698 6.363528 12.247449 3.248061 12.247449 -0 
C 12.247449 -3.248061 10.95698 -6.363528 8.660254 -8.660254 
C 6.363528 -10.95698 3.248061 -12.247449 0 -12.247449 
C -3.248061 -12.247449 -6.363528 -10.95698 -8.660254 -8.660254 
C -10.95698 -6.363528 -12.247449 -3.248061 -12.247449 0 
C -12.247449 3.248061 -10.95698 6.363528 -8.660254 8.660254 
C -6.363528 10.95698 -3.248061 12.247449 0 12.247449 
z
"/>
    </defs>
    <g clip-path="url(#p35e572a2ed)">
     <use xlink:href="#C0_0_07a6f37bcf" x="287.988063" y="284.352392" style="fill: #ffffff; stroke: #4e79a7; stroke-width: 2"/>
    </g>
    <g clip-path="url(#p35e572a2ed)">
     <use xlink:href="#C0_0_07a6f37bcf" x="313.901597" y="356.067045" style="fill: #ffffff; stroke: #4e79a7; stroke-width: 2"/>
    </g>
    <g clip-path="url(#p35e572a2ed)">
     <use xlink:href="#C0_0_07a6f37bcf" x="219.954561" y="261.300648" style="fill: #ffffff; stroke: #4e79a7; stroke-width: 2"/>
    </g>
    <g clip-path="url(#p35e572a2ed)">
     <use xlink:href="#C0_0_07a6f37bcf" x="157.966055" y="301.47981" style="fill: #ffffff; stroke: #4e79a7; stroke-width: 2"/>
    </g>
    <g clip-path="url(#p35e572a2ed)">
     <use xlink:href="#C0_0_07a6f37bcf" x="308.641713" y="162.885441" style="fill: #ffffff; stroke: #4e79a7; stroke-width: 2"/>
    </g>
    <g clip-path="url(#p35e572a2ed)">
     <use xlink:href="#C0_0_07a6f37bcf" x="117.689462" y="387.962453" style="fill: #ffffff; stroke: #4e79a7; stroke-width: 2"/>
    </g>
    <g clip-path="url(#p35e572a2ed)">
     <use xlink:href="#C0_0_07a6f37bcf" x="113.080412" y="218.053453" style="fill: #ffffff; stroke: #4e79a7; stroke-width: 2"/>
    </g>
    <g clip-path="url(#p35e572a2ed)">
     <use xlink:href="#C0_0_07a6f37bcf" x="326.466705" y="229.755169" style="fill: #ffffff; stroke: #4e79a7; stroke-width: 2"/>
    </g>
    <g clip-path="url(#p35e572a2ed)">
     <use xlink:href="#C0_0_07a6f37bcf" x="215.086967" y="142.007689" style="fill: #ffffff; stroke: #4e79a7; stroke-width: 2"/>
    </g>
    <g clip-path="url(#p35e572a2ed)">
     <use xlink:href="#C0_0_07a6f37bcf" x="288.956728" y="407.949314" style="fill: #ffffff; stroke: #4e79a7; stroke-width: 2"/>
    </g>
    <g clip-path="url(#p35e572a2ed)">
     <use xlink:href="#C0_0_07a6f37bcf" x="355.115582" y="303.386241" style="fill: #ffffff; stroke: #4e79a7; stroke-width: 2"/>
    </g>
    <g clip-path="url(#p35e572a2ed)">
     <use xlink:href="#C0_0_07a6f37bcf" x="277.344856" y="203.610982" style="fill: #ffffff; stroke: #4e79a7; stroke-width: 2"/>
    </g>
    <g clip-path="url(#p35e572a2ed)">
     <use xlink:href="#C0_0_07a6f37bcf" x="72.298444" y="141.830384" style="fill: #ffffff; stroke: #4e79a7; stroke-width: 2"/>
    </g>
    <g clip-path="url(#p35e572a2ed)">
     <use xlink:href="#C0_0_07a6f37bcf" x="323.092796" y="58.617521" style="fill: #ffffff; stroke: #4e79a7; stroke-width: 2"/>
    </g>
    <g clip-path="url(#p35e572a2ed)">
     <use xlink:href="#C0_0_07a6f37bcf" x="260.191187" y="355.297459" style="fill: #ffffff; stroke: #4e79a7; stroke-width: 2"/>
    </g>
    <g clip-path="url(#p35e572a2ed)">
     <use xlink:href="#C0_0_07a6f37bcf" x="189.407235" y="184.740017" style="fill: #ffffff; stroke: #4e79a7; stroke-width: 2"/>
    </g>
    <g clip-path="url(#p35e572a2ed)">
     <use xlink:href="#C0_0_07a6f37bcf" x="58.909091" y="360.418436" style="fill: #ffffff; stroke: #4e79a7; stroke-width: 2"/>
    </g>
    <g clip-path="url(#p35e572a2ed)">
     <use xlink:href="#C0_0_07a6f37bcf" x="73.945963" y="454.365607" style="fill: #ffffff; stroke: #4e79a7; stroke-width: 2"/>
    </g>
    <g clip-path="url(#p35e572a2ed)">
     <use xlink:href="#C0_0_07a6f37bcf" x="295.602037" y="514.022479" style="fill: #ffffff; stroke: #4e79a7; stroke-width: 2"/>
    </g>
    <g clip-path="url(#p35e572a2ed)">
     <use xlink:href="#C0_0_07a6f37bcf" x="119.206718" y="496.962539" style="fill: #ffffff; stroke: #4e79a7; stroke-width: 2"/>
    </g>
    <g clip-path="url(#p35e572a2ed)">
     <use xlink:href="#C0_0_07a6f37bcf" x="414.375365" y="319.21181" style="fill: #ffffff; stroke: #4e79a7; stroke-width: 2"/>
    </g>
    <g clip-path="url(#p35e572a2ed)">
     <use xlink:href="#C0_0_07a6f37bcf" x="451.979545" y="402.718045" style="fill: #ffffff; stroke: #4e79a7; stroke-width: 2"/>
    </g>
    <g clip-path="url(#p35e572a2ed)">
     <use xlink:href="#C0_0_07a6f37bcf" x="509.27495" y="393.99436" style="fill: #ffffff; stroke: #4e79a7; stroke-width: 2"/>
    </g>
    <g clip-path="url(#p35e572a2ed)">
     <use xlink:href="#C0_0_07a6f37bcf" x="517.090909" y="295.090021" style="fill: #ffffff; stroke: #4e79a7; stroke-width: 2"/>
    </g>
    <g clip-path="url(#p35e572a2ed)">
     <use xlink:href="#C0_0_07a6f37bcf" x="463.521965" y="257.803829" style="fill: #ffffff; stroke: #4e79a7; stroke-width: 2"/>
    </g>
   </g>
  </g>
  <g id="axes_2">
   <g id="LineCollection_3">
    <path d="M 287.988063 863.712392 
L 313.901597 935.427045 
" clip-path="url(#p6444aa6484)" style="fill: none; stroke: #7f7f7f; stroke-width: 5"/>
    <path d="M 287.988063 863.712392 
L 219.954561 840.660648 
" clip-path="url(#p6444aa6484)" style="fill: none; stroke: #7f7f7f; stroke-width: 5"/>
    <path d="M 287.988063 863.712392 
L 308.641713 742.245441 
" clip-path="url(#p6444aa6484)" style="fill: none; stroke: #7f7f7f; stroke-width: 5"/>
    <path d="M 287.988063 863.712392 
L 326.466705 809.115169 
" clip-path="url(#p6444aa6484)" style="fill: none; stroke: #7f7f7f; stroke-width: 5"/>
    <path d="M 287.988063 863.712392 
L 288.956728 987.309314 
" clip-path="url(#p6444aa6484)" style="fill: none; stroke: #7f7f7f; stroke-width: 5"/>
    <path d="M 287.988063 863.712392 
L 355.115582 882.746241 
" clip-path="url(#p6444aa6484)" style="fill: none; stroke: #7f7f7f; stroke-width: 5"/>
    <path d="M 287.988063 863.712392 
L 277.344856 782.970982 
" clip-path="url(#p6444aa6484)" style="fill: none; stroke: #7f7f7f; stroke-width: 5"/>
    <path d="M 287.988063 863.712392 
L 260.191187 934.657459 
" clip-path="url(#p6444aa6484)" style="fill: none; stroke: #7f7f7f; stroke-width: 5"/>
    <path d="M 219.954561 840.660648 
L 157.966055 880.83981 
" clip-path="url(#p6444aa6484)" style="fill: none; stroke: #7f7f7f; stroke-width: 5"/>
    <path d="M 219.954561 840.660648 
L 215.086967 721.367689 
" clip-path="url(#p6444aa6484)" style="fill: none; stroke: #7f7f7f; stroke-width: 5"/>
    <path d="M 219.954561 840.660648 
L 189.407235 764.100017 
" clip-path="url(#p6444aa6484)" style="fill: none; stroke: #7f7f7f; stroke-width: 5"/>
    <path d="M 157.966055 880.83981 
L 117.689462 967.322453 
" clip-path="url(#p6444aa6484)" style="fill: none; stroke: #7f7f7f; stroke-width: 5"/>
    <path d="M 157.966055 880.83981 
L 113.080412 797.413453 
" clip-path="url(#p6444aa6484)" style="fill: none; stroke: #7f7f7f; stroke-width: 5"/>
    <path d="M 308.641713 742.245441 
L 323.092796 637.977521 
" clip-path="url(#p6444aa6484)" style="fill: none; stroke: #7f7f7f; stroke-width: 5"/>
    <path d="M 117.689462 967.322453 
L 58.909091 939.778436 
" clip-path="url(#p6444aa6484)" style="fill: none; stroke: #7f7f7f; stroke-width: 5"/>
    <path d="M 117.689462 967.322453 
L 73.945963 1033.725607 
" clip-path="url(#p6444aa6484)" style="fill: none; stroke: #7f7f7f; stroke-width: 5"/>
    <path d="M 117.689462 967.322453 
L 119.206718 1076.322539 
" clip-path="url(#p6444aa6484)" style="fill: none; stroke: #7f7f7f; stroke-width: 5"/>
    <path d="M 113.080412 797.413453 
L 72.298444 721.190384 
" clip-path="url(#p6444aa6484)" style="fill: none; stroke: #7f7f7f; stroke-width: 5"/>
    <path d="M 288.956728 987.309314 
L 295.602037 1093.382479 
" clip-path="url(#p6444aa6484)" style="fill: none; stroke: #7f7f7f; stroke-width: 5"/>
    <path d="M 355.115582 882.746241 
L 414.375365 898.57181 
" clip-path="url(#p6444aa6484)" style="fill: none; stroke: #7f7f7f; stroke-width: 5"/>
    <path d="M 414.375365 898.57181 
L 451.979545 982.078045 
" clip-path="url(#p6444aa6484)" style="fill: none; stroke: #7f7f7f; stroke-width: 5"/>
    <path d="M 414.375365 898.57181 
L 463.521965 837.163829 
" clip-path="url(#p6444aa6484)" style="fill: none; stroke: #7f7f7f; stroke-width: 5"/>
    <path d="M 451.979545 982.078045 
L 509.27495 973.35436 
" clip-path="url(#p6444aa6484)" style="fill: none; stroke: #7f7f7f; stroke-width: 5"/>
    <path d="M 509.27495 973.35436 
L 517.090909 874.450021 
" clip-path="url(#p6444aa6484)" style="fill: none; stroke: #7f7f7f; stroke-width: 5"/>
    <path d="M 517.090909 874.450021 
L 463.521965 837.163829 
" clip-path="url(#p6444aa6484)" style="fill: none; stroke: #7f7f7f; stroke-width: 5"/>
   </g>
   <g id="LineCollection_4">
    <path d="M 414.375365 898.57181 
L 463.521965 837.163829 
" clip-path="url(#p6444aa6484)" style="fill: none; stroke: #f9373a; stroke-width: 9"/>
    <path d="M 451.979545 982.078045 
L 509.27495 973.35436 
" clip-path="url(#p6444aa6484)" style="fill: none; stroke: #f9373a; stroke-width: 9"/>
    <path d="M 509.27495 973.35436 
L 517.090909 874.450021 
" clip-path="url(#p6444aa6484)" style="fill: none; stroke: #f9373a; stroke-width: 9"/>
    <path d="M 517.090909 874.450021 
L 463.521965 837.163829 
" clip-path="url(#p6444aa6484)" style="fill: none; stroke: #f9373a; stroke-width: 9"/>
    <path d="M 414.375365 898.57181 
L 451.979545 982.078045 
" clip-path="url(#p6444aa6484)" style="fill: none; stroke: #f9373a; stroke-width: 9"/>
   </g>
   <g id="PathCollection_2">
    <defs>
     <path id="C1_0_80067e6a01" d="M 0 12.247449 
C 3.248061 12.247449 6.363528 10.95698 8.660254 8.660254 
C 10.95698 6.363528 12.247449 3.248061 12.247449 -0 
C 12.247449 -3.248061 10.95698 -6.363528 8.660254 -8.660254 
C 6.363528 -10.95698 3.248061 -12.247449 0 -12.247449 
C -3.248061 -12.247449 -6.363528 -10.95698 -8.660254 -8.660254 
C -10.95698 -6.363528 -12.247449 -3.248061 -12.247449 0 
C -12.247449 3.248061 -10.95698 6.363528 -8.660254 8.660254 
C -6.363528 10.95698 -3.248061 12.247449 0 12.247449 
z
"/>
    </defs>
    <g clip-path="url(#p6444aa6484)">
     <use xlink:href="#C1_0_80067e6a01" x="287.988063" y="863.712392" style="fill: #ffffff; stroke: #4e79a7; stroke-width: 2"/>
    </g>
    <g clip-path="url(#p6444aa6484)">
     <use xlink:href="#C1_0_80067e6a01" x="313.901597" y="935.427045" style="fill: #ffffff; stroke: #4e79a7; stroke-width: 2"/>
    </g>
    <g clip-path="url(#p6444aa6484)">
     <use xlink:href="#C1_0_80067e6a01" x="219.954561" y="840.660648" style="fill: #ffffff; stroke: #4e79a7; stroke-width: 2"/>
    </g>
    <g clip-path="url(#p6444aa6484)">
     <use xlink:href="#C1_0_80067e6a01" x="157.966055" y="880.83981" style="fill: #ffffff; stroke: #4e79a7; stroke-width: 2"/>
    </g>
    <g clip-path="url(#p6444aa6484)">
     <use xlink:href="#C1_0_80067e6a01" x="308.641713" y="742.245441" style="fill: #ffffff; stroke: #4e79a7; stroke-width: 2"/>
    </g>
    <g clip-path="url(#p6444aa6484)">
     <use xlink:href="#C1_0_80067e6a01" x="117.689462" y="967.322453" style="fill: #ffffff; stroke: #4e79a7; stroke-width: 2"/>
    </g>
    <g clip-path="url(#p6444aa6484)">
     <use xlink:href="#C1_0_80067e6a01" x="113.080412" y="797.413453" style="fill: #ffffff; stroke: #4e79a7; stroke-width: 2"/>
    </g>
    <g clip-path="url(#p6444aa6484)">
     <use xlink:href="#C1_0_80067e6a01" x="326.466705" y="809.115169" style="fill: #ffffff; stroke: #4e79a7; stroke-width: 2"/>
    </g>
    <g clip-path="url(#p6444aa6484)">
     <use xlink:href="#C1_0_80067e6a01" x="215.086967" y="721.367689" style="fill: #ffffff; stroke: #4e79a7; stroke-width: 2"/>
    </g>
    <g clip-path="url(#p6444aa6484)">
     <use xlink:href="#C1_0_80067e6a01" x="288.956728" y="987.309314" style="fill: #ffffff; stroke: #4e79a7; stroke-width: 2"/>
    </g>
    <g clip-path="url(#p6444aa6484)">
     <use xlink:href="#C1_0_80067e6a01" x="355.115582" y="882.746241" style="fill: #ffffff; stroke: #4e79a7; stroke-width: 2"/>
    </g>
    <g clip-path="url(#p6444aa6484)">
     <use xlink:href="#C1_0_80067e6a01" x="277.344856" y="782.970982" style="fill: #ffffff; stroke: #4e79a7; stroke-width: 2"/>
    </g>
    <g clip-path="url(#p6444aa6484)">
     <use xlink:href="#C1_0_80067e6a01" x="72.298444" y="721.190384" style="fill: #ffffff; stroke: #4e79a7; stroke-width: 2"/>
    </g>
    <g clip-path="url(#p6444aa6484)">
     <use xlink:href="#C1_0_80067e6a01" x="323.092796" y="637.977521" style="fill: #ffffff; stroke: #4e79a7; stroke-width: 2"/>
    </g>
    <g clip-path="url(#p6444aa6484)">
     <use xlink:href="#C1_0_80067e6a01" x="260.191187" y="934.657459" style="fill: #ffffff; stroke: #4e79a7; stroke-width: 2"/>
    </g>
    <g clip-path="url(#p6444aa6484)">
     <use xlink:href="#C1_0_80067e6a01" x="189.407235" y="764.100017" style="fill: #ffffff; stroke: #4e79a7; stroke-width: 2"/>
    </g>
    <g clip-path="url(#p6444aa6484)">
     <use xlink:href="#C1_0_80067e6a01" x="58.909091" y="939.778436" style="fill: #ffffff; stroke: #4e79a7; stroke-width: 2"/>
    </g>
    <g clip-path="url(#p6444aa6484)">
     <use xlink:href="#C1_0_80067e6a01" x="73.945963" y="1033.725607" style="fill: #ffffff; stroke: #4e79a7; stroke-width: 2"/>
    </g>
    <g clip-path="url(#p6444aa6484)">
     <use xlink:href="#C1_0_80067e6a01" x="295.602037" y="1093.382479" style="fill: #ffffff; stroke: #4e79a7; stroke-width: 2"/>
    </g>
    <g clip-path="url(#p6444aa6484)">
     <use xlink:href="#C1_0_80067e6a01" x="119.206718" y="1076.322539" style="fill: #ffffff; stroke: #4e79a7; stroke-width: 2"/>
    </g>
    <g clip-path="url(#p6444aa6484)">
     <use xlink:href="#C1_0_80067e6a01" x="414.375365" y="898.57181" style="fill: #ffffff; stroke: #4e79a7; stroke-width: 2"/>
    </g>
    <g clip-path="url(#p6444aa6484)">
     <use xlink:href="#C1_0_80067e6a01" x="451.979545" y="982.078045" style="fill: #ffffff; stroke: #4e79a7; stroke-width: 2"/>
    </g>
    <g clip-path="url(#p6444aa6484)">
     <use xlink:href="#C1_0_80067e6a01" x="509.27495" y="973.35436" style="fill: #ffffff; stroke: #4e79a7; stroke-width: 2"/>
    </g>
    <g clip-path="url(#p6444aa6484)">
     <use xlink:href="#C1_0_80067e6a01" x="517.090909" y="874.450021" style="fill: #ffffff; stroke: #4e79a7; stroke-width: 2"/>
    </g>
    <g clip-path="url(#p6444aa6484)">
     <use xlink:href="#C1_0_80067e6a01" x="463.521965" y="837.163829" style="fill: #ffffff; stroke: #4e79a7; stroke-width: 2"/>
    </g>
   </g>
   <g id="text_1">
    <!-- Ground Truth -->
    <g transform="translate(235.765 584.16) scale(0.16 -0.16)">
     <defs>
      <path id="DejaVuSans-47" d="M 3809 666 
L 3809 1919 
L 2778 1919 
L 2778 2438 
L 4434 2438 
L 4434 434 
Q 4069 175 3628 42 
Q 3188 -91 2688 -91 
Q 1594 -91 976 548 
Q 359 1188 359 2328 
Q 359 3472 976 4111 
Q 1594 4750 2688 4750 
Q 3144 4750 3555 4637 
Q 3966 4525 4313 4306 
L 4313 3634 
Q 3963 3931 3569 4081 
Q 3175 4231 2741 4231 
Q 1884 4231 1454 3753 
Q 1025 3275 1025 2328 
Q 1025 1384 1454 906 
Q 1884 428 2741 428 
Q 3075 428 3337 486 
Q 3600 544 3809 666 
z
" transform="scale(0.015625)"/>
      <path id="DejaVuSans-72" d="M 2631 2963 
Q 2534 3019 2420 3045 
Q 2306 3072 2169 3072 
Q 1681 3072 1420 2755 
Q 1159 2438 1159 1844 
L 1159 0 
L 581 0 
L 581 3500 
L 1159 3500 
L 1159 2956 
Q 1341 3275 1631 3429 
Q 1922 3584 2338 3584 
Q 2397 3584 2469 3576 
Q 2541 3569 2628 3553 
L 2631 2963 
z
" transform="scale(0.015625)"/>
      <path id="DejaVuSans-6f" d="M 1959 3097 
Q 1497 3097 1228 2736 
Q 959 2375 959 1747 
Q 959 1119 1226 758 
Q 1494 397 1959 397 
Q 2419 397 2687 759 
Q 2956 1122 2956 1747 
Q 2956 2369 2687 2733 
Q 2419 3097 1959 3097 
z
M 1959 3584 
Q 2709 3584 3137 3096 
Q 3566 2609 3566 1747 
Q 3566 888 3137 398 
Q 2709 -91 1959 -91 
Q 1206 -91 779 398 
Q 353 888 353 1747 
Q 353 2609 779 3096 
Q 1206 3584 1959 3584 
z
" transform="scale(0.015625)"/>
      <path id="DejaVuSans-75" d="M 544 1381 
L 544 3500 
L 1119 3500 
L 1119 1403 
Q 1119 906 1312 657 
Q 1506 409 1894 409 
Q 2359 409 2629 706 
Q 2900 1003 2900 1516 
L 2900 3500 
L 3475 3500 
L 3475 0 
L 2900 0 
L 2900 538 
Q 2691 219 2414 64 
Q 2138 -91 1772 -91 
Q 1169 -91 856 284 
Q 544 659 544 1381 
z
M 1991 3584 
L 1991 3584 
z
" transform="scale(0.015625)"/>
      <path id="DejaVuSans-6e" d="M 3513 2113 
L 3513 0 
L 2938 0 
L 2938 2094 
Q 2938 2591 2744 2837 
Q 2550 3084 2163 3084 
Q 1697 3084 1428 2787 
Q 1159 2491 1159 1978 
L 1159 0 
L 581 0 
L 581 3500 
L 1159 3500 
L 1159 2956 
Q 1366 3272 1645 3428 
Q 1925 3584 2291 3584 
Q 2894 3584 3203 3211 
Q 3513 2838 3513 2113 
z
" transform="scale(0.015625)"/>
      <path id="DejaVuSans-64" d="M 2906 2969 
L 2906 4863 
L 3481 4863 
L 3481 0 
L 2906 0 
L 2906 525 
Q 2725 213 2448 61 
Q 2172 -91 1784 -91 
Q 1150 -91 751 415 
Q 353 922 353 1747 
Q 353 2572 751 3078 
Q 1150 3584 1784 3584 
Q 2172 3584 2448 3432 
Q 2725 3281 2906 2969 
z
M 947 1747 
Q 947 1113 1208 752 
Q 1469 391 1925 391 
Q 2381 391 2643 752 
Q 2906 1113 2906 1747 
Q 2906 2381 2643 2742 
Q 2381 3103 1925 3103 
Q 1469 3103 1208 2742 
Q 947 2381 947 1747 
z
" transform="scale(0.015625)"/>
      <path id="DejaVuSans-20" transform="scale(0.015625)"/>
      <path id="DejaVuSans-54" d="M -19 4666 
L 3928 4666 
L 3928 4134 
L 2272 4134 
L 2272 0 
L 1638 0 
L 1638 4134 
L -19 4134 
L -19 4666 
z
" transform="scale(0.015625)"/>
      <path id="DejaVuSans-74" d="M 1172 4494 
L 1172 3500 
L 2356 3500 
L 2356 3053 
L 1172 3053 
L 1172 1153 
Q 1172 725 1289 603 
Q 1406 481 1766 481 
L 2356 481 
L 2356 0 
L 1766 0 
Q 1100 0 847 248 
Q 594 497 594 1153 
L 594 3053 
L 172 3053 
L 172 3500 
L 594 3500 
L 594 4494 
L 1172 4494 
z
" transform="scale(0.015625)"/>
      <path id="DejaVuSans-68" d="M 3513 2113 
L 3513 0 
L 2938 0 
L 2938 2094 
Q 2938 2591 2744 2837 
Q 2550 3084 2163 3084 
Q 1697 3084 1428 2787 
Q 1159 2491 1159 1978 
L 1159 0 
L 581 0 
L 581 4863 
L 1159 4863 
L 1159 2956 
Q 1366 3272 1645 3428 
Q 1925 3584 2291 3584 
Q 2894 3584 3203 3211 
Q 3513 2838 3513 2113 
z
" transform="scale(0.015625)"/>
     </defs>
     <use xlink:href="#DejaVuSans-47"/>
     <use xlink:href="#DejaVuSans-72" transform="translate(77.490234 0)"/>
     <use xlink:href="#DejaVuSans-6f" transform="translate(116.353516 0)"/>
     <use xlink:href="#DejaVuSans-75" transform="translate(177.535156 0)"/>
     <use xlink:href="#DejaVuSans-6e" transform="translate(240.914062 0)"/>
     <use xlink:href="#DejaVuSans-64" transform="translate(304.292969 0)"/>
     <use xlink:href="#DejaVuSans-20" transform="translate(367.769531 0)"/>
     <use xlink:href="#DejaVuSans-54" transform="translate(399.556641 0)"/>
     <use xlink:href="#DejaVuSans-72" transform="translate(445.890625 0)"/>
     <use xlink:href="#DejaVuSans-75" transform="translate(487.003906 0)"/>
     <use xlink:href="#DejaVuSans-74" transform="translate(550.382812 0)"/>
     <use xlink:href="#DejaVuSans-68" transform="translate(589.591797 0)"/>
    </g>
   </g>
  </g>
 </g>
 <defs>
  <clipPath id="p35e572a2ed">
   <rect x="10.8" y="10.8" width="554.4" height="551.04"/>
  </clipPath>
  <clipPath id="p6444aa6484">
   <rect x="10.8" y="590.16" width="554.4" height="551.04"/>
  </clipPath>
 </defs>
</svg>
