<?xml version="1.0" encoding="UTF-8"?>
<svg id="_图层_1" data-name="图层_1" xmlns="http://www.w3.org/2000/svg" version="1.1" xmlns:xlink="http://www.w3.org/1999/xlink" viewBox="0 0 288 288">
  <!-- Generator: Adobe Illustrator 29.6.0, SVG Export Plug-In . SVG Version: 2.1.1 Build 207)  -->
  <defs>
    <style>
      .st0 {
        clip-path: url(#clippath-21);
      }

      .st1 {
        clip-path: url(#clippath-6);
      }

      .st2 {
        clip-path: url(#clippath-7);
      }

      .st3 {
        clip-path: url(#clippath-17);
      }

      .st4 {
        clip-path: url(#clippath-15);
      }

      .st5 {
        clip-path: url(#clippath-18);
      }

      .st6 {
        clip-path: url(#clippath-4);
      }

      .st7 {
        clip-path: url(#clippath-22);
      }

      .st8 {
        clip-path: url(#clippath-23);
      }

      .st9 {
        clip-path: url(#clippath-9);
      }

      .st10 {
        clip-path: url(#clippath-10);
      }

      .st11 {
        clip-path: url(#clippath-25);
      }

      .st12 {
        clip-path: url(#clippath-11);
      }

      .st13, .st14, .st15, .st16 {
        fill: none;
      }

      .st14 {
        stroke: silver;
        stroke-width: 3px;
      }

      .st14, .st17, .st18, .st16, .st19, .st20 {
        stroke-linejoin: round;
      }

      .st21 {
        clip-path: url(#clippath-1);
      }

      .st22 {
        clip-path: url(#clippath-5);
      }

      .st23 {
        clip-path: url(#clippath-20);
      }

      .st24 {
        clip-path: url(#clippath-8);
      }

      .st15, .st25 {
        stroke: #231815;
        stroke-dasharray: 12 4;
        stroke-miterlimit: 10;
        stroke-width: 2px;
      }

      .st26 {
        clip-path: url(#clippath-3);
      }

      .st17 {
        fill: #2eabc5;
        stroke: #2eabc5;
      }

      .st27 {
        clip-path: url(#clippath-12);
      }

      .st18 {
        fill: #90b4cf;
        stroke: #90b4cf;
      }

      .st28 {
        clip-path: url(#clippath-14);
      }

      .st29 {
        clip-path: url(#clippath-19);
      }

      .st16 {
        stroke: #f9373a;
        stroke-width: 4px;
      }

      .st25 {
        fill: #eff4fc;
        opacity: .5;
      }

      .st19 {
        fill: #87bfd6;
        stroke: #87bfd6;
      }

      .st30 {
        clip-path: url(#clippath-16);
      }

      .st31 {
        clip-path: url(#clippath-2);
      }

      .st32 {
        clip-path: url(#clippath-13);
      }

      .st20 {
        fill: #8f96bd;
        stroke: #8f96bd;
      }

      .st33 {
        clip-path: url(#clippath-24);
      }

      .st34 {
        clip-path: url(#clippath);
      }
    </style>
    <clipPath id="clippath">
      <rect class="st13" x="10.8" y="10.8" width="266.4" height="266.4"/>
    </clipPath>
    <clipPath id="clippath-1">
      <rect class="st13" x="10.8" y="10.8" width="266.4" height="266.4"/>
    </clipPath>
    <clipPath id="clippath-2">
      <rect class="st13" x="10.8" y="10.8" width="266.4" height="266.4"/>
    </clipPath>
    <clipPath id="clippath-3">
      <rect class="st13" x="10.8" y="10.8" width="266.4" height="266.4"/>
    </clipPath>
    <clipPath id="clippath-4">
      <rect class="st13" x="10.8" y="10.8" width="266.4" height="266.4"/>
    </clipPath>
    <clipPath id="clippath-5">
      <rect class="st13" x="10.8" y="10.8" width="266.4" height="266.4"/>
    </clipPath>
    <clipPath id="clippath-6">
      <rect class="st13" x="10.8" y="10.8" width="266.4" height="266.4"/>
    </clipPath>
    <clipPath id="clippath-7">
      <rect class="st13" x="10.8" y="10.8" width="266.4" height="266.4"/>
    </clipPath>
    <clipPath id="clippath-8">
      <rect class="st13" x="10.8" y="10.8" width="266.4" height="266.4"/>
    </clipPath>
    <clipPath id="clippath-9">
      <rect class="st13" x="10.8" y="10.8" width="266.4" height="266.4"/>
    </clipPath>
    <clipPath id="clippath-10">
      <rect class="st13" x="10.8" y="10.8" width="266.4" height="266.4"/>
    </clipPath>
    <clipPath id="clippath-11">
      <rect class="st13" x="10.8" y="10.8" width="266.4" height="266.4"/>
    </clipPath>
    <clipPath id="clippath-12">
      <rect class="st13" x="10.8" y="10.8" width="266.4" height="266.4"/>
    </clipPath>
    <clipPath id="clippath-13">
      <rect class="st13" x="10.8" y="10.8" width="266.4" height="266.4"/>
    </clipPath>
    <clipPath id="clippath-14">
      <rect class="st13" x="10.8" y="10.8" width="266.4" height="266.4"/>
    </clipPath>
    <clipPath id="clippath-15">
      <rect class="st13" x="10.8" y="10.8" width="266.4" height="266.4"/>
    </clipPath>
    <clipPath id="clippath-16">
      <rect class="st13" x="10.8" y="10.8" width="266.4" height="266.4"/>
    </clipPath>
    <clipPath id="clippath-17">
      <rect class="st13" x="10.8" y="10.8" width="266.4" height="266.4"/>
    </clipPath>
    <clipPath id="clippath-18">
      <rect class="st13" x="10.8" y="10.8" width="266.4" height="266.4"/>
    </clipPath>
    <clipPath id="clippath-19">
      <rect class="st13" x="10.8" y="10.8" width="266.4" height="266.4"/>
    </clipPath>
    <clipPath id="clippath-20">
      <rect class="st13" x="10.8" y="10.8" width="266.4" height="266.4"/>
    </clipPath>
    <clipPath id="clippath-21">
      <rect class="st13" x="10.8" y="10.8" width="266.4" height="266.4"/>
    </clipPath>
    <clipPath id="clippath-22">
      <rect class="st13" x="10.8" y="10.8" width="266.4" height="266.4"/>
    </clipPath>
    <clipPath id="clippath-23">
      <rect class="st13" x="10.8" y="10.8" width="266.4" height="266.4"/>
    </clipPath>
    <clipPath id="clippath-24">
      <rect class="st13" x="10.8" y="10.8" width="266.4" height="266.4"/>
    </clipPath>
    <clipPath id="clippath-25">
      <rect class="st13" x="10.8" y="10.8" width="266.4" height="266.4"/>
    </clipPath>
  </defs>
  <rect class="st25" width="288" height="288"/>
  <g id="LineCollection_1">
    <g class="st34">
      <path class="st14" d="M146.32,111.26l-64.61-3.66"/>
    </g>
    <g class="st21">
      <path class="st14" d="M146.32,111.26l45.49,60.59"/>
    </g>
    <g class="st31">
      <path class="st14" d="M146.32,111.26l25.98-77.34"/>
    </g>
    <g class="st26">
      <path class="st14" d="M81.7,107.6L45.33,40.26"/>
    </g>
    <g class="st6">
      <path class="st14" d="M81.7,107.6l-47.79,52.96"/>
    </g>
    <g class="st22">
      <path class="st14" d="M191.81,171.85l2.37,82.23"/>
    </g>
    <g class="st1">
      <path class="st14" d="M191.81,171.85l62.28-9.77"/>
    </g>
  </g>
  <g class="st2">
    <path class="st16" d="M81.7,107.6L45.33,40.26"/>
  </g>
  <g class="st24">
    <path class="st16" d="M81.7,107.6l-47.79,52.96"/>
  </g>
  <g class="st9">
    <path class="st16" d="M191.81,171.85l2.37,82.23"/>
  </g>
  <g id="PathCollection_1">
    <g class="st10">
      <path id="C0_0_45e16f7962" class="st18" d="M146.32,124.01c3.38,0,6.62-1.34,9.01-3.73,2.39-2.39,3.73-5.63,3.73-9.01s-1.34-6.62-3.73-9.01c-2.39-2.39-5.63-3.73-9.01-3.73s-6.62,1.34-9.01,3.73c-2.39,2.39-3.73,5.63-3.73,9.01s1.34,6.62,3.73,9.01c2.39,2.39,5.63,3.73,9.01,3.73Z"/>
    </g>
    <g class="st12">
      <path id="C0_0_45e16f79621" data-name="C0_0_45e16f7962" class="st20" d="M81.7,120.34c3.38,0,6.62-1.34,9.01-3.73,2.39-2.39,3.73-5.63,3.73-9.01s-1.34-6.62-3.73-9.01c-2.39-2.39-5.63-3.73-9.01-3.73s-6.62,1.34-9.01,3.73c-2.39,2.39-3.73,5.63-3.73,9.01s1.34,6.62,3.73,9.01c2.39,2.39,5.63,3.73,9.01,3.73Z"/>
    </g>
    <g class="st27">
      <path id="C0_0_45e16f79622" data-name="C0_0_45e16f7962" class="st20" d="M191.81,184.6c3.38,0,6.62-1.34,9.01-3.73,2.39-2.39,3.73-5.63,3.73-9.01s-1.34-6.62-3.73-9.01c-2.39-2.39-5.63-3.73-9.01-3.73s-6.62,1.34-9.01,3.73c-2.39,2.39-3.73,5.63-3.73,9.01s1.34,6.62,3.73,9.01c2.39,2.39,5.63,3.73,9.01,3.73Z"/>
    </g>
    <g class="st32">
      <path id="C0_0_45e16f79623" data-name="C0_0_45e16f7962" class="st17" d="M172.3,46.66c3.38,0,6.62-1.34,9.01-3.73,2.39-2.39,3.73-5.63,3.73-9.01s-1.34-6.62-3.73-9.01c-2.39-2.39-5.63-3.73-9.01-3.73s-6.62,1.34-9.01,3.73c-2.39,2.39-3.73,5.63-3.73,9.01s1.34,6.62,3.73,9.01c2.39,2.39,5.63,3.73,9.01,3.73Z"/>
    </g>
    <g class="st28">
      <path id="C0_0_45e16f79624" data-name="C0_0_45e16f7962" class="st19" d="M45.33,53c3.38,0,6.62-1.34,9.01-3.73,2.39-2.39,3.73-5.63,3.73-9.01s-1.34-6.62-3.73-9.01c-2.39-2.39-5.63-3.73-9.01-3.73s-6.62,1.34-9.01,3.73c-2.39,2.39-3.73,5.63-3.73,9.01s1.34,6.62,3.73,9.01c2.39,2.39,5.63,3.73,9.01,3.73Z"/>
    </g>
    <g class="st4">
      <path id="C0_0_45e16f79625" data-name="C0_0_45e16f7962" class="st19" d="M33.92,173.3c3.38,0,6.62-1.34,9.01-3.73,2.39-2.39,3.73-5.63,3.73-9.01s-1.34-6.62-3.73-9.01c-2.39-2.39-5.63-3.73-9.01-3.73s-6.62,1.34-9.01,3.73c-2.39,2.39-3.73,5.63-3.73,9.01s1.34,6.62,3.73,9.01c2.39,2.39,5.63,3.73,9.01,3.73Z"/>
    </g>
    <g class="st30">
      <path id="C0_0_45e16f79626" data-name="C0_0_45e16f7962" class="st19" d="M194.18,266.83c3.38,0,6.62-1.34,9.01-3.73,2.39-2.39,3.73-5.63,3.73-9.01s-1.34-6.62-3.73-9.01c-2.39-2.39-5.63-3.73-9.01-3.73s-6.62,1.34-9.01,3.73c-2.39,2.39-3.73,5.63-3.73,9.01s1.34,6.62,3.73,9.01c2.39,2.39,5.63,3.73,9.01,3.73Z"/>
    </g>
    <g class="st3">
      <path id="C0_0_45e16f79627" data-name="C0_0_45e16f7962" class="st19" d="M254.08,174.83c3.38,0,6.62-1.34,9.01-3.73,2.39-2.39,3.73-5.63,3.73-9.01s-1.34-6.62-3.73-9.01c-2.39-2.39-5.63-3.73-9.01-3.73s-6.62,1.34-9.01,3.73c-2.39,2.39-3.73,5.63-3.73,9.01s1.34,6.62,3.73,9.01c2.39,2.39,5.63,3.73,9.01,3.73Z"/>
    </g>
  </g>
  <g id="text_1">
    <g class="st5">
      <path id="DejaVuSans-43" d="M150.45,105.7v1.45c-.47-.43-.96-.76-1.49-.97-.53-.21-1.09-.32-1.68-.32-1.17,0-2.06.36-2.68,1.07s-.93,1.74-.93,3.09.31,2.37.93,3.09,1.51,1.07,2.68,1.07c.59,0,1.15-.11,1.68-.32s1.02-.54,1.49-.97v1.44c-.48.33-.99.57-1.54.74-.54.16-1.11.25-1.71.25-1.55,0-2.76-.47-3.65-1.42-.89-.95-1.33-2.24-1.33-3.87s.44-2.93,1.33-3.88c.89-.95,2.11-1.42,3.65-1.42.61,0,1.18.08,1.72.24.54.16,1.05.4,1.52.73Z"/>
    </g>
  </g>
  <g id="text_2">
    <g class="st29">
      <path id="DejaVuSans-4e" d="M77.84,101.25h1.86l4.53,8.54v-8.54h1.34v10.21h-1.86l-4.52-8.54v8.54h-1.34v-10.21Z"/>
    </g>
  </g>
  <g id="text_3">
    <g class="st23">
      <path id="DejaVuSans-4e1" data-name="DejaVuSans-4e" d="M187.94,165.51h1.86l4.53,8.54v-8.54h1.34v10.21h-1.86l-4.52-8.54v8.54h-1.34v-10.21Z"/>
    </g>
  </g>
  <g id="text_4">
    <g class="st0">
      <path id="DejaVuSans-53" d="M175.35,27.91v1.35c-.52-.25-1.02-.44-1.48-.56-.47-.12-.91-.19-1.35-.19-.75,0-1.33.15-1.74.44-.41.29-.61.71-.61,1.24,0,.45.14.79.41,1.02.27.23.79.41,1.54.56l.83.17c1.03.2,1.79.54,2.28,1.04s.74,1.16.74,1.98c0,.99-.33,1.74-1,2.25-.66.51-1.63.77-2.91.77-.48,0-1-.05-1.54-.16-.54-.11-1.11-.27-1.69-.49v-1.42c.56.31,1.11.55,1.65.71.54.16,1.07.24,1.59.24.79,0,1.4-.15,1.82-.46.43-.31.64-.75.64-1.33,0-.5-.15-.89-.46-1.17s-.81-.5-1.51-.64l-.84-.16c-1.03-.2-1.77-.53-2.24-.96-.46-.44-.69-1.05-.69-1.83,0-.9.32-1.61.95-2.13.64-.52,1.51-.78,2.63-.78.48,0,.97.04,1.46.13.5.09,1.01.22,1.52.39Z"/>
    </g>
  </g>
  <g id="text_5">
    <g class="st7">
      <path id="DejaVuSans-48" d="M41.44,33.91h1.38v4.18h5.02v-4.18h1.38v10.21h-1.38v-4.86h-5.02v4.86h-1.38v-10.21Z"/>
    </g>
  </g>
  <g id="text_6">
    <g class="st8">
      <path id="DejaVuSans-481" data-name="DejaVuSans-48" d="M30.03,154.21h1.38v4.18h5.02v-4.18h1.38v10.21h-1.38v-4.86h-5.02v4.86h-1.38v-10.21Z"/>
    </g>
  </g>
  <g id="text_7">
    <g class="st33">
      <path id="DejaVuSans-482" data-name="DejaVuSans-48" d="M190.29,247.74h1.38v4.18h5.02v-4.18h1.38v10.21h-1.38v-4.86h-5.02v4.86h-1.38v-10.21Z"/>
    </g>
  </g>
  <g id="text_8">
    <g class="st11">
      <path id="DejaVuSans-483" data-name="DejaVuSans-48" d="M250.19,155.74h1.38v4.18h5.02v-4.18h1.38v10.21h-1.38v-4.86h-5.02v4.86h-1.38v-10.21Z"/>
    </g>
  </g>
  <path class="st15" d="M28.78,24.84c3.74-4.5,10.56-7.81,17.37-7.07,4.14.45,7.12,2.27,9.13,3.53,6.17,3.87,9.34,9.24,10.6,11.48,11.53,20.46,11.39,40.46,23.56,50.36,10.85,8.83,20.11.35,50.65,7.07,20.1,4.42,27.51,4.55,30.33,10.31,4.07,8.31-3.27,19.77-5.89,23.85-2.88,4.5-9.18,14.32-19.14,15.61-8.94,1.15-12.13-5.69-25.91-10.01-4.46-1.4-16.54-5.18-27.98-1.77-11.49,3.43-19.7,14.7-35.63,37.1-10,14.06-12.64,19.91-19.73,21.2-8.42,1.54-18.42-4.21-22.38-12.07-7.4-14.7,7.69-33.91,10.9-37.99,15.12-19.25,29.75-15.58,32.69-26.8,4.16-15.9-24.48-26.22-31.51-61.55-2.62-13.17-.18-19.51,2.94-23.26Z"/>
  <path class="st15" d="M180.14,270.73c6.98,6.62,20.07,7.97,27.68,2.06,4.47-3.47,6.28-8.85,7.36-16.79,4.33-31.85-11.44-44.43-4.12-55.95,4.2-6.61,9.95-3.34,45.94-18.85,5.86-2.52,10.73-4.78,13.84-10.01,5.42-9.13,3.32-23.71-4.71-29.15-4.5-3.05-9.66-2.42-16.2-1.47-36.24,5.28-37.51,9.4-44.47,7.95-23.03-4.79-18.01-51.8-45.06-61.25-12.4-4.33-28.27.37-33.87,9.42-8.61,13.95,7.55,37.65,15.61,49.47,16.12,23.65,23.42,18.15,29.47,32.98,7.17,17.55-.98,30.33,2.03,74.21.31,4.56.94,12.12,6.48,17.37Z"/>
</svg>