<?xml version="1.0" encoding="UTF-8"?>
<svg id="_图层_1" data-name="图层_1" xmlns="http://www.w3.org/2000/svg" version="1.1" xmlns:xlink="http://www.w3.org/1999/xlink" viewBox="0 0 288 288">
  <!-- Generator: Adobe Illustrator 29.6.0, SVG Export Plug-In . SVG Version: 2.1.1 Build 207)  -->
  <defs>
    <style>
      .st0 {
        clip-path: url(#clippath-21);
      }

      .st1 {
        clip-path: url(#clippath-6);
      }

      .st2 {
        clip-path: url(#clippath-7);
      }

      .st3 {
        clip-path: url(#clippath-17);
      }

      .st4 {
        clip-path: url(#clippath-15);
      }

      .st5 {
        clip-path: url(#clippath-18);
      }

      .st6 {
        clip-path: url(#clippath-4);
      }

      .st7 {
        clip-path: url(#clippath-22);
      }

      .st8 {
        clip-path: url(#clippath-23);
      }

      .st9 {
        clip-path: url(#clippath-9);
      }

      .st10 {
        clip-path: url(#clippath-10);
      }

      .st11 {
        clip-path: url(#clippath-25);
      }

      .st12 {
        clip-path: url(#clippath-27);
      }

      .st13 {
        clip-path: url(#clippath-11);
      }

      .st14, .st15, .st16, .st17 {
        fill: none;
      }

      .st18 {
        clip-path: url(#clippath-28);
      }

      .st15 {
        stroke: silver;
        stroke-width: 3px;
      }

      .st15, .st19, .st20, .st17, .st21, .st22, .st23 {
        stroke-linejoin: round;
      }

      .st24 {
        clip-path: url(#clippath-1);
      }

      .st19 {
        fill: #c5b4d5;
        stroke: #c5b4d5;
      }

      .st25 {
        clip-path: url(#clippath-5);
      }

      .st26 {
        clip-path: url(#clippath-20);
      }

      .st27 {
        clip-path: url(#clippath-8);
      }

      .st16, .st28 {
        stroke: #231815;
        stroke-dasharray: 12 4;
        stroke-miterlimit: 10;
        stroke-width: 2px;
      }

      .st29 {
        clip-path: url(#clippath-3);
      }

      .st30 {
        clip-path: url(#clippath-26);
      }

      .st31 {
        clip-path: url(#clippath-12);
      }

      .st20 {
        fill: #90b4cf;
        stroke: #90b4cf;
      }

      .st32 {
        clip-path: url(#clippath-14);
      }

      .st33 {
        clip-path: url(#clippath-19);
      }

      .st17 {
        stroke: #f9373a;
        stroke-width: 4px;
      }

      .st28 {
        fill: #eff4fc;
        opacity: .5;
      }

      .st21 {
        fill: #87bfd6;
        stroke: #87bfd6;
      }

      .st34 {
        clip-path: url(#clippath-16);
      }

      .st35 {
        clip-path: url(#clippath-2);
      }

      .st22 {
        fill: #a5b1db;
        stroke: #a5b1db;
      }

      .st36 {
        clip-path: url(#clippath-13);
      }

      .st23 {
        fill: #8f96bd;
        stroke: #8f96bd;
      }

      .st37 {
        clip-path: url(#clippath-24);
      }

      .st38 {
        clip-path: url(#clippath);
      }
    </style>
    <clipPath id="clippath">
      <rect class="st14" x="10.8" y="10.8" width="266.4" height="266.4"/>
    </clipPath>
    <clipPath id="clippath-1">
      <rect class="st14" x="10.8" y="10.8" width="266.4" height="266.4"/>
    </clipPath>
    <clipPath id="clippath-2">
      <rect class="st14" x="10.8" y="10.8" width="266.4" height="266.4"/>
    </clipPath>
    <clipPath id="clippath-3">
      <rect class="st14" x="10.8" y="10.8" width="266.4" height="266.4"/>
    </clipPath>
    <clipPath id="clippath-4">
      <rect class="st14" x="10.8" y="10.8" width="266.4" height="266.4"/>
    </clipPath>
    <clipPath id="clippath-5">
      <rect class="st14" x="10.8" y="10.8" width="266.4" height="266.4"/>
    </clipPath>
    <clipPath id="clippath-6">
      <rect class="st14" x="10.8" y="10.8" width="266.4" height="266.4"/>
    </clipPath>
    <clipPath id="clippath-7">
      <rect class="st14" x="10.8" y="10.8" width="266.4" height="266.4"/>
    </clipPath>
    <clipPath id="clippath-8">
      <rect class="st14" x="10.8" y="10.8" width="266.4" height="266.4"/>
    </clipPath>
    <clipPath id="clippath-9">
      <rect class="st14" x="10.8" y="10.8" width="266.4" height="266.4"/>
    </clipPath>
    <clipPath id="clippath-10">
      <rect class="st14" x="10.8" y="10.8" width="266.4" height="266.4"/>
    </clipPath>
    <clipPath id="clippath-11">
      <rect class="st14" x="10.8" y="10.8" width="266.4" height="266.4"/>
    </clipPath>
    <clipPath id="clippath-12">
      <rect class="st14" x="10.8" y="10.8" width="266.4" height="266.4"/>
    </clipPath>
    <clipPath id="clippath-13">
      <rect class="st14" x="10.8" y="10.8" width="266.4" height="266.4"/>
    </clipPath>
    <clipPath id="clippath-14">
      <rect class="st14" x="10.8" y="10.8" width="266.4" height="266.4"/>
    </clipPath>
    <clipPath id="clippath-15">
      <rect class="st14" x="10.8" y="10.8" width="266.4" height="266.4"/>
    </clipPath>
    <clipPath id="clippath-16">
      <rect class="st14" x="10.8" y="10.8" width="266.4" height="266.4"/>
    </clipPath>
    <clipPath id="clippath-17">
      <rect class="st14" x="10.8" y="10.8" width="266.4" height="266.4"/>
    </clipPath>
    <clipPath id="clippath-18">
      <rect class="st14" x="10.8" y="10.8" width="266.4" height="266.4"/>
    </clipPath>
    <clipPath id="clippath-19">
      <rect class="st14" x="10.8" y="10.8" width="266.4" height="266.4"/>
    </clipPath>
    <clipPath id="clippath-20">
      <rect class="st14" x="10.8" y="10.8" width="266.4" height="266.4"/>
    </clipPath>
    <clipPath id="clippath-21">
      <rect class="st14" x="10.8" y="10.8" width="266.4" height="266.4"/>
    </clipPath>
    <clipPath id="clippath-22">
      <rect class="st14" x="10.8" y="10.8" width="266.4" height="266.4"/>
    </clipPath>
    <clipPath id="clippath-23">
      <rect class="st14" x="10.8" y="10.8" width="266.4" height="266.4"/>
    </clipPath>
    <clipPath id="clippath-24">
      <rect class="st14" x="10.8" y="10.8" width="266.4" height="266.4"/>
    </clipPath>
    <clipPath id="clippath-25">
      <rect class="st14" x="10.8" y="10.8" width="266.4" height="266.4"/>
    </clipPath>
    <clipPath id="clippath-26">
      <rect class="st14" x="10.8" y="10.8" width="266.4" height="266.4"/>
    </clipPath>
    <clipPath id="clippath-27">
      <rect class="st14" x="10.8" y="10.8" width="266.4" height="266.4"/>
    </clipPath>
    <clipPath id="clippath-28">
      <rect class="st14" x="10.8" y="10.8" width="266.4" height="266.4"/>
    </clipPath>
  </defs>
  <rect class="st28" width="288" height="288"/>
  <g id="axes_1">
    <g id="LineCollection_1">
      <g class="st38">
        <path class="st15" d="M149.81,122.99l-59.38,14.42"/>
      </g>
      <g class="st24">
        <path class="st15" d="M149.81,122.99l50.99,46.98"/>
      </g>
      <g class="st35">
        <path class="st15" d="M149.81,122.99l15.56-89.07"/>
      </g>
      <g class="st29">
        <path class="st15" d="M90.43,137.41l-26.57-82.91"/>
      </g>
      <g class="st6">
        <path class="st15" d="M90.43,137.41l-56.51,8.99"/>
      </g>
      <g class="st25">
        <path class="st15" d="M90.43,137.41l-16.28,88.54"/>
      </g>
      <g class="st1">
        <path class="st15" d="M200.8,169.97l19.06,84.11"/>
      </g>
      <g class="st2">
        <path class="st15" d="M200.8,169.97l53.28-32.6"/>
      </g>
    </g>
    <g id="LineCollection_2">
      <g class="st27">
        <path class="st17" d="M149.81,122.99l15.56-89.07"/>
      </g>
      <g class="st9">
        <path class="st17" d="M90.43,137.41l-26.57-82.91"/>
      </g>
      <g class="st10">
        <path class="st17" d="M200.8,169.97l53.28-32.6"/>
      </g>
    </g>
    <g id="PathCollection_1">
      <g class="st13">
        <path id="C0_0_bd36dd377d" class="st20" d="M149.81,135.73c3.38,0,6.62-1.34,9.01-3.73,2.39-2.39,3.73-5.63,3.73-9.01s-1.34-6.62-3.73-9.01c-2.39-2.39-5.63-3.73-9.01-3.73s-6.62,1.34-9.01,3.73c-2.39,2.39-3.73,5.63-3.73,9.01s1.34,6.62,3.73,9.01c2.39,2.39,5.63,3.73,9.01,3.73Z"/>
      </g>
      <g class="st31">
        <path id="C0_0_bd36dd377d1" data-name="C0_0_bd36dd377d" class="st20" d="M90.43,150.16c3.38,0,6.62-1.34,9.01-3.73,2.39-2.39,3.73-5.63,3.73-9.01s-1.34-6.62-3.73-9.01c-2.39-2.39-5.63-3.73-9.01-3.73s-6.62,1.34-9.01,3.73c-2.39,2.39-3.73,5.63-3.73,9.01s1.34,6.62,3.73,9.01c2.39,2.39,5.63,3.73,9.01,3.73Z"/>
      </g>
      <g class="st36">
        <path id="C0_0_bd36dd377d2" data-name="C0_0_bd36dd377d" class="st23" d="M200.8,182.72c3.38,0,6.62-1.34,9.01-3.73,2.39-2.39,3.73-5.63,3.73-9.01s-1.34-6.62-3.73-9.01c-2.39-2.39-5.63-3.73-9.01-3.73s-6.62,1.34-9.01,3.73c-2.39,2.39-3.73,5.63-3.73,9.01s1.34,6.62,3.73,9.01c2.39,2.39,5.63,3.73,9.01,3.73Z"/>
      </g>
      <g class="st32">
        <path id="C0_0_bd36dd377d3" data-name="C0_0_bd36dd377d" class="st22" d="M165.37,46.66c3.38,0,6.62-1.34,9.01-3.73,2.39-2.39,3.73-5.63,3.73-9.01s-1.34-6.62-3.73-9.01c-2.39-2.39-5.63-3.73-9.01-3.73s-6.62,1.34-9.01,3.73c-2.39,2.39-3.73,5.63-3.73,9.01s1.34,6.62,3.73,9.01c2.39,2.39,5.63,3.73,9.01,3.73Z"/>
      </g>
      <g class="st4">
        <path id="C0_0_bd36dd377d4" data-name="C0_0_bd36dd377d" class="st19" d="M63.85,67.25c3.38,0,6.62-1.34,9.01-3.73,2.39-2.39,3.73-5.63,3.73-9.01s-1.34-6.62-3.73-9.01c-2.39-2.39-5.63-3.73-9.01-3.73s-6.62,1.34-9.01,3.73c-2.39,2.39-3.73,5.63-3.73,9.01s1.34,6.62,3.73,9.01c2.39,2.39,5.63,3.73,9.01,3.73Z"/>
      </g>
      <g class="st34">
        <path id="C0_0_bd36dd377d5" data-name="C0_0_bd36dd377d" class="st21" d="M33.92,159.15c3.38,0,6.62-1.34,9.01-3.73,2.39-2.39,3.73-5.63,3.73-9.01s-1.34-6.62-3.73-9.01c-2.39-2.39-5.63-3.73-9.01-3.73s-6.62,1.34-9.01,3.73c-2.39,2.39-3.73,5.63-3.73,9.01s1.34,6.62,3.73,9.01c2.39,2.39,5.63,3.73,9.01,3.73Z"/>
      </g>
      <g class="st3">
        <path id="C0_0_bd36dd377d6" data-name="C0_0_bd36dd377d" class="st21" d="M74.15,238.7c3.38,0,6.62-1.34,9.01-3.73,2.39-2.39,3.73-5.63,3.73-9.01s-1.34-6.62-3.73-9.01c-2.39-2.39-5.63-3.73-9.01-3.73s-6.62,1.34-9.01,3.73c-2.39,2.39-3.73,5.63-3.73,9.01s1.34,6.62,3.73,9.01c2.39,2.39,5.63,3.73,9.01,3.73Z"/>
      </g>
      <g class="st5">
        <path id="C0_0_bd36dd377d7" data-name="C0_0_bd36dd377d" class="st21" d="M219.87,266.83c3.38,0,6.62-1.34,9.01-3.73,2.39-2.39,3.73-5.63,3.73-9.01s-1.34-6.62-3.73-9.01c-2.39-2.39-5.63-3.73-9.01-3.73s-6.62,1.34-9.01,3.73c-2.39,2.39-3.73,5.63-3.73,9.01s1.34,6.62,3.73,9.01c2.39,2.39,5.63,3.73,9.01,3.73Z"/>
      </g>
      <g class="st33">
        <path id="C0_0_bd36dd377d8" data-name="C0_0_bd36dd377d" class="st21" d="M254.08,150.12c3.38,0,6.62-1.34,9.01-3.73,2.39-2.39,3.73-5.63,3.73-9.01s-1.34-6.62-3.73-9.01c-2.39-2.39-5.63-3.73-9.01-3.73s-6.62,1.34-9.01,3.73c-2.39,2.39-3.73,5.63-3.73,9.01s1.34,6.62,3.73,9.01c2.39,2.39,5.63,3.73,9.01,3.73Z"/>
      </g>
    </g>
    <g id="text_1">
      <g class="st26">
        <path id="DejaVuSans-43" d="M153.94,117.43v1.45c-.47-.43-.96-.76-1.49-.97-.53-.21-1.09-.32-1.68-.32-1.17,0-2.06.36-2.68,1.07s-.93,1.74-.93,3.09.31,2.37.93,3.09,1.51,1.07,2.68,1.07c.59,0,1.15-.11,1.68-.32s1.02-.54,1.49-.97v1.44c-.48.33-.99.57-1.54.74-.54.16-1.11.25-1.71.25-1.55,0-2.76-.47-3.65-1.42-.89-.95-1.33-2.24-1.33-3.87s.44-2.93,1.33-3.88c.89-.95,2.11-1.42,3.65-1.42.61,0,1.18.08,1.72.24.54.16,1.05.4,1.52.73Z"/>
      </g>
    </g>
    <g id="text_2">
      <g class="st0">
        <path id="DejaVuSans-431" data-name="DejaVuSans-43" d="M94.56,131.86v1.45c-.47-.43-.96-.76-1.49-.97-.53-.21-1.09-.32-1.68-.32-1.17,0-2.06.36-2.68,1.07s-.93,1.74-.93,3.09.31,2.37.93,3.09,1.51,1.07,2.68,1.07c.59,0,1.15-.11,1.68-.32s1.02-.54,1.49-.97v1.44c-.48.33-.99.57-1.54.74-.54.16-1.11.25-1.71.25-1.55,0-2.76-.47-3.65-1.42-.89-.95-1.33-2.24-1.33-3.87s.44-2.93,1.33-3.88c.89-.95,2.11-1.42,3.65-1.42.61,0,1.18.08,1.72.24.54.16,1.05.4,1.52.73Z"/>
      </g>
    </g>
    <g id="text_3">
      <g class="st7">
        <path id="DejaVuSans-4e" d="M196.94,163.63h1.86l4.53,8.54v-8.54h1.34v10.21h-1.86l-4.52-8.54v8.54h-1.34v-10.21Z"/>
      </g>
    </g>
    <g id="text_4">
      <g class="st8">
        <path id="DejaVuSans-4f" d="M165.38,28.51c-1,0-1.8.37-2.39,1.12-.59.75-.88,1.77-.88,3.06s.29,2.3.88,3.05c.59.75,1.39,1.12,2.39,1.12s1.8-.37,2.38-1.12c.59-.75.88-1.76.88-3.05s-.29-2.31-.88-3.06c-.59-.75-1.38-1.12-2.38-1.12ZM165.38,27.39c1.43,0,2.57.48,3.43,1.44.86.96,1.29,2.25,1.29,3.86s-.43,2.89-1.29,3.85c-.86.96-2,1.44-3.43,1.44s-2.58-.48-3.44-1.44c-.86-.96-1.29-2.24-1.29-3.86s.43-2.9,1.29-3.86c.86-.96,2.01-1.44,3.44-1.44Z"/>
      </g>
    </g>
    <g id="text_5">
      <g class="st37">
        <path id="DejaVuSans-49" d="M63.16,48.16h1.38v10.21h-1.38v-10.21Z"/>
      </g>
    </g>
    <g id="text_6">
      <g class="st11">
        <path id="DejaVuSans-48" d="M30.03,140.06h1.38v4.18h5.02v-4.18h1.38v10.21h-1.38v-4.86h-5.02v4.86h-1.38v-10.21Z"/>
      </g>
    </g>
    <g id="text_7">
      <g class="st30">
        <path id="DejaVuSans-481" data-name="DejaVuSans-48" d="M70.26,219.61h1.38v4.18h5.02v-4.18h1.38v10.21h-1.38v-4.86h-5.02v4.86h-1.38v-10.21Z"/>
      </g>
    </g>
    <g id="text_8">
      <g class="st12">
        <path id="DejaVuSans-482" data-name="DejaVuSans-48" d="M215.98,247.74h1.38v4.18h5.02v-4.18h1.38v10.21h-1.38v-4.86h-5.02v4.86h-1.38v-10.21Z"/>
      </g>
    </g>
    <g id="text_9">
      <g class="st18">
        <path id="DejaVuSans-483" data-name="DejaVuSans-48" d="M250.19,131.03h1.38v4.18h5.02v-4.18h1.38v10.21h-1.38v-4.86h-5.02v4.86h-1.38v-10.21Z"/>
      </g>
    </g>
  </g>
  <path class="st16" d="M136.85,139.1c-4.19-6.8-12.95-21.04-7.66-29.15,5.35-8.2,23.59-7.89,36.81-2.06,23.78,10.49,24.18,35.71,37.99,36.12,13.4.4,16.13-23.25,40.34-29.93,3.23-.89,17.02-4.69,25.03,2.65,7.2,6.6,7.48,20.14,2.94,29.45-9.54,19.57-36.8,13.03-48,28.56-10.34,14.34,16.1,30.64,16.49,71.85.18,18.34-4.44,23.63-7.36,25.91-10.1,7.89-28.93,6.07-35.34-3.24-3.55-5.16-2.5-11.51-2.06-14.43,2.87-19.11,2.86-48.68-3.24-64.23-9.49-24.21-34.74-17.04-55.95-51.5Z"/>
</svg>